SplineFontDB: 3.0
FontName: ModernAntiqua
FullName: ModernAntiqua
FamilyName: ModernAntiqua
Weight: Medium
Copyright: wmk69\nSIL Open Font License v.1.1
Version: 1.0
ItalicAngle: 0
UnderlinePosition: -81
UnderlineWidth: 122
Ascent: 1511
Descent: 537
LayerCount: 2
Layer: 0 1 "Warstwa t+AUIA-a"  1
Layer: 1 1 "Plan pierwszy"  0
XUID: [1021 783 23647091 7762759]
FSType: 0
OS2Version: 3
OS2_WeightWidthSlopeOnly: 0
OS2_UseTypoMetrics: 1
CreationTime: 1260698820
ModificationTime: 1298810719
PfmFamily: 17
TTFWeight: 500
TTFWidth: 5
LineGap: 0
VLineGap: 0
Panose: 2 10 6 4 2 2 2 6 2 4
OS2TypoAscent: 1815
OS2TypoAOffset: 0
OS2TypoDescent: -508
OS2TypoDOffset: 0
OS2TypoLinegap: 0
OS2WinAscent: 1815
OS2WinAOffset: 0
OS2WinDescent: 508
OS2WinDOffset: 0
HheadAscent: 1815
HheadAOffset: 0
HheadDescent: -508
HheadDOffset: 0
OS2SubXSize: 1434
OS2SubYSize: 1331
OS2SubXOff: 0
OS2SubYOff: 287
OS2SupXSize: 1434
OS2SupYSize: 1331
OS2SupXOff: 0
OS2SupYOff: 977
OS2StrikeYSize: 102
OS2StrikeYPos: 512
OS2Vendor: '    '
OS2CodePages: 20000093.00000000
OS2UnicodeRanges: 8000002f.4000204b.00000000.00000000
DEI: 91125
TtTable: prep
PUSHW_1
 511
SCANCTRL
PUSHB_1
 1
SCANTYPE
SVTCA[y-axis]
MPPEM
PUSHB_1
 8
LT
IF
PUSHB_2
 1
 1
INSTCTRL
EIF
PUSHB_2
 70
 6
CALL
IF
POP
PUSHB_1
 16
EIF
MPPEM
PUSHB_1
 20
GT
IF
POP
PUSHB_1
 128
EIF
SCVTCI
PUSHB_1
 6
CALL
NOT
IF
EIF
PUSHB_1
 20
CALL
EndTTInstrs
TtTable: fpgm
PUSHB_1
 0
FDEF
PUSHB_1
 0
SZP0
MPPEM
PUSHB_1
 40
LT
IF
PUSHB_1
 74
SROUND
EIF
PUSHB_1
 0
SWAP
MIAP[rnd]
RTG
PUSHB_1
 6
CALL
IF
RTDG
EIF
MPPEM
PUSHB_1
 40
LT
IF
RDTG
EIF
DUP
MDRP[rp0,rnd,grey]
PUSHB_1
 1
SZP0
MDAP[no-rnd]
RTG
ENDF
PUSHB_1
 1
FDEF
DUP
MDRP[rp0,min,white]
PUSHB_1
 12
CALL
ENDF
PUSHB_1
 2
FDEF
MPPEM
GT
IF
RCVT
SWAP
EIF
POP
ENDF
PUSHB_1
 3
FDEF
ROUND[Black]
RTG
DUP
PUSHB_1
 64
LT
IF
POP
PUSHB_1
 64
EIF
ENDF
PUSHB_1
 4
FDEF
PUSHB_1
 6
CALL
IF
POP
SWAP
POP
ROFF
IF
MDRP[rp0,min,rnd,black]
ELSE
MDRP[min,rnd,black]
EIF
ELSE
MPPEM
GT
IF
IF
MIRP[rp0,min,rnd,black]
ELSE
MIRP[min,rnd,black]
EIF
ELSE

StartChar: .notdef
Encoding: 65536 -1 0
Width: 748
Flags: W
HStem: 0 68<136 544> 1297 68<136 544>
VStem: 68 68<68 1297> 544 68<68 1297>
LayerCount: 2
Fore
SplineSet
68 0 m 1,0,-1
 68 1365 l 1,1,-1
 612 1365 l 1,2,-1
 612 0 l 1,3,-1
 68 0 l 1,0,-1
136 68 m 1,4,-1
 544 68 l 1,5,-1
 544 1297 l 1,6,-1
 136 1297 l 1,7,-1
 136 68 l 1,4,-1
EndSplineSet
Validated: 1
EndChar

StartChar: exclam
Encoding: 33 33 4
Width: 660
GlyphClass: 2
Flags: W
HStem: -25 264<239.191 420.809> 1516 20G<303 357>
VStem: 200 260<14.7072 199.293 1382 1496.29>
LayerCount: 2
Fore
SplineSet
200 107 m 128,-1,1
 200 162 200 162 238 200.5 c 128,-1,2
 276 239 276 239 330 239 c 128,-1,3
 384 239 384 239 422 200.5 c 128,-1,4
 460 162 460 162 460 107 c 128,-1,5
 460 52 460 52 422 13.5 c 128,-1,6
 384 -25 384 -25 330 -25 c 128,-1,7
 276 -25 276 -25 238 13.5 c 128,-1,0
 200 52 200 52 200 107 c 128,-1,1
280 312 m 1,8,-1
 202 1382 l 2,9,10
 200 1393 200 1393 200 1404 c 0,11,12
 200 1459 200 1459 238 1497.5 c 128,-1,13
 276 1536 276 1536 330 1536 c 128,-1,14
 384 1536 384 1536 422 1497.5 c 128,-1,15
 460 1459 460 1459 460 1404 c 0,16,17
 460 1404 460 1404 458 1382 c 2,18,-1
 378 312 l 1,19,-1
 280 312 l 1,8,-1
EndSplineSet
Validated: 16385
EndChar

StartChar: quotedbl
Encoding: 34 34 5
Width: 876
GlyphClass: 2
Flags: W
HStem: 1087 449<200 374 502 676>
VStem: 200 174<1087 1536> 502 174<1087 1536>
LayerCount: 2
Fore
SplineSet
676 1536 m 1,0,-1
 676 1087 l 1,1,-1
 502 1087 l 1,2,-1
 502 1536 l 1,3,-1
 676 1536 l 1,0,-1
374 1536 m 1,4,-1
 374 1087 l 1,5,-1
 200 1087 l 1,6,-1
 200 1536 l 1,7,-1
 374 1536 l 1,4,-1
EndSplineSet
Validated: 1
EndChar

StartChar: numbersign
Encoding: 35 35 6
Width: 1353
GlyphClass: 2
Flags: W
HStem: 462 131<200 440 571 782 913 1153> 804 131<200 440 571 782 913 1153>
VStem: 440 131<222 462 593 804 935 1175> 782 131<222 462 593 804 935 1175>
LayerCount: 2
Fore
SplineSet
200 462 m 1,0,-1
 200 593 l 1,1,-1
 440 593 l 1,2,-1
 440 804 l 1,3,-1
 200 804 l 1,4,-1
 200 935 l 1,5,-1
 440 935 l 1,6,-1
 440 1175 l 1,7,-1
 571 1175 l 1,8,-1
 571 935 l 1,9,-1
 782 935 l 1,10,-1
 782 1175 l 1,11,-1
 913 1175 l 1,12,-1
 913 935 l 1,13,-1
 1153 935 l 1,14,-1
 1153 804 l 1,15,-1
 913 804 l 1,16,-1
 913 593 l 1,17,-1
 1153 593 l 1,18,-1
 1153 462 l 1,19,-1
 913 462 l 1,20,-1
 913 222 l 1,21,-1
 782 222 l 1,22,-1
 782 462 l 1,23,-1
 571 462 l 1,24,-1
 571 222 l 1,25,-1
 440 222 l 1,26,-1
 440 462 l 1,27,-1
 200 462 l 1,0,-1
571 804 m 1,28,-1
 571 593 l 1,29,-1
 782 593 l 1,30,-1
 782 804 l 1,31,-1
 571 804 l 1,28,-1
EndSplineSet
Validated: 16385
EndChar

StartChar: dollar
Encoding: 36 36 7
Width: 1306
GlyphClass: 2
Flags: W
HStem: -26 21G<120 136> -24 106<443.035 551 705 834.549> 1516 20G<974 990>
VStem: 120 0<400 746> 120 0<-26 93> 222 174<1067.74 1343.6> 551 154<-297 -20.4966 86 699 988 1422 1525.75 1815> 989 197<271.795 565.19> 990 0<958 1205> 990 0<1417 1536>
DStem2: 538 993 434 813 0.925475 -0.378809<-138.043 13.9252 265.924 547.848>
LayerCount: 2
Fore
SplineSet
120 -26 m 1,0,-1
 120 746 l 1,1,2
 162 400 162 400 265 250 c 1,3,-1
 284 228 l 1,4,5
 300 204 300 204 364 160 c 0,6,7
 446 103 446 103 551 86 c 1,8,-1
 551 764 l 1,9,-1
 434 813 l 1,10,11
 224 931 224 931 222 1154 c 1,12,-1
 222 1174 l 1,13,14
 226 1329 226 1329 334 1432 c 0,15,16
 424 1518 424 1518 551 1533 c 1,17,-1
 551 1815 l 1,18,-1
 706 1815 l 1,19,-1
 706 1520 l 1,20,21
 824 1491 824 1491 878 1410 c 1,22,-1
 886 1409 l 1,23,24
 958 1417 958 1417 990 1536 c 1,25,-1
 990 958 l 1,26,27
 930 1205 930 1205 866 1290 c 1,28,-1
 832 1332 l 1,29,30
 817 1346 817 1346 780 1376 c 128,-1,31
 743 1406 743 1406 706 1422 c 1,32,-1
 706 924 l 1,33,-1
 946 826 l 2,34,35
 1171 734 1171 734 1186 463 c 1,36,-1
 1186 424 l 1,37,38
 1156 228 1156 228 1020 106 c 1,39,40
 898 -14 898 -14 705 -24 c 1,41,-1
 705 -297 l 1,42,-1
 551 -297 l 1,43,-1
 551 -10 l 1,44,45
 507 0 507 0 452 16 c 1,46,-1
 265 96 l 1,47,-1
 252 101 l 1,48,49
 152 93 152 93 120 -26 c 1,0,-1
705 699 m 1,50,-1
 705 82 l 1,51,52
 707 82 707 82 708 82 c 0,53,54
 837 82 837 82 936 238 c 1,55,56
 989 330 989 330 989 431 c 2,57,-1
 989 457 l 1,58,59
 980 582 980 582 818 652 c 1,60,-1
 705 699 l 1,50,-1
551 988 m 1,61,-1
 551 1432 l 1,62,63
 498 1419 498 1419 460 1382 c 0,64,65
 396 1320 396 1320 396 1216 c 0,66,67
 396 1213 396 1213 396 1210 c 0,68,69
 396 1053 396 1053 538 993 c 2,70,-1
 551 988 l 1,61,-1
EndSplineSet
Validated: 16385
EndChar

StartChar: percent
Encoding: 37 37 8
Width: 1771
GlyphClass: 2
Flags: W
HStem: -25 68<1183.08 1340.72> 576 88<1172.84 1351.07> 847 68<420.31 577.72> 1448 88<409.839 588.069>
VStem: 200 153<999.617 1371.22> 651 157<1012.27 1370.71> 963 153<127.734 499.224> 1414 157<140.268 498.712>
DStem2: 361 -227 495 -297 0.406428 0.913683<0 2231.98>
LayerCount: 2
Fore
SplineSet
361 -227 m 1,0,-1
 1269 1815 l 1,1,-1
 1406 1751 l 1,2,-1
 495 -297 l 1,3,-1
 361 -227 l 1,0,-1
1116 298 m 0,4,5
 1116 191 1116 191 1152 119 c 0,6,7
 1190 43 1190 43 1270 43 c 0,8,9
 1325 43 1325 43 1370 113 c 0,10,11
 1414 181 1414 181 1414 319 c 0,12,13
 1414 447 1414 447 1367 513 c 0,14,15
 1322 576 1322 576 1263 576 c 0,16,17
 1201 576 1201 576 1157 513 c 0,18,19
 1116 454 1116 454 1116 298 c 0,4,5
1571 311 m 0,20,21
 1571 225 1571 225 1530 147 c 0,22,23
 1488 67 1488 67 1420 21 c 128,-1,24
 1352 -25 1352 -25 1267 -25 c 0,25,26
 1190 -25 1190 -25 1114 21 c 0,27,28
 1039 66 1039 66 998 144 c 0,29,30
 963 210 963 210 963 312 c 0,31,32
 963 413 963 413 1004 492 c 0,33,34
 1046 573 1046 573 1114 618 c 0,35,36
 1184 664 1184 664 1267 664 c 0,37,38
 1349 664 1349 664 1420 618 c 0,39,40
 1488 574 1488 574 1530 492 c 0,41,42
 1571 412 1571 412 1571 311 c 0,20,21
507 915 m 0,43,44
 562 915 562 915 607 985 c 0,45,46
 651 1053 651 1053 651 1191 c 0,47,48
 651 1319 651 1319 604 1385 c 0,49,50
 559 1448 559 1448 500 1448 c 0,51,52
 438 1448 438 1448 394 1385 c 0,53,54
 353 1326 353 1326 353 1170 c 0,55,56
 353 1061 353 1061 389 991 c 0,57,58
 428 915 428 915 507 915 c 0,43,44
808 1183 m 0,59,60
 808 1097 808 1097 767 1019 c 0,61,62
 725 939 725 939 657 893 c 128,-1,63
 589 847 589 847 504 847 c 0,64,65
 427 847 427 847 351 893 c 0,66,67
 276 938 276 938 235 1016 c 0,68,69
 200 1082 200 1082 200 1184 c 0,70,71
 200 1285 200 1285 241 1364 c 0,72,73
 283 1445 283 1445 351 1490 c 0,74,75
 421 1536 421 1536 504 1536 c 0,76,77
 586 1536 586 1536 657 1490 c 0,78,79
 725 1446 725 1446 767 1364 c 0,80,81
 808 1284 808 1284 808 1183 c 0,59,60
EndSplineSet
Validated: 16385
EndChar

StartChar: ampersand
Encoding: 38 38 9
Width: 1556
GlyphClass: 2
Flags: W
HStem: -25 106<518.124 907.876> 0 21G<1258.69 1302.52> 757 164<533.576 661.578> 1457 81<519.779 804.598>
VStem: 130 215<237.969 610.258> 224 191<1029.66 1355.25> 750 260<1092.77 1282.36> 1159 260<670.192 853.231>
DStem2: 751 944 662 748 0.637892 -0.770126<94.1724 724.436 858.694 1061.25>
LayerCount: 2
Fore
SplineSet
130 399 m 1,0,-1
 131 440 l 1,1,2
 145 600 145 600 233 704 c 0,3,4
 286 767 286 767 398 810 c 0,5,6
 477 840 477 840 529 856 c 1,7,8
 413 896 413 896 332 962 c 1,9,-1
 294 1000 l 1,10,11
 224 1066 224 1066 224 1191 c 0,12,13
 224 1205 224 1205 225 1220 c 0,14,15
 235 1369 235 1369 366 1463 c 0,16,17
 468 1536 468 1536 624 1538 c 0,18,-1
 627 1538 l 0,19,20
 782 1538 782 1538 877 1450 c 1,21,22
 1010 1303 1010 1303 1010 1187 c 0,23,24
 1010 1132 1010 1132 972 1091.5 c 128,-1,25
 934 1051 934 1051 880 1051 c 128,-1,26
 826 1051 826 1051 788 1089.5 c 128,-1,27
 750 1128 750 1128 750 1183 c 128,-1,28
 750 1238 750 1238 788 1276 c 0,29,30
 824 1312 824 1312 874 1315 c 1,31,32
 857 1394 857 1394 780 1432 c 0,33,34
 730 1457 730 1457 643 1457 c 0,35,36
 635 1457 635 1457 624 1457 c 0,37,38
 559 1457 559 1457 486 1390 c 1,39,-1
 475 1377 l 1,40,41
 420 1310 420 1310 416 1223 c 0,42,43
 415 1203 415 1203 415 1192 c 0,44,45
 418 1043 418 1043 486 984 c 0,46,47
 559 921 559 921 642 921 c 0,48,49
 689 921 689 921 741 942 c 1,50,-1
 751 944 l 1,51,-1
 1213 386 l 1,52,53
 1268 490 1268 490 1283 631 c 1,54,55
 1233 633 1233 633 1197 669 c 0,56,57
 1159 707 1159 707 1159 763 c 0,58,59
 1159 818 1159 818 1197 856.5 c 128,-1,60
 1235 895 1235 895 1289 895 c 128,-1,61
 1343 895 1343 895 1381 854.5 c 128,-1,62
 1419 814 1419 814 1419 759 c 0,63,64
 1419 502 1419 502 1281 304 c 1,65,-1
 1436 117 l 1,66,-1
 1275 0 l 1,67,-1
 1147 157 l 1,68,69
 930 -25 930 -25 708 -25 c 0,70,71
 467 -25 467 -25 312 78 c 0,72,73
 150 186 150 186 130 399 c 1,0,-1
1084 233 m 1,74,-1
 662 748 l 1,75,-1
 635 756 l 1,76,77
 619 757 619 757 611 757 c 0,78,79
 432 750 432 750 371 630 c 0,80,81
 345 579 345 579 345 457 c 0,82,83
 345 446 345 446 345 431 c 1,84,-1
 345 412 l 2,85,86
 345 277 345 277 417 201 c 0,87,88
 531 81 531 81 712 81 c 0,89,90
 726 81 726 81 738 82 c 0,91,92
 915 97 915 97 1084 233 c 1,74,-1
EndSplineSet
Validated: 16385
EndChar

StartChar: quotesingle
Encoding: 39 39 10
Width: 574
GlyphClass: 2
Flags: W
HStem: 1087 449<200 374>
VStem: 200 174<1087 1536>
LayerCount: 2
Fore
SplineSet
374 1536 m 1,0,-1
 374 1087 l 1,1,-1
 200 1087 l 1,2,-1
 200 1536 l 1,3,-1
 374 1536 l 1,0,-1
EndSplineSet
Validated: 1
EndChar

StartChar: parenleft
Encoding: 40 40 11
Width: 657
GlyphClass: 2
Flags: W
VStem: 200 189<368.388 1148.85>
LayerCount: 2
Fore
SplineSet
536 -293 m 0,0,1
 528 -291 528 -291 437 -110 c 0,2,3
 433 -102 433 -102 410 -59 c 0,4,5
 325 99 325 99 267 287 c 0,6,7
 200 502 200 502 200 763 c 0,8,9
 200 989 200 989 267 1241 c 0,10,11
 312 1407 312 1407 410 1586 c 0,12,-1
 437 1637 l 0,13,14
 449 1660 449 1660 545 1813 c 0,15,-1
 604 1774 l 0,16,-1
 529 1594 l 0,17,18
 518 1571 518 1571 494 1489 c 0,19,20
 441 1318 441 1318 421 1189 c 0,21,22
 389 983 389 983 389 766 c 0,23,24
 389 509 389 509 427 334 c 0,25,26
 460 180 460 180 514 1 c 0,27,28
 532 -60 532 -60 532 -59 c 0,29,-1
 607 -260 l 0,30,-1
 536 -293 l 0,0,1
EndSplineSet
Validated: 1
EndChar

StartChar: parenright
Encoding: 41 41 12
Width: 657
GlyphClass: 2
Flags: W
VStem: 268 189<368.388 1148.85>
LayerCount: 2
Fore
SplineSet
121 -293 m 0,0,1
 50 -260 l 0,2,-1
 125 -59 l 0,3,4
 125 -60 125 -60 143 1 c 0,5,6
 197 180 197 180 230 334 c 0,7,8
 268 509 268 509 268 766 c 0,9,10
 268 983 268 983 236 1189 c 0,11,12
 216 1318 216 1318 163 1489 c 0,13,14
 139 1571 139 1571 128 1594 c 0,15,-1
 53 1774 l 0,16,-1
 112 1813 l 0,17,18
 208 1660 208 1660 220 1637 c 0,19,-1
 247 1586 l 0,20,21
 345 1407 345 1407 390 1241 c 0,22,23
 457 989 457 989 457 763 c 0,24,25
 457 502 457 502 390 287 c 0,26,27
 332 99 332 99 247 -59 c 0,28,29
 224 -102 224 -102 220 -110 c 0,30,31
 129 -291 129 -291 121 -293 c 0,0,1
EndSplineSet
Validated: 1
EndChar

StartChar: asterisk
Encoding: 42 42 13
Width: 1393
GlyphClass: 2
Flags: W
HStem: 1516 20G<691.377 703.884>
LayerCount: 2
Fore
SplineSet
200 1039 m 1,0,-1
 543.875 1144.54 l 1,1,-1
 464 1287 l 1,2,-1
 607.331 1217.08 l 1,3,-1
 697 1536 l 1,4,-1
 807.729 1214.28 l 1,5,-1
 956 1286 l 1,6,-1
 887.446 1144.99 l 1,7,-1
 1193 1039 l 1,8,-1
 880.805 940.5 l 1,9,-1
 956 795 l 1,10,-1
 805.477 879.099 l 1,11,-1
 697 543 l 1,12,-1
 603.416 873.097 l 1,13,-1
 464 794 l 1,14,-1
 542.785 943.339 l 1,15,-1
 200 1039 l 1,0,-1
EndSplineSet
Validated: 1
EndChar

StartChar: plus
Encoding: 43 43 14
Width: 1233
GlyphClass: 2
Flags: W
HStem: 601 197<200 518 715 1033>
VStem: 518 197<283 601 798 1116>
LayerCount: 2
Fore
SplineSet
200 601 m 1,0,-1
 200 798 l 1,1,-1
 518 798 l 1,2,-1
 518 1116 l 1,3,-1
 715 1116 l 1,4,-1
 715 798 l 1,5,-1
 1033 798 l 1,6,-1
 1033 601 l 1,7,-1
 715 601 l 1,8,-1
 715 283 l 1,9,-1
 518 283 l 1,10,-1
 518 601 l 1,11,-1
 200 601 l 1,0,-1
EndSplineSet
Validated: 16385
EndChar

StartChar: comma
Encoding: 44 44 15
Width: 712
GlyphClass: 2
Flags: W
HStem: -248 512
VStem: 235 277<33.7644 218.136> 332 180<-84.8203 25.4575>
LayerCount: 2
Fore
SplineSet
200 -246 m 0,0,1
 210 -236 l 0,2,3
 283 -168 283 -168 310 -104 c 0,4,5
 329 -58 329 -58 332 -17 c 0,6,-1
 332 4 l 0,7,8
 299 12 299 12 273 38 c 0,9,10
 235 76 235 76 235 132 c 0,11,12
 235 187 235 187 273 225.5 c 128,-1,13
 311 264 311 264 365 264 c 0,14,15
 413 264 413 264 457 228 c 0,16,17
 500 193 500 193 509 126 c 0,18,19
 512 103 512 103 512 81 c 0,20,21
 512 1 512 1 473 -76 c 0,22,23
 400 -219 400 -219 291 -242 c 0,24,25
 262 -248 262 -248 234 -248 c 0,26,27
 218 -248 218 -248 200 -246 c 0,0,1
EndSplineSet
Validated: 16385
EndChar

StartChar: hyphen
Encoding: 45 45 16
Width: 1233
GlyphClass: 2
Flags: W
HStem: 601 197<200 1033>
LayerCount: 2
Fore
SplineSet
200 798 m 1,0,-1
 1033 798 l 1,1,-1
 1033 601 l 1,2,-1
 200 601 l 1,3,-1
 200 798 l 1,0,-1
EndSplineSet
Validated: 1
EndChar

StartChar: period
Encoding: 46 46 17
Width: 660
GlyphClass: 2
Flags: W
HStem: -25 264<239.191 420.809>
VStem: 200 260<14.7072 199.293>
LayerCount: 2
Fore
SplineSet
200 107 m 128,-1,1
 200 162 200 162 238 200.5 c 128,-1,2
 276 239 276 239 330 239 c 128,-1,3
 384 239 384 239 422 200.5 c 128,-1,4
 460 162 460 162 460 107 c 128,-1,5
 460 52 460 52 422 13.5 c 128,-1,6
 384 -25 384 -25 330 -25 c 128,-1,7
 276 -25 276 -25 238 13.5 c 128,-1,0
 200 52 200 52 200 107 c 128,-1,1
EndSplineSet
Validated: 1
EndChar

StartChar: slash
Encoding: 47 47 18
Width: 1045
GlyphClass: 2
Flags: W
DStem2: 0 -227 134 -297 0.406428 0.913683<0 2231.98>
LayerCount: 2
Fore
SplineSet
0 -227 m 1,0,-1
 908 1815 l 1,1,-1
 1045 1751 l 1,2,-1
 134 -297 l 1,3,-1
 0 -227 l 1,0,-1
EndSplineSet
Validated: 1
EndChar

StartChar: zero
Encoding: 48 48 19
Width: 1384
GlyphClass: 2
Flags: W
HStem: -25 105<563.53 818.135> 1431 105<550.042 823.85>
VStem: 130 208<438.842 1061.24> 1044 210<439.528 1059.97>
LayerCount: 2
Fore
SplineSet
338 727 m 0,0,1
 338 570 338 570 370 462 c 1,2,3
 419 268 419 268 502 178 c 0,4,5
 593 80 593 80 692 80 c 0,6,7
 694 80 694 80 695 80 c 0,8,9
 697 80 697 80 698 80 c 0,10,11
 781 80 781 80 890 180 c 1,12,13
 966 274 966 274 1005 417 c 0,14,15
 1044 559 1044 559 1044 727 c 0,16,17
 1044 741 1044 741 1044 758 c 0,18,19
 1044 945 1044 945 1005 1069 c 1,20,21
 956 1253 956 1253 870 1346 c 0,22,23
 791 1431 791 1431 693 1431 c 0,24,-1
 691 1431 l 0,25,26
 594 1431 594 1431 520 1364 c 1,27,28
 431 1292 431 1292 382 1096 c 0,29,30
 338 918 338 918 338 727 c 0,0,1
130 744 m 128,-1,32
 130 908 130 908 174 1060 c 128,-1,33
 218 1212 218 1212 294 1314 c 0,34,35
 370 1415 370 1415 474 1475.5 c 128,-1,36
 578 1536 578 1536 692 1536 c 128,-1,37
 806 1536 806 1536 910 1475.5 c 128,-1,38
 1014 1415 1014 1415 1090 1314 c 0,39,40
 1166 1212 1166 1212 1210 1060 c 128,-1,41
 1254 908 1254 908 1254 744 c 128,-1,42
 1254 580 1254 580 1210 439.5 c 128,-1,43
 1166 299 1166 299 1090 197 c 0,44,45
 1014 96 1014 96 910 35.5 c 128,-1,46
 806 -25 806 -25 692 -25 c 128,-1,47
 578 -25 578 -25 474 35.5 c 128,-1,48
 370 96 370 96 294 197 c 0,49,50
 218 299 218 299 174 439.5 c 128,-1,31
 130 580 130 580 130 744 c 128,-1,32
EndSplineSet
Validated: 16385
EndChar

StartChar: one
Encoding: 49 49 20
Width: 697
GlyphClass: 2
Flags: W
HStem: 0 21G<60 637>
VStem: 250 197<140 1204.05>
LayerCount: 2
Fore
SplineSet
60 0 m 1,0,1
 184 24 184 24 248 140 c 1,2,-1
 250 148 l 1,3,-1
 250 1099 l 1,4,-1
 250 1108 l 1,5,6
 250 1235 250 1235 60 1247 c 1,7,-1
 447 1551 l 1,8,-1
 447 148 l 1,9,-1
 449 139 l 1,10,11
 503 28 503 28 637 0 c 1,12,-1
 60 0 l 1,0,1
EndSplineSet
Validated: 1
EndChar

StartChar: two
Encoding: 50 50 21
Width: 1335
GlyphClass: 2
Flags: W
HStem: -25 192<731.615 1057.89> 0 21G<131 162> 83 190<281.719 582.01> 1429 108<458.465 786.031>
VStem: 161 260<952.769 1137.01> 917 221<898.662 1289.91>
DStem2: 679 223 434 72 0.977539 -0.210754<-298.58 302.894>
LayerCount: 2
Fore
SplineSet
130 0 m 1,0,1
 194 451 194 451 586 682 c 1,2,-1
 653 711 l 1,3,4
 917 813 917 813 917 1099 c 0,5,-1
 917 1118 l 2,6,7
 917 1254 917 1254 852 1328 c 0,8,9
 763 1429 763 1429 651 1429 c 0,10,-1
 649 1429 l 0,11,12
 497 1429 497 1429 397 1342 c 0,13,14
 319 1274 319 1274 297 1175 c 1,15,16
 347 1173 347 1173 383 1136 c 0,17,18
 421 1098 421 1098 421 1043 c 128,-1,19
 421 988 421 988 383 949.5 c 128,-1,20
 345 911 345 911 291 911 c 128,-1,21
 237 911 237 911 199 951.5 c 128,-1,22
 161 992 161 992 161 1047 c 0,23,24
 161 1245 161 1245 306 1392 c 1,25,26
 452 1536 452 1536 645 1537 c 0,27,-1
 647 1537 l 0,28,29
 841 1537 841 1537 989 1418 c 0,30,31
 1138 1297 1138 1297 1138 1094 c 1,32,-1
 1138 1062 l 1,33,34
 1126 845 1126 845 963 739 c 0,35,36
 850 665 850 665 712 610 c 1,37,38
 500 541 500 541 280 235 c 1,39,40
 335 273 335 273 392 273 c 0,41,42
 394 273 394 273 395 273 c 128,-1,43
 396 273 396 273 398 273 c 0,44,45
 506 273 506 273 679 223 c 1,46,-1
 897 176 l 1,47,48
 939 167 939 167 978 167 c 0,49,50
 1111 167 1111 167 1215 271 c 1,51,52
 1104 -25 1104 -25 946 -25 c 0,53,54
 944 -25 944 -25 942 -25 c 128,-1,55
 940 -25 940 -25 938 -25 c 128,-1,56
 936 -25 936 -25 934 -25 c 0,57,-1
 933 -25 l 0,58,59
 808 -25 808 -25 641 25 c 1,60,-1
 434 72 l 1,61,62
 386 83 386 83 342 83 c 0,63,64
 220 83 220 83 131 1 c 1,65,-1
 130 0 l 1,0,1
EndSplineSet
Validated: 16385
EndChar

StartChar: three
Encoding: 51 51 22
Width: 1248
GlyphClass: 2
Flags: W
HStem: -25 107<417.837 763.424> 1457 80<443.182 725.195>
VStem: 120 260<375.192 558.231> 235 260<1092.77 1282.36> 825 202<1037.02 1361.98> 896 222<226.906 618.016>
LayerCount: 2
Fore
SplineSet
120 464 m 0,0,1
 120 519 120 519 158 559.5 c 128,-1,2
 196 600 196 600 250 600 c 128,-1,3
 304 600 304 600 342 561.5 c 128,-1,4
 380 523 380 523 380 468 c 0,5,6
 380 412 380 412 342 374 c 0,7,8
 306 338 306 338 256 336 c 1,9,10
 278 237 278 237 356 169 c 0,11,12
 456 82 456 82 608 82 c 0,13,14
 740 82 740 82 830 184 c 0,15,16
 896 259 896 259 896 413 c 2,17,-1
 896 432 l 0,18,19
 896 557 896 557 866 620 c 0,20,21
 824 708 824 708 754 754 c 0,22,23
 700 789 700 789 554 852 c 1,24,-1
 686 926 l 0,25,26
 754 973 754 973 770 990 c 0,27,28
 825 1050 825 1050 825 1181 c 0,29,30
 825 1197 825 1197 824 1212 c 0,31,32
 818 1302 818 1302 773 1376 c 0,33,-1
 762 1389 l 1,34,35
 688 1457 688 1457 595 1457 c 0,36,37
 514 1457 514 1457 465 1432 c 0,38,39
 388 1393 388 1393 371 1315 c 1,40,41
 421 1313 421 1313 457 1276 c 0,42,43
 495 1238 495 1238 495 1183 c 128,-1,44
 495 1128 495 1128 457 1089.5 c 128,-1,45
 419 1051 419 1051 365 1051 c 128,-1,46
 311 1051 311 1051 273 1091.5 c 128,-1,47
 235 1132 235 1132 235 1187 c 0,48,49
 235 1303 235 1303 368 1450 c 1,50,51
 462 1537 462 1537 615 1537 c 0,52,-1
 618 1537 l 0,53,54
 779 1536 779 1536 874 1474 c 0,55,56
 1015 1382 1015 1382 1026 1226 c 0,57,58
 1027 1212 1027 1212 1027 1198 c 0,59,-1
 1027 1195 l 0,60,61
 1027 1083 1027 1083 954 996 c 0,62,-1
 914 956 l 0,63,64
 834 892 834 892 716 856 c 1,65,66
 726 849 726 849 847 810 c 0,67,68
 924 785 924 785 1000 716 c 0,69,70
 1107 617 1107 617 1117 439 c 1,71,-1
 1118 398 l 1,72,73
 1099 193 1099 193 958.5 84 c 128,-1,74
 818 -25 818 -25 614 -25 c 128,-1,75
 410 -25 410 -25 265 119 c 1,76,77
 120 266 120 266 120 464 c 0,0,1
EndSplineSet
Validated: 16385
EndChar

StartChar: four
Encoding: 52 52 23
Width: 1144
GlyphClass: 2
Flags: W
HStem: 0 21G<507 1084> 360 102<144 697 894 1011>
VStem: 697 197<140 360 462 1147>
DStem2: -60 360 144 462 0.625174 0.780485<207.145 1087.5>
LayerCount: 2
Fore
SplineSet
-60 360 m 1,0,-1
 894 1551 l 1,1,-1
 894 462 l 1,2,-1
 1067 462 l 1,3,-1
 1011 360 l 1,4,-1
 894 360 l 1,5,-1
 894 148 l 1,6,-1
 896 139 l 1,7,8
 950 28 950 28 1084 0 c 1,9,-1
 507 0 l 1,10,11
 631 24 631 24 695 140 c 1,12,-1
 697 148 l 1,13,-1
 697 360 l 1,14,-1
 -60 360 l 1,0,-1
697 462 m 1,15,-1
 697 1147 l 1,16,-1
 144 462 l 1,17,-1
 697 462 l 1,15,-1
EndSplineSet
Validated: 16385
EndChar

StartChar: five
Encoding: 53 53 24
Width: 1262
GlyphClass: 2
Flags: W
HStem: -25 107<427.837 771.199> 827 100<448.544 782.875> 1292 219<506.41 901.844> 1314 197<458.785 878.357>
VStem: 130 260<375.223 558.231> 306 66<1016.44 1317.52> 904 228<230.251 666.832>
LayerCount: 2
Fore
SplineSet
130 464 m 0,0,1
 130 519 130 519 168 559.5 c 128,-1,2
 206 600 206 600 260 600 c 128,-1,3
 314 600 314 600 352 561.5 c 128,-1,4
 390 523 390 523 390 468 c 128,-1,5
 390 413 390 413 352 374 c 0,6,7
 316 338 316 338 266 336 c 1,8,9
 288 237 288 237 366 169 c 0,10,11
 466 82 466 82 618 82 c 0,12,13
 749 82 749 82 840 184 c 0,14,15
 904 257 904 257 904 441 c 2,16,-1
 904 460 l 0,17,18
 904 608 904 608 877 668 c 0,19,20
 820 795 820 795 691 820 c 0,21,22
 655 827 655 827 619 827 c 0,23,24
 563 827 563 827 508 810 c 1,25,26
 440 798 440 798 384 708 c 0,27,-1
 366 680 l 24,28,29
 298 830 298 830 161 844 c 0,30,-1
 150 846 l 17,31,32
 306 998 306 998 306 1164 c 128,-1,33
 306 1330 306 1330 150 1511 c 1,34,-1
 1094 1511 l 1,35,36
 1005 1366 1005 1366 844 1314 c 0,37,38
 776 1292 776 1292 708 1292 c 0,39,40
 704 1292 704 1292 700 1292 c 0,41,42
 664 1292 664 1292 626 1300 c 8,43,44
 465 1334 465 1334 372 1418 c 1,45,46
 372 1134 372 1134 372 851 c 1,47,-1
 396 864 l 1,48,49
 496 927 496 927 632 927 c 0,50,51
 674 927 674 927 718 921 c 0,52,53
 894 897 894 897 1008 784 c 0,54,55
 1123 670 1123 670 1131 465 c 1,56,-1
 1132 424 l 1,57,58
 1132 220 1132 220 980 97.5 c 128,-1,59
 828 -25 828 -25 624 -25 c 128,-1,60
 420 -25 420 -25 275 119 c 1,61,62
 130 266 130 266 130 464 c 0,0,1
EndSplineSet
Validated: 16385
EndChar

StartChar: six
Encoding: 54 54 25
Width: 1312
GlyphClass: 2
Flags: W
HStem: -25 103<577.556 870.286> 862 100<482.422 778.027> 1052 486<726 1021>
VStem: 130 232<439.528 1062.47> 891 261<1091.71 1284.03> 976 206<254.311 633.203>
LayerCount: 2
Fore
SplineSet
726 1538 m 0,0,1
 845 1538 845 1538 948 1478 c 1,2,3
 1064 1398 1064 1398 1112 1312 c 1,4,5
 1123 1296 1123 1296 1142 1249 c 0,6,7
 1152 1225 1152 1225 1152 1183 c 0,8,9
 1152 1182 1152 1182 1152 1181 c 128,-1,10
 1152 1180 1152 1180 1152 1179 c 0,11,12
 1152 1132 1152 1132 1113 1090 c 0,13,14
 1078 1052 1078 1052 1021 1052 c 0,15,16
 967 1052 967 1052 929 1090.5 c 128,-1,17
 891 1129 891 1129 891 1184 c 128,-1,18
 891 1239 891 1239 929 1278 c 0,19,20
 949 1298 949 1298 988 1309 c 1,21,22
 960 1351 960 1351 915 1386 c 0,23,24
 855 1433 855 1433 731 1447 c 0,25,26
 722 1448 722 1448 712 1447 c 0,27,28
 560 1432 560 1432 490 1328 c 0,29,30
 419 1223 419 1223 385 1062 c 0,31,32
 357 930 357 930 357 850 c 0,33,34
 357 835 357 835 358 822 c 1,35,-1
 396 866 l 1,36,37
 524 962 524 962 688 962 c 0,38,39
 903 962 903 962 1046 820 c 1,40,41
 1165 694 1165 694 1182 493 c 1,42,-1
 1182 480 l 1,43,-1
 1182 452 l 2,44,45
 1182 262 1182 262 1041 120 c 0,46,47
 896 -25 896 -25 692 -25 c 0,48,49
 578 -25 578 -25 474 35.5 c 128,-1,50
 370 96 370 96 294 197 c 0,51,52
 218 299 218 299 174 439.5 c 128,-1,53
 130 580 130 580 130 734 c 0,54,55
 130 914 130 914 174 1063 c 0,56,57
 218 1214 218 1214 294 1314 c 0,58,59
 371 1416 371 1416 474 1476 c 0,60,61
 581 1538 581 1538 726 1538 c 0,0,1
616 862 m 0,62,63
 501 862 501 862 416 764 c 0,64,65
 402 748 402 748 362 677 c 1,66,67
 362 670 362 670 362 669 c 0,68,69
 362 666 362 666 362 662 c 0,70,71
 362 593 362 593 400 444 c 0,72,73
 440 289 440 289 500 200 c 1,74,75
 579 78 579 78 739 78 c 0,76,77
 740 78 740 78 742 78 c 0,78,79
 865 78 865 78 938 204 c 0,80,81
 976 270 976 270 976 401 c 0,82,83
 976 432 976 432 974 466 c 1,84,85
 954 626 954 626 882 726 c 1,86,87
 773 862 773 862 616 862 c 0,62,63
EndSplineSet
Validated: 16385
EndChar

StartChar: seven
Encoding: 55 55 26
Width: 1005
GlyphClass: 2
Flags: W
HStem: -25 21G<460.5 532.5> 1238 192<557.25 845.218> 1348 188<140.328 420.562>
VStem: 270 192<296.513 545.541>
DStem2: 514 1486 305 1335 0.964634 -0.263592<-309.168 325.068>
LayerCount: 2
Fore
SplineSet
0 1264 m 1,0,1
 95 1536 95 1536 266 1536 c 0,2,-1
 269 1536 l 0,3,4
 346 1535 346 1535 514 1486 c 1,5,-1
 686 1439 l 1,6,7
 728 1430 728 1430 768 1430 c 0,8,-1
 770 1430 l 0,9,10
 901 1430 901 1430 1005 1534 c 1,11,12
 977 1268 977 1268 789 1009 c 0,13,14
 584 727 584 727 579 721 c 0,15,16
 493 628 493 628 469 486 c 0,17,18
 462 445 462 445 462 412 c 0,19,20
 462 334 462 334 524 279 c 0,21,22
 611 202 611 202 611 103 c 0,23,24
 611 75 611 75 608 66 c 0,25,26
 578 -25 578 -25 487 -25 c 0,27,28
 434 -25 434 -25 384 12 c 0,29,30
 331 51 331 51 302 127 c 0,31,32
 281 182 281 182 272 282 c 0,33,34
 270 305 270 305 270 327 c 0,35,36
 271 445 271 445 317 552 c 0,37,38
 356 643 356 643 410 705 c 1,39,40
 532 849 532 849 544 864 c 0,41,42
 658 998 658 998 710 1070 c 0,43,44
 795 1187 795 1187 847 1283 c 1,45,46
 790 1238 790 1238 728 1238 c 0,47,48
 726 1238 726 1238 723 1238 c 0,49,50
 650 1238 650 1238 477 1288 c 1,51,-1
 305 1335 l 1,52,53
 256 1348 256 1348 210 1348 c 0,54,-1
 207 1348 l 0,55,56
 91 1348 91 1348 0 1264 c 1,0,1
EndSplineSet
Validated: 16385
EndChar

StartChar: eight
Encoding: 56 56 27
Width: 1243
GlyphClass: 2
Flags: W
HStem: -24 21G<558.5 752.5> 1440 97<466.504 770.243>
VStem: 120 115<267.848 589.822> 209 173<1051.38 1347.51> 876 125<1041.33 1337.29> 927 196<246.812 580.345>
LayerCount: 2
Fore
SplineSet
698 927 m 1,0,1
 788 965 788 965 842 1058 c 0,2,3
 876 1116 876 1116 876 1187 c 0,4,5
 876 1204 876 1204 874 1222 c 0,6,7
 861 1336 861 1336 770 1396 c 0,8,9
 703 1440 703 1440 623 1440 c 0,10,11
 508 1440 508 1440 438 1372 c 1,12,13
 382 1311 382 1311 382 1204 c 0,14,15
 382 1202 382 1202 382 1200 c 0,16,17
 382 1051 382 1051 483 1011 c 2,18,-1
 685 931 l 1,19,-1
 698 927 l 1,0,1
120 414 m 0,20,21
 120 417 120 417 120 420 c 0,22,23
 120 480 120 480 138 548 c 0,24,25
 164 646 164 646 228 722 c 0,26,27
 301 808 301 808 384 845 c 1,28,-1
 357 862 l 1,29,30
 210 980 210 980 209 1155 c 1,31,-1
 209 1175 l 1,32,33
 212 1329 212 1329 320.5 1433 c 128,-1,34
 429 1537 429 1537 601 1537 c 0,35,36
 791 1537 791 1537 899 1434 c 0,37,38
 1001 1337 1001 1337 1001 1192 c 0,39,40
 1001 1073 1001 1073 939 982 c 0,41,42
 893 914 893 914 831 880 c 2,43,-1
 822 875 l 1,44,-1
 889 840 l 2,45,46
 1102 729 1102 729 1123 465 c 1,47,-1
 1123 426 l 1,48,49
 1108 236 1108 236 986 109 c 1,50,51
 850 -24 850 -24 655 -24 c 2,52,-1
 647 -24 l 2,53,54
 470 -24 470 -24 389 22 c 0,55,56
 296 74 296 74 232 145 c 0,57,58
 151 234 151 234 130 324 c 0,59,60
 120 367 120 367 120 414 c 0,20,21
502 774 m 1,61,62
 432 756 432 756 356 700 c 1,63,64
 304 652 304 652 270 570 c 0,65,66
 237 490 237 490 235 419 c 0,67,68
 235 410 235 410 236 400 c 0,69,70
 247 293 247 293 319 214 c 0,71,72
 421 102 421 102 604 86 c 0,73,-1
 628 88 l 0,74,75
 927 135 927 135 927 434 c 0,76,77
 927 447 927 447 926 459 c 1,78,79
 916 584 916 584 805 653 c 1,80,-1
 502 774 l 1,61,62
EndSplineSet
Validated: 16385
EndChar

StartChar: nine
Encoding: 57 57 28
Width: 1312
GlyphClass: 2
Flags: W
HStem: -25 486<291 586> 551 100<533.973 829.578> 1435 103<441.714 734.444>
VStem: 130 206<879.797 1258.69> 160 261<228.97 421.293> 950 232<450.528 1073.47>
LayerCount: 2
Fore
SplineSet
586 -25 m 0,0,1
 467 -25 467 -25 364 35 c 1,2,3
 248 115 248 115 200 201 c 1,4,5
 189 217 189 217 170 264 c 0,6,7
 160 288 160 288 160 330 c 0,8,9
 160 331 160 331 160 332 c 128,-1,10
 160 333 160 333 160 334 c 0,11,12
 160 381 160 381 199 423 c 0,13,14
 234 461 234 461 291 461 c 0,15,16
 345 461 345 461 383 422.5 c 128,-1,17
 421 384 421 384 421 329 c 128,-1,18
 421 274 421 274 383 235 c 0,19,20
 363 215 363 215 324 204 c 1,21,22
 352 162 352 162 397 127 c 0,23,24
 457 80 457 80 581 66 c 0,25,26
 590 65 590 65 600 66 c 0,27,28
 752 81 752 81 822 185 c 0,29,30
 893 290 893 290 927 451 c 0,31,32
 955 583 955 583 955 663 c 0,33,34
 955 678 955 678 954 691 c 1,35,-1
 916 647 l 1,36,37
 788 551 788 551 624 551 c 0,38,39
 409 551 409 551 266 693 c 1,40,41
 147 819 147 819 130 1020 c 1,42,-1
 130 1033 l 1,43,-1
 130 1061 l 2,44,45
 130 1251 130 1251 271 1393 c 0,46,47
 416 1538 416 1538 620 1538 c 0,48,49
 734 1538 734 1538 838 1477.5 c 128,-1,50
 942 1417 942 1417 1018 1316 c 0,51,52
 1094 1214 1094 1214 1138 1073.5 c 128,-1,53
 1182 933 1182 933 1182 779 c 0,54,55
 1182 599 1182 599 1138 450 c 0,56,57
 1094 299 1094 299 1018 199 c 0,58,59
 941 97 941 97 838 37 c 0,60,61
 731 -25 731 -25 586 -25 c 0,0,1
696 651 m 0,62,63
 811 651 811 651 896 749 c 0,64,65
 910 765 910 765 950 836 c 1,66,67
 950 843 950 843 950 844 c 0,68,69
 950 847 950 847 950 851 c 0,70,71
 950 920 950 920 912 1069 c 0,72,73
 872 1224 872 1224 812 1313 c 1,74,75
 733 1435 733 1435 573 1435 c 0,76,77
 572 1435 572 1435 570 1435 c 0,78,79
 447 1435 447 1435 374 1309 c 0,80,81
 336 1243 336 1243 336 1112 c 0,82,83
 336 1081 336 1081 338 1047 c 1,84,85
 358 887 358 887 430 787 c 1,86,87
 539 651 539 651 696 651 c 0,62,63
EndSplineSet
Validated: 16385
EndChar

StartChar: colon
Encoding: 58 58 29
Width: 662
GlyphClass: 2
Flags: W
HStem: -25 264<241.191 422.809> 554 264<239.191 420.809>
VStem: 202 260<14.7072 199.293 593.707 778.293>
LayerCount: 2
Fore
SplineSet
202 107 m 128,-1,1
 202 162 202 162 240 200.5 c 128,-1,2
 278 239 278 239 332 239 c 128,-1,3
 386 239 386 239 424 200.5 c 128,-1,4
 462 162 462 162 462 107 c 128,-1,5
 462 52 462 52 424 13.5 c 128,-1,6
 386 -25 386 -25 332 -25 c 128,-1,7
 278 -25 278 -25 240 13.5 c 128,-1,0
 202 52 202 52 202 107 c 128,-1,1
200 686 m 128,-1,9
 200 741 200 741 238 779.5 c 128,-1,10
 276 818 276 818 330 818 c 128,-1,11
 384 818 384 818 422 779.5 c 128,-1,12
 460 741 460 741 460 686 c 128,-1,13
 460 631 460 631 422 592.5 c 128,-1,14
 384 554 384 554 330 554 c 128,-1,15
 276 554 276 554 238 592.5 c 128,-1,8
 200 631 200 631 200 686 c 128,-1,9
EndSplineSet
Validated: 1
EndChar

StartChar: semicolon
Encoding: 59 59 30
Width: 712
GlyphClass: 2
Flags: W
HStem: 552 264<265.191 446.809>
VStem: 226 260<591.707 776.293> 235 277<7.7644 192.136> 332 180<-110.82 -0.54248>
LayerCount: 2
Fore
SplineSet
200 -272 m 0,0,1
 210 -262 l 0,2,3
 283 -194 283 -194 310 -130 c 0,4,5
 329 -84 329 -84 332 -43 c 0,6,-1
 332 -22 l 0,7,8
 299 -14 299 -14 273 12 c 0,9,10
 235 50 235 50 235 106 c 0,11,12
 235 161 235 161 273 199.5 c 128,-1,13
 311 238 311 238 365 238 c 0,14,15
 413 238 413 238 457 202 c 0,16,17
 500 167 500 167 509 100 c 0,18,19
 512 77 512 77 512 55 c 0,20,21
 512 -25 512 -25 473 -102 c 0,22,23
 400 -245 400 -245 291 -268 c 0,24,25
 262 -274 262 -274 234 -274 c 0,26,27
 218 -274 218 -274 200 -272 c 0,0,1
226 684 m 128,-1,29
 226 739 226 739 264 777.5 c 128,-1,30
 302 816 302 816 356 816 c 128,-1,31
 410 816 410 816 448 777.5 c 128,-1,32
 486 739 486 739 486 684 c 128,-1,33
 486 629 486 629 448 590.5 c 128,-1,34
 410 552 410 552 356 552 c 128,-1,35
 302 552 302 552 264 590.5 c 128,-1,28
 226 629 226 629 226 684 c 128,-1,29
EndSplineSet
Validated: 16385
EndChar

StartChar: less
Encoding: 60 60 31
Width: 1337
GlyphClass: 2
Flags: W
DStem2: 451 727 130 686 0.871878 -0.489724<0 783.224> 130 686 451 727 0.870391 0.492361<299.582 1084.57>
LayerCount: 2
Fore
SplineSet
130 686 m 17,0,-1
 1074 1220 l 1,1,-1
 1137 1115 l 1,2,-1
 451 727 l 1,3,-1
 1137 349 l 1,4,-1
 1054 167 l 9,5,-1
 130 686 l 17,0,-1
EndSplineSet
Validated: 16385
EndChar

StartChar: equal
Encoding: 61 61 32
Width: 1234
GlyphClass: 2
Flags: W
HStem: 436 197<200 1033> 784 197<201 1034>
LayerCount: 2
Fore
SplineSet
200 633 m 1,0,-1
 1033 633 l 1,1,-1
 1033 436 l 1,2,-1
 200 436 l 1,3,-1
 200 633 l 1,0,-1
201 981 m 1,4,-1
 1034 981 l 1,5,-1
 1034 784 l 1,6,-1
 200 784 l 1,7,-1
 201 981 l 1,4,-1
EndSplineSet
Validated: 1
EndChar

StartChar: greater
Encoding: 62 62 33
Width: 1337
GlyphClass: 2
Flags: W
DStem2: 283 1220 200 1038 0.871878 -0.489724<16.7638 799.987> 200 272 263 167 0.870391 0.492361<3.13673 788.124>
LayerCount: 2
Fore
SplineSet
1207 701 m 17,0,-1
 263 167 l 1,1,-1
 200 272 l 1,2,-1
 886 660 l 1,3,-1
 200 1038 l 1,4,-1
 283 1220 l 9,5,-1
 1207 701 l 17,0,-1
EndSplineSet
Validated: 16385
EndChar

StartChar: question
Encoding: 63 63 34
Width: 1257
GlyphClass: 2
Flags: W
HStem: -25 264<497.191 678.809> 1420 116<440.252 765.431>
VStem: 130 260<950.707 1140.56> 458 260<14.7072 199.293> 530 93<388 532.9> 912 214<896.301 1276.28>
DStem2: 682 692 736 596 0.830876 0.556458<-158.97 222.294>
LayerCount: 2
Fore
SplineSet
458 107 m 128,-1,1
 458 162 458 162 496 200.5 c 128,-1,2
 534 239 534 239 588 239 c 128,-1,3
 642 239 642 239 680 200.5 c 128,-1,4
 718 162 718 162 718 107 c 128,-1,5
 718 52 718 52 680 13.5 c 128,-1,6
 642 -25 642 -25 588 -25 c 128,-1,7
 534 -25 534 -25 496 13.5 c 128,-1,0
 458 52 458 52 458 107 c 128,-1,1
530 388 m 1,8,-1
 530 429 l 1,9,10
 536 570 536 570 652 670 c 1,11,-1
 682 692 l 2,12,13
 895 848 895 848 912 1042 c 1,14,-1
 912 1072 l 2,15,16
 912 1210 912 1210 872 1272 c 0,17,18
 784 1410 784 1410 613 1420 c 1,19,20
 467 1419 467 1419 373 1324 c 0,21,22
 302 1252 302 1252 274 1174 c 1,23,24
 319 1170 319 1170 352 1136 c 0,25,26
 390 1098 390 1098 390 1043 c 128,-1,27
 390 988 390 988 352 949.5 c 128,-1,28
 314 911 314 911 260 911 c 128,-1,29
 206 911 206 911 168 949.5 c 128,-1,30
 130 988 130 988 130 1043 c 0,31,32
 130 1245 130 1245 275 1392 c 1,33,34
 420 1536 420 1536 624 1536 c 128,-1,35
 828 1536 828 1536 977.5 1408.5 c 128,-1,36
 1127 1281 1127 1281 1127 1077 c 1,37,-1
 1126 1036 l 1,38,39
 1111 847 1111 847 954 742 c 2,40,-1
 736 596 l 1,41,42
 623 522 623 522 623 403 c 2,43,-1
 623 388 l 1,44,-1
 530 388 l 1,8,-1
EndSplineSet
Validated: 16385
EndChar

StartChar: at
Encoding: 64 64 35
Width: 1350
GlyphClass: 2
Flags: W
HStem: -391 115<575.513 867.942> -6 110<705.117 960.214> 634 88<704.58 902.9> 1010 118<553.047 839.477>
VStem: 150 210<73.5281 663.06> 460 175<179.598 560.334> 962 191<148 575.082>
LayerCount: 2
Fore
SplineSet
802 634 m 0,0,1
 759 634 759 634 706 592 c 0,2,3
 677 569 677 569 654 506 c 0,4,5
 639 465 639 465 636 392 c 0,6,7
 635 368 635 368 635 348 c 0,8,9
 635 317 635 317 638 292 c 0,10,11
 648 206 648 206 696 156 c 0,12,13
 746 104 746 104 806 104 c 0,14,15
 830 104 l 0,16,17
 905 110 905 110 962 140 c 1,18,-1
 961 478 l 1,19,20
 956 537 956 537 910 584 c 0,21,22
 861 634 861 634 802 634 c 0,0,1
150 368.5 m 128,-1,24
 150 523 150 523 194 663.5 c 128,-1,25
 238 804 238 804 314 906 c 0,26,27
 390 1007 390 1007 494 1067.5 c 128,-1,28
 598 1128 598 1128 712 1128 c 0,29,30
 829 1128 829 1128 932 1053 c 0,31,32
 1036 977 1036 977 1093 847 c 1,33,34
 1153 724 1153 724 1153 564 c 2,35,-1
 1153 148 l 1,36,-1
 1157 140 l 1,37,38
 1211 29 1211 29 1350 0 c 1,39,-1
 962 0 l 1,40,-1
 962 35 l 1,41,42
 915 10 915 10 872 0 c 0,43,44
 846 -6 846 -6 813 -6 c 128,-1,45
 780 -6 780 -6 741 0 c 0,46,47
 644 15 644 15 561 100 c 1,48,49
 505 159 505 159 478 242 c 0,50,51
 460 298 460 298 460 367 c 0,52,53
 460 389 460 389 462 410 c 0,54,55
 472 515 472 515 504 572 c 0,56,57
 537 631 537 631 608 672 c 0,58,59
 695 722 695 722 764 722 c 0,60,61
 837 722 837 722 920 684 c 1,62,-1
 952 666 l 1,63,64
 938 865 938 865 874 934 c 0,65,66
 804 1010 804 1010 708 1010 c 0,67,68
 600 1010 600 1010 530 948 c 1,69,70
 442 874 442 874 399 698 c 0,71,72
 360 538 360 538 360 383 c 0,73,74
 360 376 360 376 360 368 c 0,75,76
 360 212 360 212 398 76 c 1,77,78
 450 -82 450 -82 540 -197 c 0,79,80
 602 -276 602 -276 716 -276 c 0,81,82
 822 -276 822 -276 912 -200 c 1,83,-1
 1012 -273 l 1,84,85
 973 -305 973 -305 930 -330 c 0,86,87
 825 -391 825 -391 712 -391 c 0,88,89
 598 -391 598 -391 494 -330.5 c 128,-1,90
 390 -270 390 -270 314 -169 c 0,91,92
 238 -67 238 -67 194 73.5 c 128,-1,23
 150 214 150 214 150 368.5 c 128,-1,24
EndSplineSet
Validated: 1
EndChar

StartChar: A
Encoding: 65 65 36
Width: 1320
GlyphClass: 2
Flags: W
HStem: 0 0 540 102<422 806>
DStem2: 120 148 237 148 0.356271 0.934383<31.271 460.334 569.179 569.179> 655 1551 612 1170 0.361715 -0.932289<339.648 902.069 1011.27 1456.05>
LayerCount: 2
Fore
SplineSet
-70 0 m 1,0,1
 53 24 53 24 117 140 c 1,2,-1
 120 148 l 1,3,-1
 655 1551 l 1,4,-1
 1200 148 l 1,5,-1
 1201 145 l 1,6,-1
 1204 136 l 1,7,8
 1268 24 1268 24 1390 0 c 1,9,-1
 812 0 l 1,10,11
 1003 56 1003 56 1003 124 c 0,12,13
 1003 131 1003 131 1001 139 c 1,14,-1
 998 148 l 1,15,-1
 845 540 l 1,16,-1
 384 540 l 1,17,-1
 237 148 l 1,18,-1
 234 138 l 1,19,20
 232 132 232 132 232 125 c 0,21,22
 232 64 232 64 423 0 c 1,23,-1
 -70 0 l 1,0,1
422 642 m 1,24,-1
 806 642 l 1,25,-1
 612 1170 l 1,26,-1
 422 642 l 1,24,-1
EndSplineSet
Validated: 1
EndChar

StartChar: B
Encoding: 66 66 37
Width: 1514
GlyphClass: 2
Flags: W
HStem: -24 101<499.738 943.188> 1442 94<505.532 874.126>
VStem: 250 198<195.316 1336.85> 1028 203<1018.58 1307.49> 1163 221<279.391 618.572>
LayerCount: 2
Fore
SplineSet
549 1419 m 9,0,1
 499 1401 499 1401 476 1373 c 0,2,3
 450 1341 450 1341 448 1281 c 17,4,-1
 448 230 l 9,5,6
 448 186 448 186 462 163 c 0,7,8
 481 132 481 132 510 115 c 17,9,10
 585 77 585 77 685 77 c 0,11,12
 701 77 701 77 717 78 c 0,13,14
 926 91 926 91 1006 158 c 1,15,16
 1087 213 1087 213 1132 302 c 0,17,18
 1163 363 1163 363 1163 461 c 0,19,20
 1163 480 1163 480 1162 500 c 0,21,22
 1155 640 1155 640 990 710 c 0,23,24
 896 750 896 750 782 788 c 0,25,26
 629 839 629 839 612 846 c 1,27,28
 783 901 783 901 803 908 c 0,29,30
 864 930 864 930 910 956 c 0,31,32
 950 978 950 978 974 1002 c 1,33,34
 1028 1058 1028 1058 1028 1156 c 0,35,36
 1028 1160 1028 1160 1028 1166 c 0,37,38
 1028 1287 1028 1287 924 1368 c 0,39,40
 858 1419 858 1419 714 1440 c 0,41,42
 700 1442 700 1442 674 1442 c 0,43,44
 623 1441 623 1441 549 1419 c 9,0,1
60 148 m 9,45,46
 77 149 77 149 176 170 c 0,47,48
 217 179 217 179 237 195 c 24,49,50
 250 205 250 205 250 230 c 17,51,-1
 250 1281 l 9,52,53
 250 1304 250 1304 234 1319 c 24,54,55
 212 1339 212 1339 182 1344 c 0,56,57
 92 1359 92 1359 60 1363 c 17,58,-1
 404 1494 l 0,59,60
 514 1536 514 1536 710 1536 c 0,61,62
 845 1536 845 1536 956 1492 c 0,63,64
 1070 1447 1070 1447 1134 1382 c 0,65,66
 1218 1297 1218 1297 1230 1179 c 0,67,68
 1231 1169 1231 1169 1231 1159 c 0,69,70
 1231 1107 1231 1107 1208 1056 c 0,71,72
 1181 996 1181 996 1121 952 c 0,73,74
 1088 928 1088 928 997 894 c 0,75,76
 989 891 989 891 820 846 c 1,77,78
 919 838 919 838 975 831 c 0,79,80
 1122 812 1122 812 1186 782 c 0,81,82
 1338 711 1338 711 1373 554 c 0,83,84
 1384 505 1384 505 1384 457 c 0,85,86
 1384 376 1384 376 1354 294 c 0,87,88
 1311 176 1311 176 1188 94 c 0,89,90
 1128 54 1128 54 972 8 c 0,91,92
 859 -25 859 -25 710 -25 c 0,93,94
 697 -25 697 -25 661 -24 c 0,95,96
 514 -18 514 -18 380 32 c 0,97,98
 130 125 130 125 60 148 c 9,45,46
EndSplineSet
Validated: 16385
EndChar

StartChar: C
Encoding: 67 67 38
Width: 1366
GlyphClass: 2
Flags: W
HStem: -25 111<588.98 946.983> 1431 105<577.5 891.427>
VStem: 130 212<441.669 1059.97> 1033 122<1256.48 1334.2> 1155 0<959 1163>
LayerCount: 2
Fore
SplineSet
130 744 m 128,-1,1
 130 908 130 908 174 1060 c 0,2,3
 219 1216 219 1216 294 1314 c 0,4,5
 372 1417 372 1417 474 1476 c 0,6,7
 577 1536 577 1536 682 1536 c 0,8,9
 687 1536 687 1536 692 1536 c 0,10,11
 808 1536 808 1536 907 1484 c 0,12,13
 975 1448 975 1448 1015 1411 c 1,14,-1
 1023 1410 l 1,15,16
 1123 1418 1123 1418 1155 1537 c 1,17,-1
 1155 959 l 1,18,19
 1103 1163 1103 1163 1033 1279 c 1,20,21
 999 1332 999 1332 946 1371 c 0,22,23
 864 1431 864 1431 752 1431 c 0,24,25
 623 1431 623 1431 514 1345 c 1,26,27
 435 1254 435 1254 388 1084 c 0,28,29
 342 917 342 917 342 759 c 0,30,31
 342 753 342 753 342 746 c 0,32,33
 342 590 342 590 374 462 c 1,34,35
 448 242 448 242 552 156 c 0,36,37
 637 86 637 86 771 86 c 0,38,39
 794 86 794 86 818 88 c 0,40,41
 892 94 892 94 984 152 c 1,42,43
 1035 183 1035 183 1098 262 c 0,44,45
 1138 312 1138 312 1164 394 c 9,46,-1
 1266 354 l 17,47,48
 1228 267 1228 267 1178 200 c 0,49,50
 1101 98 1101 98 998 39 c 0,51,52
 885 -25 885 -25 739 -25 c 0,53,54
 736 -25 736 -25 734 -25 c 0,55,56
 581 -25 581 -25 476 35 c 0,57,58
 370 96 370 96 294 197 c 0,59,60
 219 297 219 297 174 440 c 0,61,0
 130 580 130 580 130 744 c 128,-1,1
EndSplineSet
Validated: 16385
EndChar

StartChar: D
Encoding: 68 68 39
Width: 1504
GlyphClass: 2
Flags: W
HStem: -25 103<499.836 863.681> 1434 102<495.618 856.098>
VStem: 250 198<195.316 1337.8> 1154 220<471.338 1025.02>
LayerCount: 2
Fore
SplineSet
549 1419 m 9,0,1
 500 1401 500 1401 476 1373 c 0,2,3
 450 1343 450 1343 448 1281 c 17,4,-1
 448 230 l 9,5,6
 448 186 448 186 462 163 c 0,7,8
 481 132 481 132 510 115 c 17,9,10
 584 78 584 78 709 78 c 0,11,12
 713 78 713 78 716 78 c 0,13,14
 832 78 832 78 948 184 c 1,15,16
 1052 296 1052 296 1104 430 c 0,17,18
 1154 559 1154 559 1154 730 c 0,19,20
 1154 742 1154 742 1154 756 c 0,21,22
 1154 946 1154 946 1115 1067 c 1,23,24
 1050 1243 1050 1243 942 1334 c 0,25,26
 846 1415 846 1415 711 1431 c 0,27,28
 685 1434 685 1434 656 1434 c 0,29,30
 601 1433 601 1433 549 1419 c 9,0,1
60 148 m 13,31,32
 76 149 76 149 176 170 c 0,33,34
 217 179 217 179 237 195 c 24,35,36
 250 205 250 205 250 230 c 17,37,-1
 250 1281 l 9,38,39
 250 1304 250 1304 234 1319 c 24,40,41
 213 1339 213 1339 184 1344 c 0,42,43
 80 1361 80 1361 60 1363 c 17,44,-1
 404 1494 l 0,45,46
 525 1536 525 1536 682 1536 c 0,47,48
 695 1536 695 1536 710 1536 c 0,49,50
 825 1536 825 1536 956 1473 c 0,51,52
 1079 1413 1079 1413 1179 1302 c 0,53,54
 1264 1208 1264 1208 1319 1058 c 128,-1,55
 1374 908 1374 908 1374 744 c 128,-1,56
 1374 580 1374 580 1318 438 c 0,57,58
 1263 297 1263 297 1179 201 c 0,59,60
 1094 103 1094 103 959 38 c 0,61,62
 828 -25 828 -25 688 -25 c 0,63,64
 533 -25 533 -25 380 32 c 0,65,66
 142 121 142 121 60 148 c 13,31,32
EndSplineSet
Validated: 16385
EndChar

StartChar: E
Encoding: 69 69 40
Width: 1322
GlyphClass: 2
Flags: W
HStem: 0 102<448 1045> 540 102<448 705> 1409 102<448 915>
VStem: 250 198<140 540 642 1371>
LayerCount: 2
Fore
SplineSet
60 0 m 1,0,1
 184 24 184 24 248 140 c 1,2,-1
 250 148 l 1,3,-1
 250 1363 l 1,4,-1
 248 1371 l 1,5,6
 184 1487 184 1487 60 1511 c 1,7,-1
 1006 1511 l 1,8,-1
 1192 1189 l 1,9,10
 986 1401 986 1401 915 1408 c 1,11,-1
 901 1409 l 1,12,-1
 448 1409 l 1,13,-1
 448 642 l 1,14,-1
 761 642 l 1,15,-1
 775 643 l 1,16,17
 846 650 846 650 1052 862 c 1,18,-1
 763 361 l 1,19,20
 772 394 772 394 772 422 c 0,21,22
 772 496 772 496 712 537 c 1,23,-1
 705 540 l 1,24,-1
 448 540 l 1,25,-1
 448 102 l 1,26,-1
 1031 102 l 1,27,-1
 1045 103 l 1,28,29
 1116 110 1116 110 1322 322 c 1,30,-1
 1136 0 l 1,31,-1
 60 0 l 1,0,1
EndSplineSet
Validated: 16385
EndChar

StartChar: F
Encoding: 70 70 41
Width: 1272
GlyphClass: 2
Flags: W
HStem: 0 21G<60 638> 540 102<448 705> 1409 102<448 915>
VStem: 250 198<140 540 642 1371>
LayerCount: 2
Fore
SplineSet
60 0 m 1,0,1
 184 24 184 24 248 140 c 1,2,-1
 250 148 l 1,3,-1
 250 1363 l 1,4,-1
 248 1371 l 1,5,6
 184 1487 184 1487 60 1511 c 9,7,-1
 1006 1511 l 17,8,-1
 1192 1189 l 1,9,10
 986 1401 986 1401 915 1408 c 1,11,-1
 901 1409 l 1,12,-1
 448 1409 l 1,13,-1
 448 642 l 1,14,-1
 761 642 l 1,15,-1
 775 643 l 1,16,17
 846 650 846 650 1052 862 c 1,18,-1
 763 361 l 1,19,20
 772 394 772 394 772 422 c 0,21,22
 772 496 772 496 712 537 c 1,23,-1
 705 540 l 1,24,-1
 448 540 l 1,25,-1
 448 148 l 1,26,-1
 450 139 l 1,27,28
 504 28 504 28 638 0 c 1,29,-1
 60 0 l 1,0,1
EndSplineSet
Validated: 16385
EndChar

StartChar: G
Encoding: 71 71 42
Width: 1350
GlyphClass: 2
Flags: W
HStem: -25 105<560.011 834.283> 1431 105<587.254 891.427>
VStem: 130 212<439.528 1059.97> 1033 122<1256.48 1334.2> 1155 0<959 1163>
LayerCount: 2
Fore
SplineSet
130 744 m 128,-1,1
 130 908 130 908 174 1060 c 0,2,3
 219 1216 219 1216 294 1314 c 0,4,5
 372 1417 372 1417 474 1476 c 0,6,7
 577 1536 577 1536 682 1536 c 0,8,9
 687 1536 687 1536 692 1536 c 0,10,11
 808 1536 808 1536 907 1484 c 0,12,13
 975 1448 975 1448 1015 1411 c 1,14,-1
 1023 1410 l 1,15,16
 1123 1418 1123 1418 1155 1537 c 1,17,-1
 1155 959 l 1,18,19
 1103 1163 1103 1163 1033 1279 c 1,20,21
 999 1332 999 1332 946 1371 c 0,22,23
 864 1431 864 1431 752 1431 c 0,24,25
 634 1431 634 1431 524 1344 c 1,26,27
 437 1259 437 1259 388 1084 c 0,28,29
 342 919 342 919 342 761 c 0,30,31
 342 755 342 755 342 748 c 0,32,33
 342 592 342 592 374 464 c 1,34,35
 432 249 432 249 498 178 c 0,36,37
 589 80 589 80 700 80 c 0,38,39
 794 80 794 80 887 165 c 1,40,41
 988 277 988 277 1004 370 c 0,42,43
 1009 399 1009 399 1009 424 c 0,44,45
 1009 476 1009 476 990 510 c 1,46,-1
 985 517 l 1,47,48
 910 622 910 622 730 642 c 1,49,-1
 1250 642 l 1,50,51
 1240 535 1240 535 1210 440 c 0,52,53
 1166 298 1166 298 1090 197 c 0,54,55
 1015 97 1015 97 910 36 c 0,56,57
 806 -25 806 -25 692 -25 c 128,-1,58
 578 -25 578 -25 474 35.5 c 128,-1,59
 370 96 370 96 294 197 c 0,60,61
 218 299 218 299 174 439.5 c 128,-1,0
 130 580 130 580 130 744 c 128,-1,1
EndSplineSet
Validated: 16385
EndChar

StartChar: H
Encoding: 72 72 43
Width: 1547
GlyphClass: 2
Flags: W
HStem: 0 21G<60 638 909 1487> 540 102<448 1099> 1491 20G<60 638 909 1487>
VStem: 250 198<140 540 642 1371> 1099 198<140 540 642 1371>
LayerCount: 2
Fore
SplineSet
60 0 m 1,0,1
 184 24 184 24 248 140 c 1,2,-1
 250 148 l 1,3,-1
 250 1363 l 1,4,-1
 248 1371 l 1,5,6
 184 1487 184 1487 60 1511 c 1,7,-1
 638 1511 l 1,8,9
 504 1483 504 1483 450 1372 c 1,10,-1
 448 1363 l 1,11,-1
 448 642 l 1,12,-1
 1099 642 l 1,13,-1
 1099 1363 l 1,14,-1
 1097 1371 l 1,15,16
 1033 1487 1033 1487 909 1511 c 1,17,-1
 1487 1511 l 1,18,19
 1353 1483 1353 1483 1299 1372 c 1,20,-1
 1297 1363 l 1,21,-1
 1297 148 l 1,22,-1
 1299 139 l 1,23,24
 1353 28 1353 28 1487 0 c 1,25,-1
 909 0 l 1,26,27
 1033 24 1033 24 1097 140 c 1,28,-1
 1099 148 l 1,29,-1
 1099 540 l 1,30,-1
 448 540 l 1,31,-1
 448 148 l 1,32,-1
 450 139 l 1,33,34
 504 28 504 28 638 0 c 1,35,-1
 60 0 l 1,0,1
EndSplineSet
Validated: 1
EndChar

StartChar: I
Encoding: 73 73 44
Width: 698
GlyphClass: 2
Flags: W
HStem: 0 21G<60 638> 1491 20G<60 638>
VStem: 250 198<140 1371>
LayerCount: 2
Fore
SplineSet
60 0 m 1,0,1
 184 24 184 24 248 140 c 1,2,-1
 250 148 l 1,3,-1
 250 1363 l 1,4,-1
 248 1371 l 1,5,6
 184 1487 184 1487 60 1511 c 1,7,-1
 638 1511 l 1,8,9
 504 1483 504 1483 450 1372 c 1,10,-1
 448 1363 l 1,11,-1
 448 148 l 1,12,-1
 450 139 l 1,13,14
 504 28 504 28 638 0 c 1,15,-1
 60 0 l 1,0,1
EndSplineSet
Validated: 1
EndChar

StartChar: J
Encoding: 74 74 45
Width: 698
GlyphClass: 2
Flags: W
HStem: 1491 20G<60 638>
VStem: 250 198<-62.9094 1371>
LayerCount: 2
Fore
SplineSet
60 -312 m 1,0,1
 250 -109 250 -109 250 137 c 0,2,3
 250 139 250 139 250 140 c 1,4,-1
 250 148 l 1,5,-1
 250 1363 l 1,6,-1
 248 1371 l 1,7,8
 184 1487 184 1487 60 1511 c 1,9,-1
 638 1511 l 1,10,11
 504 1483 504 1483 450 1372 c 1,12,-1
 448 1363 l 1,13,-1
 448 148 l 1,14,-1
 448 140 l 1,15,16
 448 -195 448 -195 67 -311 c 1,17,-1
 60 -312 l 1,0,1
EndSplineSet
Validated: 1
EndChar

StartChar: K
Encoding: 75 75 46
Width: 1496
GlyphClass: 2
Flags: W
HStem: -123 179<1235.69 1370.07> 0 21G<60 638> 575 86<629.716 748.069> 1511 0
VStem: 250 198<140 417 588 1371>
DStem2: 448 588 571 570 0.628659 0.777681<0 97.8178 153.598 1060.59> 1190 183 879 378 0.426803 -0.904345<-476.191 159.759>
LayerCount: 2
Fore
SplineSet
60 0 m 1,0,1
 184 24 184 24 248 140 c 1,2,-1
 250 148 l 1,3,-1
 250 1363 l 1,4,-1
 248 1371 l 1,5,6
 184 1487 184 1487 60 1511 c 1,7,-1
 638 1511 l 1,8,9
 504 1483 504 1483 450 1372 c 1,10,-1
 448 1363 l 1,11,-1
 448 588 l 1,12,-1
 1093 1393 l 1,13,-1
 1101 1404 l 1,14,15
 1105 1411 1105 1411 1105 1421 c 0,16,17
 1105 1460 1105 1460 932 1511 c 1,18,-1
 1403 1511 l 1,19,20
 1332 1490 1332 1490 1220 1372 c 1,21,-1
 1213 1363 l 1,22,-1
 628 640 l 1,23,24
 683 661 683 661 728 661 c 0,25,26
 730 661 730 661 732 661 c 0,27,28
 905 661 905 661 1010 535 c 0,29,30
 1062 473 1062 473 1190 183 c 1,31,-1
 1211 139 l 1,32,33
 1253 56 1253 56 1316 56 c 0,34,35
 1317 56 1317 56 1319 56 c 0,36,37
 1374 56 1374 56 1419 94 c 1,38,39
 1469 138 1469 138 1496 158 c 1,40,41
 1483 32 1483 32 1412 -42 c 0,42,43
 1334 -123 1334 -123 1249 -123 c 0,44,45
 1248 -123 1248 -123 1247 -123 c 0,46,47
 1156 -123 1156 -123 1082 -29 c 0,48,49
 1067 -10 1067 -10 1022 75 c 1,50,-1
 879 378 l 1,51,52
 811 511 811 511 736 539 c 0,53,54
 646 573 646 573 575 575 c 1,55,-1
 571 570 l 1,56,-1
 448 417 l 1,57,-1
 448 148 l 1,58,-1
 450 139 l 1,59,60
 504 28 504 28 638 0 c 1,61,-1
 60 0 l 1,0,1
EndSplineSet
Validated: 1
EndChar

StartChar: L
Encoding: 76 76 47
Width: 1161
GlyphClass: 2
Flags: W
HStem: 0 102<448 964> 1491 20G<60 638>
VStem: 250 198<140 1371>
LayerCount: 2
Fore
SplineSet
60 0 m 1,0,1
 184 24 184 24 248 140 c 1,2,-1
 250 148 l 1,3,-1
 250 1363 l 1,4,-1
 248 1371 l 1,5,6
 184 1487 184 1487 60 1511 c 1,7,-1
 638 1511 l 1,8,9
 504 1483 504 1483 450 1372 c 1,10,-1
 448 1363 l 1,11,-1
 448 102 l 1,12,-1
 950 102 l 1,13,-1
 964 103 l 1,14,15
 1035 110 1035 110 1241 322 c 1,16,-1
 1055 0 l 1,17,-1
 60 0 l 1,0,1
EndSplineSet
Validated: 1
EndChar

StartChar: M
Encoding: 77 77 48
Width: 1814
GlyphClass: 2
Flags: W
HStem: 0 0 0 0
DStem2: 380 1551 400 1020 0.405789 -0.913967<493.432 1328.28> 919 337 860 -40 0.391173 0.920317<0 775.198> 1435 1551 1315 1011 0.147341 -0.989086<516.425 1397.37>
LayerCount: 2
Fore
SplineSet
-20 0 m 1,0,1
 114 28 114 28 168 139 c 1,2,-1
 170 148 l 1,3,-1
 380 1551 l 1,4,-1
 919 337 l 1,5,-1
 1435 1551 l 1,6,-1
 1644 148 l 1,7,-1
 1646 139 l 1,8,9
 1700 28 1700 28 1834 0 c 1,10,-1
 1256 0 l 1,11,12
 1447 71 1447 71 1447 135 c 0,13,14
 1447 137 1447 137 1447 140 c 1,15,-1
 1446 148 l 1,16,-1
 1315 1011 l 1,17,-1
 860 -40 l 1,18,-1
 400 1020 l 1,19,-1
 282 148 l 1,20,-1
 281 136 l 1,21,22
 283 76 283 76 472 0 c 1,23,-1
 -20 0 l 1,0,1
EndSplineSet
Validated: 1
EndChar

StartChar: N
Encoding: 78 78 49
Width: 1550
GlyphClass: 2
Flags: W
HStem: 0 21G<60 552> 1491 20G<998 1490>
VStem: 250 112<140 1081> 1188 112<440 1371>
DStem2: 250 1551 362 1081 0.641731 -0.76693<432.331 1454>
LayerCount: 2
Fore
SplineSet
60 0 m 1,0,1
 184 24 184 24 248 140 c 1,2,-1
 250 148 l 1,3,-1
 250 1551 l 1,4,-1
 1188 440 l 1,5,-1
 1188 1363 l 1,6,-1
 1186 1371 l 1,7,8
 1122 1487 1122 1487 998 1511 c 1,9,-1
 1490 1511 l 1,10,11
 1356 1483 1356 1483 1302 1372 c 1,12,-1
 1300 1363 l 1,13,-1
 1300 -40 l 1,14,-1
 362 1081 l 1,15,-1
 362 148 l 1,16,-1
 364 139 l 1,17,18
 418 28 418 28 552 0 c 1,19,-1
 60 0 l 1,0,1
EndSplineSet
Validated: 1
EndChar

StartChar: O
Encoding: 79 79 50
Width: 1384
GlyphClass: 2
Flags: W
HStem: -25 105<563.53 818.135> 1431 105<550.042 823.85>
VStem: 130 208<438.842 1061.24> 1044 210<439.528 1059.97>
LayerCount: 2
Fore
SplineSet
338 727 m 0,0,1
 338 570 338 570 370 462 c 1,2,3
 419 268 419 268 502 178 c 0,4,5
 593 80 593 80 692 80 c 0,6,7
 694 80 694 80 695 80 c 0,8,9
 697 80 697 80 698 80 c 0,10,11
 781 80 781 80 890 180 c 1,12,13
 966 274 966 274 1005 417 c 0,14,15
 1044 559 1044 559 1044 727 c 0,16,17
 1044 741 1044 741 1044 758 c 0,18,19
 1044 945 1044 945 1005 1069 c 1,20,21
 956 1253 956 1253 870 1346 c 0,22,23
 791 1431 791 1431 693 1431 c 0,24,-1
 691 1431 l 0,25,26
 594 1431 594 1431 520 1364 c 1,27,28
 431 1292 431 1292 382 1096 c 0,29,30
 338 918 338 918 338 727 c 0,0,1
130 744 m 128,-1,32
 130 908 130 908 174 1060 c 128,-1,33
 218 1212 218 1212 294 1314 c 0,34,35
 370 1415 370 1415 474 1475.5 c 128,-1,36
 578 1536 578 1536 692 1536 c 128,-1,37
 806 1536 806 1536 910 1475.5 c 128,-1,38
 1014 1415 1014 1415 1090 1314 c 0,39,40
 1166 1212 1166 1212 1210 1060 c 128,-1,41
 1254 908 1254 908 1254 744 c 128,-1,42
 1254 580 1254 580 1210 439.5 c 128,-1,43
 1166 299 1166 299 1090 197 c 0,44,45
 1014 96 1014 96 910 35.5 c 128,-1,46
 806 -25 806 -25 692 -25 c 128,-1,47
 578 -25 578 -25 474 35.5 c 128,-1,48
 370 96 370 96 294 197 c 0,49,50
 218 299 218 299 174 439.5 c 128,-1,31
 130 580 130 580 130 744 c 128,-1,32
EndSplineSet
Validated: 1
EndChar

StartChar: P
Encoding: 80 80 51
Width: 1368
GlyphClass: 2
Flags: W
HStem: 0 21G<50 628> 541 99<531.556 874.505> 1432 103<489.563 843.391>
VStem: 240 198<140 626 722.647 1314.65> 1022 216<822.87 1238.73>
LayerCount: 2
Fore
SplineSet
50 0 m 1,0,1
 174 24 174 24 238 140 c 1,2,-1
 240 148 l 1,3,-1
 240 1280 l 2,4,5
 240 1304 240 1304 227 1315 c 0,6,7
 209 1330 209 1330 166 1340 c 0,8,9
 78 1360 78 1360 50 1362 c 1,10,11
 119 1393 119 1393 356 1476 c 0,12,13
 524 1535 524 1535 646 1535 c 0,14,15
 650 1535 650 1535 654 1535 c 0,16,17
 803 1535 803 1535 904 1494 c 0,18,19
 1006 1454 1006 1454 1074 1392 c 0,20,21
 1167 1307 1167 1307 1206 1212 c 1,22,23
 1232 1158 1232 1158 1238 1032 c 1,24,25
 1233 835 1233 835 1124 720 c 0,26,27
 1026 617 1026 617 904 572 c 0,28,29
 820 541 820 541 715 541 c 0,30,31
 695 541 695 541 674 542 c 0,32,33
 529 549 529 549 438 626 c 1,34,-1
 438 148 l 1,35,-1
 440 139 l 1,36,37
 494 28 494 28 628 0 c 1,38,-1
 50 0 l 1,0,1
653 1432 m 0,39,40
 575 1432 575 1432 500 1395 c 1,41,42
 470 1377 470 1377 452 1347 c 0,43,44
 438 1323 438 1323 438 1280 c 2,45,-1
 438 782 l 1,46,47
 488 689 488 689 600 654 c 1,48,49
 648 640 648 640 693 640 c 0,50,51
 698 640 698 640 704 640 c 0,52,53
 708 640 708 640 744 642 c 1,54,55
 839 652 839 652 904 704 c 0,56,57
 1022 799 1022 799 1022 1032 c 0,58,59
 1022 1152 1022 1152 974 1248 c 0,60,61
 932 1332 932 1332 846 1386 c 0,62,63
 772 1432 772 1432 653 1432 c 0,39,40
EndSplineSet
Validated: 1
EndChar

StartChar: Q
Encoding: 81 81 52
Width: 1384
GlyphClass: 2
Flags: W
HStem: -25 105<557.77 802.029> 1431 105<554.295 821.327>
VStem: 130 206<440.382 1061.43> 861 180<-126.297 -8> 1048 206<440.028 1059.97>
LayerCount: 2
Fore
SplineSet
130 744 m 128,-1,1
 130 908 130 908 174 1060 c 128,-1,2
 218 1212 218 1212 294 1314 c 0,3,4
 370 1415 370 1415 474 1475.5 c 128,-1,5
 578 1536 578 1536 692 1536 c 128,-1,6
 806 1536 806 1536 910 1475.5 c 128,-1,7
 1014 1415 1014 1415 1090 1314 c 0,8,9
 1166 1212 1166 1212 1210 1060 c 128,-1,10
 1254 908 1254 908 1254 744 c 128,-1,11
 1254 580 1254 580 1210 440 c 0,12,13
 1165 295 1165 295 1090 197 c 0,14,15
 1077 180 1077 180 1063 163 c 1,16,17
 1065 137 1065 137 1062 114 c 2,18,-1
 1046 -8 l 1,19,-1
 1041 -68 l 2,20,-1
 1041 -81 l 0,21,22
 1041 -138 1041 -138 1187 -138 c 0,23,24
 1202 -138 1202 -138 1216 -137 c 1,25,-1
 1176 -215 l 1,26,27
 1050 -267 1050 -267 974 -267 c 0,28,29
 861 -267 861 -267 861 -151 c 0,30,31
 861 -146 861 -146 861 -140 c 0,32,33
 861 -100 861 -100 869 -8 c 2,34,-1
 871 15 l 1,35,36
 785 -25 785 -25 692 -25 c 0,37,38
 578 -25 578 -25 474 35.5 c 128,-1,39
 370 96 370 96 294 197 c 0,40,41
 218 299 218 299 174 439.5 c 128,-1,0
 130 580 130 580 130 744 c 128,-1,1
336 695 m 24,42,43
 336 590 336 590 370 460 c 1,44,45
 424 257 424 257 498 176 c 0,46,47
 586 80 586 80 702 80 c 0,48,49
 749 80 749 80 803 109 c 1,50,51
 773 115 773 115 731 115 c 0,52,53
 714 115 714 115 698 114 c 1,54,-1
 738 192 l 1,55,56
 877 258 877 258 957 259 c 1,57,58
 976 297 976 297 1009 417 c 0,59,60
 1048 559 1048 559 1048 727 c 0,61,62
 1048 741 1048 741 1048 758 c 0,63,64
 1048 946 1048 946 1009 1069 c 1,65,66
 973 1217 973 1217 874 1336 c 0,67,68
 795 1431 795 1431 691 1431 c 0,69,70
 599 1431 599 1431 520 1360 c 1,71,72
 425 1281 425 1281 382 1094 c 0,73,74
 336 895 336 895 336 695 c 24,42,43
EndSplineSet
Validated: 16385
EndChar

StartChar: R
Encoding: 82 82 53
Width: 1436
GlyphClass: 2
Flags: W
HStem: -123 179<1235.22 1370.21> 0 21G<60 638> 542 98<542.052 730> 1432 103<499.563 853.391>
VStem: 250 198<140 626 722.647 1314.65> 1032 216<823.108 1238.73>
DStem2: 1190 183 879 378 0.426803 -0.904345<-464.47 159.547>
LayerCount: 2
Fore
SplineSet
663 1432 m 0,0,1
 585 1432 585 1432 510 1395 c 1,2,3
 480 1377 480 1377 462 1347 c 0,4,5
 448 1323 448 1323 448 1280 c 2,6,-1
 448 782 l 1,7,8
 498 689 498 689 610 654 c 1,9,10
 658 640 658 640 703 640 c 0,11,12
 708 640 708 640 714 640 c 0,13,14
 718 640 718 640 754 642 c 1,15,16
 849 652 849 652 914 704 c 0,17,18
 1032 799 1032 799 1032 1032 c 0,19,20
 1032 1152 1032 1152 984 1248 c 0,21,22
 942 1332 942 1332 856 1386 c 0,23,24
 782 1432 782 1432 663 1432 c 0,0,1
60 0 m 1,25,26
 184 24 184 24 248 140 c 1,27,-1
 250 148 l 1,28,-1
 250 1280 l 2,29,30
 250 1304 250 1304 237 1315 c 0,31,32
 219 1330 219 1330 176 1340 c 0,33,34
 88 1360 88 1360 60 1362 c 1,35,36
 129 1393 129 1393 366 1476 c 0,37,38
 534 1535 534 1535 656 1535 c 0,39,40
 660 1535 660 1535 664 1535 c 0,41,42
 813 1535 813 1535 914 1494 c 0,43,44
 1016 1454 1016 1454 1084 1392 c 0,45,46
 1177 1307 1177 1307 1216 1212 c 1,47,48
 1242 1158 1242 1158 1248 1032 c 1,49,50
 1243 836 1243 836 1134 720 c 0,51,52
 1051 632 1051 632 948 586 c 1,53,54
 985 565 985 565 1010 535 c 0,55,56
 1061 473 1061 473 1190 183 c 1,57,-1
 1211 139 l 1,58,59
 1254 56 1254 56 1315 56 c 0,60,61
 1317 56 1317 56 1319 56 c 0,62,63
 1373 56 1373 56 1419 94 c 1,64,65
 1469 138 1469 138 1496 158 c 1,66,67
 1483 32 1483 32 1412 -42 c 0,68,69
 1334 -123 1334 -123 1251 -123 c 0,70,71
 1249 -123 1249 -123 1247 -123 c 0,72,73
 1152 -123 1152 -123 1082 -29 c 0,74,75
 1067 -9 1067 -9 1022 75 c 1,76,-1
 879 378 l 1,77,78
 812 508 812 508 736 539 c 2,79,-1
 730 541 l 1,80,81
 708 541 708 541 684 542 c 0,82,83
 540 548 540 548 448 626 c 1,84,-1
 448 148 l 1,85,-1
 450 139 l 1,86,87
 504 28 504 28 638 0 c 1,88,-1
 60 0 l 1,25,26
EndSplineSet
Validated: 16385
EndChar

StartChar: S
Encoding: 83 83 54
Width: 1306
GlyphClass: 2
Flags: W
HStem: -25 105<443.334 820.156> 1440 96<478.748 753.413>
VStem: 120 0<-26 93> 120 0<400 746> 222 174<1092.05 1343.6> 989 197<271.795 563.118> 990 0<958 1205> 990 0<1418 1536>
DStem2: 582 988 478 808 0.913604 -0.406604<-185.627 520.366>
LayerCount: 2
Fore
SplineSet
120 746 m 1,0,1
 162 400 162 400 265 250 c 1,2,-1
 284 228 l 1,3,4
 300 205 300 205 364 160 c 0,5,6
 478 80 478 80 634 80 c 0,7,8
 636 80 636 80 638 80 c 0,9,10
 700 80 700 80 708 82 c 0,11,12
 856 112 856 112 936 238 c 1,13,14
 989 330 989 330 989 431 c 2,15,-1
 989 457 l 1,16,17
 980 582 980 582 818 652 c 1,18,-1
 478 808 l 1,19,20
 224 926 224 926 222 1154 c 1,21,-1
 222 1174 l 1,22,23
 226 1329 226 1329 334 1432 c 0,24,25
 443 1536 443 1536 608 1536 c 0,26,27
 611 1536 611 1536 614 1536 c 0,28,29
 780 1536 780 1536 875 1411 c 1,30,-1
 883 1410 l 1,31,32
 958 1418 958 1418 990 1536 c 1,33,-1
 990 958 l 1,34,35
 930 1205 930 1205 866 1290 c 1,36,-1
 832 1332 l 1,37,38
 817 1346 817 1346 780 1376 c 0,39,40
 703 1439 703 1439 622 1440 c 0,41,42
 619 1440 l 0,43,44
 522 1440 522 1440 460 1382 c 0,45,46
 396 1322 396 1322 396 1216 c 0,47,48
 396 1213 396 1213 396 1210 c 0,49,50
 396 1071 396 1071 582 988 c 2,51,-1
 946 826 l 2,52,53
 1171 726 1171 726 1186 463 c 1,54,-1
 1186 424 l 1,55,56
 1156 228 1156 228 1020 106 c 1,57,58
 887 -25 887 -25 668 -25 c 2,59,-1
 660 -25 l 2,60,61
 588 -25 588 -25 452 16 c 0,62,-1
 265 96 l 17,63,-1
 252 101 l 1,64,65
 152 93 152 93 120 -26 c 1,66,-1
 120 746 l 1,0,1
EndSplineSet
Validated: 16385
EndChar

StartChar: T
Encoding: 84 84 55
Width: 1194
GlyphClass: 2
Flags: W
HStem: 0 21G<307.852 885.852> 1409 102<196.852 497.852 695.852 996.852>
VStem: 497.852 198<140 1409>
LayerCount: 2
Fore
SplineSet
307.852 0 m 1,0,1
 431.852 24 431.852 24 495.852 140 c 1,2,-1
 497.852 148 l 1,3,-1
 497.852 1409 l 1,4,-1
 210.852 1409 l 1,5,-1
 196.852 1408 l 1,6,7
 125.852 1401 125.852 1401 -80.2969 1189.37 c 1,8,-1
 105.852 1511 l 1,9,-1
 1087.85 1511 l 1,10,-1
 1274 1189.37 l 1,11,12
 1067.85 1401 1067.85 1401 996.852 1408 c 1,13,-1
 982.852 1409 l 1,14,-1
 695.852 1409 l 1,15,-1
 695.852 148 l 1,16,-1
 697.852 139 l 1,17,18
 751.852 28 751.852 28 885.852 0 c 1,19,-1
 307.852 0 l 1,0,1
EndSplineSet
Validated: 1
EndChar

StartChar: U
Encoding: 85 85 56
Width: 1547
GlyphClass: 2
Flags: W
HStem: -25 157<641.24 986.82> 1491 20G<60 638 995 1487>
VStem: 250 198<329.352 1371> 1185 112<329.352 1371>
LayerCount: 2
Fore
SplineSet
60 1511 m 1,0,1
 638 1511 l 1,2,3
 504 1483 504 1483 450 1372 c 1,4,-1
 448 1363 l 1,5,-1
 448 498 l 1,6,7
 453 349 453 349 554 244 c 0,8,9
 662 132 662 132 816 132 c 128,-1,10
 970 132 970 132 1078 244 c 0,11,12
 1179 349 1179 349 1185 498 c 1,13,-1
 1185 1363 l 1,14,-1
 1183 1371 l 1,15,16
 1119 1487 1119 1487 995 1511 c 1,17,-1
 1487 1511 l 1,18,19
 1353 1483 1353 1483 1299 1372 c 1,20,-1
 1297 1363 l 1,21,-1
 1297 498 l 1,22,-1
 1297 495 l 0,23,24
 1297 389 1297 389 1255.5 293 c 128,-1,25
 1214 197 1214 197 1145 127 c 0,26,27
 1075 57 1075 57 978 16 c 128,-1,28
 881 -25 881 -25 774 -25 c 128,-1,29
 667 -25 667 -25 570 16 c 128,-1,30
 473 57 473 57 403 127 c 0,31,32
 334 197 334 197 292 293 c 128,-1,33
 250 389 250 389 250 495 c 0,34,-1
 250 498 l 1,35,-1
 250 1363 l 1,36,-1
 248 1371 l 1,37,38
 184 1487 184 1487 60 1511 c 1,0,1
EndSplineSet
Validated: 16385
EndChar

StartChar: V
Encoding: 86 86 57
Width: 1320
GlyphClass: 2
Flags: W
HStem: 1511 0 1511 0
DStem2: 319 1372 120 1363 0.361715 -0.932289<-8.06503 1074.86> 708 370 665 -40 0.356271 0.934383<0 1070.79>
LayerCount: 2
Fore
SplineSet
-70 1511 m 1,0,-1
 508 1511 l 1,1,2
 317 1426 317 1426 317 1380 c 0,3,4
 317 1376 317 1376 319 1372 c 1,5,-1
 322 1363 l 1,6,-1
 708 370 l 9,7,-1
 1080 1363 l 17,8,-1
 1083 1373 l 1,9,10
 1085 1378 1085 1378 1085 1384 c 0,11,12
 1080 1444 1080 1444 894 1511 c 1,13,-1
 1390 1511 l 1,14,15
 1267 1487 1267 1487 1203 1371 c 1,16,-1
 1200 1363 l 1,17,-1
 665 -40 l 1,18,-1
 120 1363 l 1,19,-1
 119 1366 l 1,20,-1
 116 1375 l 1,21,22
 52 1487 52 1487 -70 1511 c 1,0,-1
EndSplineSet
Validated: 1
EndChar

StartChar: W
Encoding: 87 87 58
Width: 1877
GlyphClass: 2
Flags: W
HStem: 1511 0 1511 0
VStem: 628 202<1309 1511> 1152 117<1394 1511>
DStem2: 830 1511 628 1511 0.357647 -0.933857<0 453.04 606.749 658.21 809.117 1216.8> 715 390 946 689 0.362881 0.931835<0 362.444 747.261 1203.17> 1266 375 1222 -40 0.356271 0.934383<0 1064.6>
LayerCount: 2
Fore
SplineSet
-70 1511 m 1,0,-1
 508 1511 l 1,1,2
 317 1442 317 1442 317 1385 c 0,3,4
 317 1378 317 1378 319 1372 c 1,5,-1
 322 1363 l 1,6,-1
 715 390 l 1,7,-1
 887 828 l 1,8,-1
 628 1511 l 1,9,-1
 830 1511 l 1,10,-1
 987 1086 l 1,11,-1
 1152 1511 l 1,12,-1
 1269 1511 l 1,13,-1
 1046 944 l 1,14,-1
 1266 375 l 1,15,-1
 1640 1363 l 1,16,-1
 1642 1371 l 1,17,18
 1644 1377 1644 1377 1644 1383 c 0,19,-1
 1644 1384 l 0,20,21
 1644 1441 1644 1441 1454 1511 c 1,22,-1
 1947 1511 l 1,23,24
 1824 1487 1824 1487 1760 1371 c 1,25,-1
 1757 1363 l 1,26,-1
 1222 -40 l 1,27,-1
 946 689 l 1,28,-1
 665 -40 l 1,29,-1
 120 1363 l 1,30,-1
 119 1366 l 1,31,-1
 116 1375 l 1,32,33
 52 1487 52 1487 -70 1511 c 1,0,-1
EndSplineSet
Validated: 1
EndChar

StartChar: X
Encoding: 88 88 59
Width: 1248
GlyphClass: 2
Flags: W
HStem: 0 0 1511 0 1511 0 1511 0
DStem2: 187 146 307 140 0.527144 0.849776<29.144 614.32 875.215 1491.75> 656 885 540 720 0.505448 -0.862857<-553.466 0 212.876 754.027>
LayerCount: 2
Fore
SplineSet
-2 0 m 1,0,1
 93 24 93 24 161 105 c 1,2,-1
 187 146 l 9,3,-1
 540 720 l 25,4,-1
 160 1363 l 17,5,-1
 155 1372 l 2,6,7
 98 1475 98 1475 -30 1511 c 1,8,-1
 548 1511 l 1,9,10
 370 1435 370 1435 370 1384 c 0,11,12
 370 1377 370 1377 374 1370 c 1,13,-1
 377 1363 l 1,14,-1
 656 885 l 9,15,-1
 942 1364 l 17,16,-1
 947 1373 l 1,17,18
 955 1386 955 1386 955 1399 c 0,19,-1
 955 1400 l 0,20,21
 955 1459 955 1459 771 1511 c 1,22,-1
 1256 1511 l 1,23,24
 1149 1481 1149 1481 1092 1404 c 1,25,-1
 1069 1368 l 9,26,-1
 726 774 l 25,27,-1
 1093 138 l 17,28,-1
 1099 128 l 1,29,30
 1157 34 1157 34 1278 0 c 1,31,-1
 700 0 l 1,32,33
 882 57 882 57 882 118 c 0,34,35
 882 129 882 129 876 140 c 1,36,-1
 872 148 l 1,37,-1
 606 609 l 9,38,-1
 312 148 l 17,39,-1
 307 140 l 1,40,41
 298 125 298 125 298 111 c 0,42,43
 298 48 298 48 483 0 c 1,44,-1
 -2 0 l 1,0,1
EndSplineSet
Validated: 1
EndChar

StartChar: Y
Encoding: 89 89 60
Width: 1320
GlyphClass: 2
Flags: W
HStem: 0 21G<370 948> 1511 0 1511 0
VStem: 560 198<140 642>
DStem2: 322 1363 120 1363 0.44173 -0.897148<-24.8409 714.428>
LayerCount: 2
Fore
SplineSet
370 0 m 1,0,1
 494 24 494 24 558 140 c 1,2,-1
 560 148 l 1,3,-1
 560 642 l 1,4,-1
 475 642 l 1,5,-1
 120 1363 l 1,6,-1
 119 1366 l 1,7,-1
 116 1375 l 1,8,9
 52 1487 52 1487 -70 1511 c 1,10,-1
 508 1511 l 1,11,12
 314 1442 314 1442 314 1387 c 0,13,14
 314 1379 314 1379 318 1372 c 1,15,-1
 322 1363 l 1,16,-1
 674 642 l 1,17,-1
 722 642 l 1,18,-1
 1083 1363 l 1,19,-1
 1087 1372 l 1,20,21
 1091 1379 1091 1379 1091 1387 c 0,22,23
 1090 1442 1090 1442 897 1511 c 1,24,-1
 1390 1511 l 1,25,26
 1267 1487 1267 1487 1203 1371 c 1,27,-1
 1200 1363 l 1,28,-1
 831 642 l 1,29,-1
 758 642 l 1,30,-1
 758 148 l 1,31,-1
 760 139 l 1,32,33
 814 28 814 28 948 0 c 1,34,-1
 370 0 l 1,0,1
EndSplineSet
Validated: 1
EndChar

StartChar: Z
Encoding: 90 90 61
Width: 1181
GlyphClass: 2
Flags: W
HStem: 0 102<301 904> 1409 102<333 849.121>
LayerCount: 2
Fore
SplineSet
0 0 m 1,0,-1
 849.121 1408.98 l 1,1,-1
 347 1409 l 1,2,-1
 333 1408 l 1,3,4
 262 1401 262 1401 55.8516 1189.37 c 1,5,-1
 242 1511 l 1,6,-1
 1128 1511 l 1,7,-1
 301 102 l 1,8,-1
 890 102 l 1,9,-1
 904 103 l 1,10,11
 975 110 975 110 1181.15 321.627 c 1,12,-1
 995 0 l 1,13,-1
 0 0 l 1,0,-1
EndSplineSet
Validated: 1
EndChar

StartChar: bracketleft
Encoding: 91 91 62
Width: 765
GlyphClass: 2
Flags: W
HStem: -297 115<397 715> 1695 120<397 715>
VStem: 200 197<-182 1695>
LayerCount: 2
Fore
SplineSet
200 -297 m 9,0,-1
 200 1815 l 17,1,-1
 715 1815 l 1,2,-1
 715 1695 l 1,3,-1
 397 1695 l 1,4,-1
 397 -182 l 1,5,-1
 715 -182 l 1,6,-1
 715 -297 l 1,7,-1
 200 -297 l 9,0,-1
EndSplineSet
Validated: 1
EndChar

StartChar: backslash
Encoding: 92 92 63
Width: 1045
GlyphClass: 2
Flags: W
DStem2: 137 1815 0 1751 0.406428 -0.913683<2.79503 2234.78>
LayerCount: 2
Fore
SplineSet
911 -297 m 1,0,-1
 0 1751 l 1,1,-1
 137 1815 l 1,2,-1
 1045 -227 l 1,3,-1
 911 -297 l 1,0,-1
EndSplineSet
Validated: 1
EndChar

StartChar: bracketright
Encoding: 93 93 64
Width: 765
GlyphClass: 2
Flags: W
HStem: -297 115<50 368> 1695 120<50 368>
VStem: 368 197<-182 1695>
LayerCount: 2
Fore
SplineSet
565 -297 m 17,0,-1
 50 -297 l 1,1,-1
 50 -182 l 1,2,-1
 368 -182 l 1,3,-1
 368 1695 l 1,4,-1
 50 1695 l 1,5,-1
 50 1815 l 1,6,-1
 565 1815 l 9,7,-1
 565 -297 l 17,0,-1
EndSplineSet
Validated: 1
EndChar

StartChar: asciicircum
Encoding: 94 94 65
Width: 1320
GlyphClass: 2
Flags: W
HStem: 1014 504 1080 21G<218 268.513>
DStem2: 150 1168 238 1080 0.83205 0.5547<24.4068 451.249> 675 1518 595 1314 0.81651 -0.577331<52.4546 563.689>
LayerCount: 2
Fore
SplineSet
150 1168 m 1,0,-1
 675 1518 l 1,1,-1
 1170 1168 l 1,2,-1
 1009 1014 l 1,3,-1
 595 1314 l 1,4,-1
 238 1080 l 1,5,-1
 150 1168 l 1,0,-1
EndSplineSet
Validated: 16385
EndChar

StartChar: underscore
Encoding: 95 95 66
Width: 1233
GlyphClass: 2
Flags: W
HStem: 0 197<200 1033>
LayerCount: 2
Fore
SplineSet
200 197 m 1,0,-1
 1033 197 l 1,1,-1
 1033 0 l 1,2,-1
 200 0 l 1,3,-1
 200 197 l 1,0,-1
EndSplineSet
Validated: 1
EndChar

StartChar: grave
Encoding: 96 96 67
Width: 800
GlyphClass: 2
Flags: W
HStem: 1148 388
VStem: 201 399
LayerCount: 2
Fore
SplineSet
580 1148 m 1,0,-1
 253 1331 l 2,1,-1
 236 1345 l 0,2,3
 205 1368 205 1368 201 1413 c 0,4,5
 200 1423 200 1423 200 1431 c 0,6,7
 200 1475 200 1475 229 1504 c 0,8,9
 261 1536 261 1536 305 1536 c 0,10,11
 319 1536 319 1536 334 1533 c 0,12,13
 372 1525 372 1525 398 1496 c 0,14,15
 409 1484 409 1484 412 1479 c 2,16,-1
 600 1169 l 1,17,-1
 580 1148 l 1,0,-1
EndSplineSet
Validated: 1
EndChar

StartChar: a
Encoding: 97 97 68
Width: 1198
GlyphClass: 2
Flags: W
HStem: -25 96<443.062 705.146> 1006 96<444.062 706.146>
VStem: 110 217<283.481 791.358> 770 198<195.285 881.684>
LayerCount: 2
Fore
SplineSet
327 542 m 0,0,1
 327 317 327 317 377 210 c 0,2,3
 442 71 442 71 555 71 c 16,4,5
 570 71 570 71 585 71 c 0,6,7
 668 71 668 71 745 148 c 1,8,-1
 755 163 l 1,9,10
 770 179 770 179 770 230 c 1,11,-1
 770 847 l 2,12,13
 770 898 770 898 756 914 c 1,14,-1
 746 929 l 1,15,16
 669 1006 669 1006 586 1006 c 0,17,18
 571 1006 571 1006 556 1006 c 8,19,20
 443 1006 443 1006 378 867 c 0,21,22
 327 758 327 758 327 542 c 0,0,1
110 551 m 0,23,24
 110 699 110 699 169 826 c 0,25,26
 228 954 228 954 331 1027 c 0,27,28
 437 1102 437 1102 569 1102 c 0,29,30
 684 1102 684 1102 852 1043 c 0,31,32
 1093 958 1093 958 1158 929 c 1,33,34
 1136 928 1136 928 1042 907 c 0,35,36
 1002 898 1002 898 981 882 c 0,37,38
 968 872 968 872 968 847 c 2,39,-1
 968 230 l 1,40,41
 968 204 968 204 980 195 c 0,42,43
 1001 179 1001 179 1041 170 c 0,44,45
 1135 149 1135 149 1157 148 c 1,46,47
 1092 119 1092 119 851 34 c 0,48,49
 683 -25 683 -25 568 -25 c 0,50,51
 436 -25 436 -25 330 50 c 0,52,53
 227 123 227 123 168 251 c 0,54,55
 110 376 110 376 110 551 c 0,23,24
EndSplineSet
Validated: 1
EndChar

StartChar: b
Encoding: 98 98 69
Width: 1198
GlyphClass: 2
Flags: W
HStem: -24 96<492.657 753.969> 981 122<488.368 750.251> 1516 20G<400.5 428>
VStem: 230 198<196.316 922.656 1033 1348.68> 870 218<286.533 784.787>
LayerCount: 2
Fore
SplineSet
642 72 m 0,0,1
 755 73 755 73 820 211 c 0,2,3
 870 318 870 318 870 543 c 0,4,5
 870 764 870 764 806 873 c 1,6,7
 741 980 741 980 618 981 c 0,8,9
 615 981 l 0,10,11
 510 981 510 981 457 902 c 0,12,13
 430 862 430 862 428 830 c 1,14,-1
 428 821 l 1,15,-1
 428 231 l 2,16,17
 428 180 428 180 442 164 c 1,18,-1
 452 149 l 1,19,20
 515 86 515 86 624 73 c 0,21,22
 633 72 633 72 642 72 c 0,0,1
40 149 m 1,23,24
 63 151 63 151 156 171 c 0,25,26
 196 180 196 180 217 196 c 0,27,28
 230 206 230 206 230 231 c 2,29,-1
 230 1314 l 2,30,31
 230 1339 230 1339 217 1349 c 0,32,33
 196 1366 196 1366 153 1374 c 0,34,35
 50 1395 50 1395 40 1396 c 1,36,37
 49 1400 49 1400 346 1510 c 0,38,39
 373 1520 373 1520 428 1536 c 1,40,-1
 428 1033 l 1,41,42
 527 1103 527 1103 644 1103 c 0,43,44
 766 1103 766 1103 867 1028 c 0,45,46
 967 954 967 954 1028 822 c 0,47,48
 1088 692 1088 692 1088 527 c 0,49,50
 1088 379 1088 379 1029 252 c 0,51,52
 969 122 969 122 867 51 c 0,53,54
 760 -24 760 -24 629 -24 c 0,55,56
 514 -24 514 -24 346 35 c 0,57,58
 97 122 97 122 40 149 c 1,23,24
EndSplineSet
Validated: 16385
EndChar

StartChar: c
Encoding: 99 99 70
Width: 1088
GlyphClass: 2
Flags: W
HStem: -25 114<466.986 731.948> 984 118<439.74 704.533>
VStem: 110 202<293.017 783.546> 700 260<627.285 817.212> 862 116<222.714 284.078>
LayerCount: 2
Fore
SplineSet
110 539 m 0,0,1
 110 691 110 691 170 822 c 128,-1,2
 230 953 230 953 331 1028 c 0,3,4
 430 1101 430 1101 554 1102 c 1,5,-1
 557 1102 l 2,6,7
 674 1102 674 1102 777 1028 c 0,8,9
 881 953 881 953 927 848 c 2,10,-1
 941 816 l 1,11,-1
 942 814 l 1,12,13
 960 765 960 765 960 722 c 0,14,15
 960 667 960 667 922 626 c 0,16,17
 885 586 885 586 830 586 c 0,18,19
 776 586 776 586 738 624.5 c 128,-1,20
 700 663 700 663 700 718 c 128,-1,21
 700 773 700 773 738 811 c 0,22,23
 761 834 761 834 789 844 c 1,24,25
 772 872 772 872 742 906 c 0,26,27
 681 975 681 975 584 984 c 1,28,-1
 582 984 l 2,29,30
 451 984 451 984 382 877 c 0,31,32
 312 768 312 768 312 542 c 2,33,-1
 312 538 l 2,34,35
 312 307 312 307 401.5 198 c 128,-1,36
 491 89 491 89 588 89 c 2,37,-1
 590 89 l 2,38,39
 712 89 712 89 799 196 c 0,40,41
 834 239 834 239 862 313 c 1,42,-1
 978 280 l 1,43,44
 975 267 975 267 971 257 c 0,45,46
 918 132 918 132 810 51 c 0,47,48
 709 -25 709 -25 572 -25 c 2,49,-1
 569 -25 l 2,50,51
 431 -25 431 -25 331 49.5 c 128,-1,52
 231 124 231 124 170 256 c 0,53,54
 110 386 110 386 110 539 c 0,0,1
EndSplineSet
Validated: 16385
EndChar

StartChar: d
Encoding: 100 100 71
Width: 1198
GlyphClass: 2
Flags: W
HStem: -24 96<446.934 704.607> 981 122<447.749 709.632> 1516 20G<942.5 968>
VStem: 110 218<286.533 784.787> 770 198<196.347 922.656 1033 1348.59>
LayerCount: 2
Fore
SplineSet
328 543 m 0,0,1
 328 318 328 318 378 211 c 0,2,3
 443 72 443 72 571 72 c 0,4,5
 668 72 668 72 746 149 c 1,6,-1
 756 164 l 1,7,8
 770 182 770 182 770 231 c 2,9,-1
 770 830 l 1,10,11
 768 862 768 862 741 902 c 0,12,13
 688 981 688 981 583 981 c 0,14,-1
 580 981 l 0,15,16
 457 980 457 980 392 873 c 1,17,18
 328 764 328 764 328 543 c 0,0,1
110 527 m 0,19,20
 110 692 110 692 170 822 c 0,21,22
 231 954 231 954 331 1028 c 0,23,24
 432 1103 432 1103 554 1103 c 0,25,26
 671 1103 671 1103 770 1033 c 1,27,-1
 770 1314 l 2,28,29
 770 1336 770 1336 757 1349 c 0,30,31
 745 1361 745 1361 691 1372 c 0,32,33
 636 1384 636 1384 580 1396 c 1,34,35
 643 1424 643 1424 886 1510 c 0,36,37
 917 1521 917 1521 968 1536 c 1,38,-1
 968 231 l 1,39,40
 969 207 969 207 981 196 c 0,41,42
 997 182 997 182 1042 171 c 0,43,44
 1124 151 1124 151 1158 149 c 1,45,46
 1097 121 1097 121 852 35 c 0,47,48
 684 -24 684 -24 562 -24 c 0,49,50
 558 -24 558 -24 554 -24 c 0,51,52
 437 -24 437 -24 331 51 c 0,53,54
 229 123 229 123 169 252 c 0,55,56
 110 379 110 379 110 527 c 0,19,20
EndSplineSet
Validated: 16385
EndChar

StartChar: e
Encoding: 101 101 72
Width: 1088
GlyphClass: 2
Flags: W
HStem: -24 114<459.813 732.409> 357 98<330.608 662.755> 987 115<437.25 683.225>
VStem: 110 205<459.138 784.161> 766 188<575.972 890.939> 862 116<221.102 284.202>
LayerCount: 2
Fore
SplineSet
110 539 m 0,0,1
 110 689 110 689 170 821 c 0,2,3
 229 951 229 951 331 1027 c 0,4,5
 432 1102 432 1102 554 1102 c 0,6,7
 670 1102 670 1102 773 1034 c 1,8,9
 848 993 848 993 907 895 c 0,10,11
 949 825 949 825 954 743 c 1,12,13
 953 566 953 566 795 453 c 0,14,15
 661 357 661 357 478 357 c 0,16,17
 476 357 476 357 335 365 c 1,18,19
 360 262 360 262 402 198 c 0,20,21
 473 90 473 90 588 90 c 2,22,-1
 590 90 l 2,23,24
 713 90 713 90 799 196 c 0,25,26
 834 239 834 239 862 314 c 1,27,-1
 978 280 l 1,28,29
 974 264 974 264 971 258 c 0,30,31
 887 104 887 104 810 52 c 1,32,33
 685 -24 685 -24 572 -24 c 2,34,-1
 569 -24 l 2,35,36
 432 -24 432 -24 331 50 c 128,-1,37
 230 124 230 124 170 256 c 128,-1,38
 110 388 110 388 110 539 c 0,0,1
766 744 m 0,39,40
 766 857 766 857 706 922 c 0,41,42
 654 979 654 979 562 987 c 1,43,-1
 560 987 l 2,44,45
 450 987 450 987 384 880 c 0,46,47
 334 798 334 798 322 676 c 0,48,49
 315 605 315 605 315 522 c 0,50,51
 315 494 315 494 319 457 c 1,52,53
 410 455 410 455 501 455 c 0,54,55
 548 455 548 455 568 460 c 0,56,57
 669 485 669 485 708 544 c 1,58,59
 766 641 766 641 766 744 c 0,39,40
EndSplineSet
Validated: 16385
EndChar

StartChar: f
Encoding: 102 102 73
Width: 1027
GlyphClass: 2
Flags: W
HStem: 0 21G<40 618> 748 102<428 650.903> 1433 103<493.393 821.568>
VStem: 230 198<140 748 850 1315.62> 767 260<1091.28 1274.81>
LayerCount: 2
Fore
SplineSet
40 0 m 1,0,1
 164 24 164 24 228 140 c 1,2,-1
 230 148 l 1,3,-1
 230 1281 l 2,4,5
 230 1304 230 1304 217 1316 c 0,6,7
 200 1331 200 1331 156 1341 c 0,8,9
 65 1362 65 1362 40 1363 c 1,10,11
 103 1392 103 1392 346 1477 c 0,12,13
 514 1536 514 1536 636 1536 c 0,14,15
 640 1536 640 1536 644 1536 c 0,16,17
 806 1536 806 1536 926 1424 c 1,18,19
 1027 1307 1027 1307 1027 1191 c 0,20,21
 1027 1188 1027 1188 1027 1186 c 0,22,23
 1027 1131 1027 1131 989 1090 c 0,24,25
 952 1050 952 1050 897 1050 c 128,-1,26
 842 1050 842 1050 805 1088 c 0,27,28
 767 1127 767 1127 767 1179 c 0,29,30
 767 1181 767 1181 767 1182 c 0,31,32
 767 1238 767 1238 805 1276 c 0,33,34
 841 1312 841 1312 891 1314 c 1,35,36
 882 1358 882 1358 792 1408 c 0,37,38
 766 1423 766 1423 672 1433 c 0,39,40
 663 1434 663 1434 651 1433 c 0,41,42
 528 1423 528 1423 471 1374 c 0,43,44
 464 1368 464 1368 442 1348 c 0,45,46
 428 1335 428 1335 428 1281 c 2,47,-1
 428 850 l 1,48,-1
 629 850 l 1,49,-1
 637 850 l 1,50,51
 763 857 763 857 826 926 c 1,52,-1
 647 632 l 1,53,54
 653 657 653 657 653 683 c 0,55,56
 653 748 653 748 582 748 c 0,57,58
 580 748 580 748 577 748 c 1,59,-1
 573 748 l 1,60,-1
 428 748 l 1,61,-1
 428 148 l 1,62,-1
 430 139 l 1,63,64
 484 28 484 28 618 0 c 1,65,-1
 40 0 l 1,0,1
EndSplineSet
Validated: 16385
EndChar

StartChar: h
Encoding: 104 104 74
Width: 1288
GlyphClass: 2
Flags: W
HStem: 0 21G<40 618 900 920> 980 122<479.138 752.712> 1516 20G<408 428>
VStem: 230 198<140 938.47 1025 1348.68> 900 198<162.316 781.698>
LayerCount: 2
Fore
SplineSet
40 0 m 1,0,1
 164 24 164 24 228 140 c 1,2,-1
 230 148 l 1,3,-1
 230 1314 l 2,4,5
 230 1339 230 1339 217 1349 c 0,6,7
 196 1365 196 1365 156 1374 c 0,8,9
 68 1394 68 1394 40 1396 c 1,10,11
 74 1411 74 1411 346 1510 c 0,12,13
 388 1525 388 1525 428 1536 c 9,14,-1
 428 1025 l 17,15,-1
 431 1027 l 2,16,17
 531 1102 531 1102 654 1102 c 0,18,19
 775 1102 775 1102 877 1027 c 0,20,21
 978 953 978 953 1038 821 c 128,-1,22
 1098 689 1098 689 1098 538 c 2,23,-1
 1098 532 l 1,24,-1
 1098 197 l 2,25,26
 1098 172 1098 172 1111 162 c 0,27,28
 1131 146 1131 146 1172 137 c 0,29,30
 1263 117 1263 117 1288 115 c 1,31,32
 1232 90 1232 90 982 1 c 0,33,34
 940 -14 940 -14 900 -25 c 1,35,-1
 900 534 l 1,36,-1
 900 538 l 2,37,38
 900 766 900 766 813 876 c 0,39,40
 731 980 731 980 616 980 c 0,41,42
 614 980 614 980 612 980 c 0,43,44
 485 980 485 980 428 888 c 1,45,-1
 428 148 l 1,46,-1
 430 139 l 1,47,48
 484 28 484 28 618 0 c 1,49,-1
 40 0 l 1,0,1
EndSplineSet
Validated: 1
EndChar

StartChar: i
Encoding: 105 105 75
Width: 658
GlyphClass: 2
Flags: W
HStem: 0 21G<40 618> 1082 20G<405.5 428> 1272 264<238.191 419.809>
VStem: 199 260<1311.71 1496.29> 230 198<140 914.684>
LayerCount: 2
Fore
SplineSet
40 962 m 1,0,1
 112 994 112 994 346 1076 c 0,2,3
 383 1089 383 1089 428 1102 c 1,4,-1
 428 148 l 1,5,-1
 430 139 l 1,6,7
 484 28 484 28 618 0 c 1,8,-1
 40 0 l 1,9,10
 164 24 164 24 228 140 c 1,11,-1
 230 148 l 1,12,-1
 230 880 l 2,13,14
 230 905 230 905 217 915 c 0,15,16
 196 932 196 932 150 941 c 0,17,18
 52 962 52 962 40 962 c 1,0,1
199 1404 m 128,-1,20
 199 1459 199 1459 237 1497.5 c 128,-1,21
 275 1536 275 1536 329 1536 c 128,-1,22
 383 1536 383 1536 421 1497.5 c 128,-1,23
 459 1459 459 1459 459 1404 c 128,-1,24
 459 1349 459 1349 421 1310.5 c 128,-1,25
 383 1272 383 1272 329 1272 c 128,-1,26
 275 1272 275 1272 237 1310.5 c 128,-1,19
 199 1349 199 1349 199 1404 c 128,-1,20
EndSplineSet
Validated: 16385
EndChar

StartChar: j
Encoding: 106 106 76
Width: 659
GlyphClass: 2
Flags: W
HStem: -433 21G<47 135> 1082 20G<405.5 428> 1272 264<238.191 419.809>
VStem: 199 260<1311.71 1496.29> 230 198<-182.907 914.684>
LayerCount: 2
Fore
SplineSet
199 1404 m 128,-1,1
 199 1459 199 1459 237 1497.5 c 128,-1,2
 275 1536 275 1536 329 1536 c 128,-1,3
 383 1536 383 1536 421 1497.5 c 128,-1,4
 459 1459 459 1459 459 1404 c 128,-1,5
 459 1349 459 1349 421 1310.5 c 128,-1,6
 383 1272 383 1272 329 1272 c 128,-1,7
 275 1272 275 1272 237 1310.5 c 128,-1,0
 199 1349 199 1349 199 1404 c 128,-1,1
40 962 m 1,8,9
 112 994 112 994 346 1076 c 0,10,11
 383 1089 383 1089 428 1102 c 1,12,-1
 428 27 l 1,13,-1
 428 19 l 2,14,15
 428 -316 428 -316 47 -432 c 1,16,-1
 40 -433 l 1,17,18
 230 -230 230 -230 230 19 c 2,19,-1
 230 27 l 1,20,-1
 230 880 l 2,21,22
 230 905 230 905 217 915 c 0,23,24
 197 932 197 932 153 940 c 0,25,26
 48 961 48 961 40 962 c 1,8,9
EndSplineSet
Validated: 1
EndChar

StartChar: l
Encoding: 108 108 77
Width: 658
GlyphClass: 2
Flags: W
HStem: 0 21G<40 618> 1516 20G<406 428>
VStem: 230 198<140 1348.68>
LayerCount: 2
Fore
SplineSet
40 1396 m 1,0,1
 91 1418 91 1418 346 1510 c 0,2,3
 384 1524 384 1524 428 1536 c 1,4,-1
 428 148 l 1,5,-1
 430 139 l 1,6,7
 484 28 484 28 618 0 c 1,8,-1
 40 0 l 1,9,10
 164 24 164 24 228 140 c 1,11,-1
 230 148 l 1,12,-1
 230 1314 l 2,13,14
 230 1339 230 1339 217 1349 c 0,15,16
 198 1365 198 1365 154 1374 c 0,17,18
 49 1395 49 1395 40 1396 c 1,0,1
EndSplineSet
Validated: 1
EndChar

StartChar: m
Encoding: 109 109 78
Width: 1957
GlyphClass: 2
Flags: W
HStem: 0 21G<40 618 710 1288 1569 1590.5> 980 122<483.804 752.712 1137.21 1414.36>
VStem: 230 198<140 914.684> 900 197<148 804.791> 1569 198<162.316 783.258>
CounterMasks: 1 38
LayerCount: 2
Fore
SplineSet
40 0 m 1,0,1
 164 24 164 24 228 140 c 1,2,-1
 230 148 l 1,3,-1
 230 880 l 2,4,5
 230 905 230 905 217 915 c 0,6,7
 195 932 195 932 156 940 c 0,8,9
 49 961 49 961 40 962 c 1,10,11
 91 984 91 984 346 1076 c 0,12,13
 385 1090 385 1090 428 1102 c 1,14,-1
 428 1025 l 1,15,-1
 431 1027 l 2,16,17
 544 1102 544 1102 654 1102 c 0,18,19
 775 1102 775 1102 877 1027 c 0,20,21
 937 983 937 983 982 919 c 1,22,23
 1075 1019 1075 1019 1130 1056 c 1,24,25
 1201 1102 1201 1102 1318 1102 c 0,26,27
 1320 1102 1320 1102 1323 1102 c 0,28,29
 1451 1102 1451 1102 1546 1027 c 0,30,31
 1651 944 1651 944 1707 821 c 0,32,33
 1767 688 1767 688 1767 538 c 2,34,-1
 1767 532 l 1,35,-1
 1767 197 l 2,36,37
 1767 172 1767 172 1780 162 c 0,38,39
 1802 145 1802 145 1841 137 c 0,40,41
 1948 116 1948 116 1957 115 c 1,42,43
 1924 100 1924 100 1651 1 c 0,44,45
 1612 -13 1612 -13 1569 -25 c 1,46,-1
 1569 534 l 1,47,-1
 1569 538 l 2,48,49
 1569 770 1569 770 1482 876 c 0,50,51
 1397 980 1397 980 1258 980 c 16,52,53
 1154 980 1154 980 1097 888 c 1,54,-1
 1097 148 l 9,55,-1
 1100 139 l 17,56,57
 1154 28 1154 28 1288 0 c 1,58,-1
 710 0 l 1,59,60
 834 24 834 24 898 140 c 1,61,-1
 900 148 l 1,62,-1
 900 532 l 1,63,-1
 900 534 l 1,64,-1
 900 538 l 2,65,66
 900 766 900 766 813 876 c 0,67,68
 731 980 731 980 616 980 c 0,69,70
 614 980 614 980 612 980 c 0,71,72
 485 980 485 980 428 888 c 1,73,-1
 428 148 l 1,74,-1
 430 139 l 1,75,76
 484 28 484 28 618 0 c 1,77,-1
 40 0 l 1,0,1
EndSplineSet
Validated: 16385
EndChar

StartChar: n
Encoding: 110 110 79
Width: 1288
GlyphClass: 2
Flags: W
HStem: 0 21G<40 618 900 920> 980 122<479.138 752.712>
VStem: 230 198<140 914.684> 900 198<162.316 781.698>
LayerCount: 2
Fore
SplineSet
40 0 m 1,0,1
 164 24 164 24 228 140 c 1,2,-1
 230 148 l 1,3,-1
 230 880 l 2,4,5
 230 905 230 905 217 915 c 0,6,7
 197 931 197 931 156 940 c 0,8,9
 65 960 65 960 40 962 c 1,10,11
 74 977 74 977 346 1076 c 0,12,13
 388 1091 388 1091 428 1102 c 1,14,-1
 428 1025 l 1,15,-1
 431 1027 l 2,16,17
 531 1102 531 1102 654 1102 c 0,18,19
 775 1102 775 1102 877 1027 c 0,20,21
 978 953 978 953 1038 821 c 128,-1,22
 1098 689 1098 689 1098 538 c 2,23,-1
 1098 532 l 1,24,-1
 1098 197 l 2,25,26
 1098 172 1098 172 1111 162 c 0,27,28
 1131 146 1131 146 1172 137 c 0,29,30
 1263 117 1263 117 1288 115 c 1,31,32
 1232 90 1232 90 982 1 c 0,33,34
 940 -14 940 -14 900 -25 c 1,35,-1
 900 534 l 1,36,-1
 900 538 l 2,37,38
 900 766 900 766 813 876 c 0,39,40
 731 980 731 980 616 980 c 0,41,42
 614 980 614 980 612 980 c 0,43,44
 485 980 485 980 428 888 c 1,45,-1
 428 148 l 1,46,-1
 430 139 l 1,47,48
 484 28 484 28 618 0 c 1,49,-1
 40 0 l 1,0,1
EndSplineSet
Validated: 16385
EndChar

StartChar: o
Encoding: 111 111 80
Width: 1108
GlyphClass: 2
Flags: W
HStem: -25 96<445.82 664.654> 980 122<441.414 656.238>
VStem: 110 218<285.95 783.787> 788 210<292.998 781.387>
LayerCount: 2
Fore
SplineSet
328 542 m 0,0,1
 328 319 328 319 378 210 c 0,2,3
 442 71 442 71 563 71 c 0,4,5
 671 71 671 71 734 228 c 0,6,7
 786 358 786 358 788 534 c 0,8,-1
 788 538 l 0,9,10
 788 746 788 746 708 874 c 0,11,12
 642 980 642 980 553 980 c 0,13,14
 552 980 552 980 550 980 c 0,15,16
 455 980 455 980 392 872 c 1,17,18
 328 763 328 763 328 542 c 0,0,1
110 526 m 0,19,20
 110 691 110 691 170 821 c 0,21,22
 231 953 231 953 331 1027 c 0,23,24
 432 1102 432 1102 554 1102 c 0,25,26
 675 1102 675 1102 777 1027 c 0,27,28
 878 953 878 953 938 821 c 128,-1,29
 998 689 998 689 998 538 c 0,30,31
 998 386 998 386 938 256 c 128,-1,32
 878 126 878 126 777 50 c 0,33,34
 677 -25 677 -25 554 -25 c 0,35,36
 437 -25 437 -25 331 50 c 0,37,38
 229 122 229 122 169 251 c 0,39,40
 110 378 110 378 110 526 c 0,19,20
EndSplineSet
Validated: 16385
EndChar

StartChar: p
Encoding: 112 112 81
Width: 1198
GlyphClass: 2
Flags: W
HStem: -433 21G<40 618> -25 122<488.368 750.251> 1006 96<493.393 751.066>
VStem: 230 198<-293 45 155.344 881.653> 870 218<293.213 791.467>
LayerCount: 2
Fore
SplineSet
870 535 m 0,0,1
 870 760 870 760 820 867 c 0,2,3
 755 1006 755 1006 627 1006 c 0,4,5
 530 1006 530 1006 452 929 c 1,6,-1
 442 914 l 1,7,8
 428 898 428 898 428 847 c 2,9,-1
 428 257 l 1,10,-1
 428 248 l 1,11,12
 430 216 430 216 457 176 c 0,13,14
 510 97 510 97 615 97 c 0,15,16
 617 97 617 97 618 97 c 0,17,18
 740 97 740 97 806 205 c 1,19,20
 870 314 870 314 870 535 c 0,0,1
40 -433 m 1,21,22
 164 -409 164 -409 228 -293 c 1,23,-1
 230 -285 l 1,24,-1
 230 847 l 2,25,26
 230 871 230 871 217 882 c 0,27,28
 199 898 199 898 156 907 c 0,29,30
 66 927 66 927 40 929 c 1,31,32
 105 958 105 958 346 1043 c 0,33,34
 514 1102 514 1102 636 1102 c 0,35,36
 640 1102 640 1102 644 1102 c 0,37,38
 761 1102 761 1102 867 1027 c 0,39,40
 969 955 969 955 1029 826 c 0,41,42
 1088 699 1088 699 1088 551 c 0,43,44
 1088 386 1088 386 1028 256 c 0,45,46
 967 124 967 124 867 50 c 0,47,48
 766 -25 766 -25 644 -25 c 0,49,50
 527 -25 527 -25 428 45 c 1,51,-1
 428 -285 l 1,52,-1
 430 -294 l 1,53,54
 484 -405 484 -405 618 -433 c 1,55,-1
 40 -433 l 1,21,22
EndSplineSet
Validated: 16385
EndChar

StartChar: q
Encoding: 113 113 82
Width: 1198
GlyphClass: 2
Flags: W
HStem: -433 21G<580 1158> -25 122<447.726 710.597> 1006 96<447.225 706>
VStem: 110 218<293.213 791.467> 770 198<-293 45 155.344 881.684>
LayerCount: 2
Fore
SplineSet
328 535 m 0,0,1
 328 314 328 314 392 205 c 1,2,3
 458 97 458 97 588 97 c 0,4,5
 688 97 688 97 741 176 c 0,6,7
 768 216 768 216 770 248 c 1,8,-1
 770 257 l 1,9,-1
 770 847 l 2,10,11
 770 898 770 898 756 914 c 1,12,-1
 746 929 l 1,13,14
 668 1006 668 1006 574 1006 c 0,15,16
 565 1006 565 1006 556 1006 c 0,17,18
 441 1002 441 1002 378 867 c 0,19,20
 328 760 328 760 328 535 c 0,0,1
110 551 m 0,21,22
 110 699 110 699 169 826 c 0,23,24
 228 954 228 954 331 1027 c 0,25,26
 437 1102 437 1102 569 1102 c 0,27,28
 684 1102 684 1102 852 1043 c 0,29,30
 1093 958 1093 958 1158 929 c 1,31,32
 1136 928 1136 928 1042 907 c 0,33,34
 1002 898 1002 898 981 882 c 0,35,36
 968 872 968 872 968 847 c 2,37,-1
 968 -285 l 1,38,-1
 970 -293 l 1,39,40
 1034 -409 1034 -409 1158 -433 c 1,41,-1
 580 -433 l 1,42,43
 714 -405 714 -405 768 -294 c 1,44,-1
 770 -285 l 1,45,-1
 770 45 l 1,46,47
 671 -25 671 -25 554 -25 c 0,48,49
 432 -25 432 -25 331 50 c 0,50,51
 231 124 231 124 170 256 c 0,52,53
 110 386 110 386 110 551 c 0,21,22
EndSplineSet
Validated: 16385
EndChar

StartChar: r
Encoding: 114 114 83
Width: 1026
GlyphClass: 2
Flags: W
HStem: 0 21G<40 618> 1000 102<497.958 820.8>
VStem: 230 198<140 881.653> 766 260<657.285 840.839>
LayerCount: 2
Fore
SplineSet
40 0 m 1,0,1
 164 24 164 24 228 140 c 1,2,-1
 230 148 l 1,3,-1
 230 847 l 2,4,5
 230 871 230 871 217 882 c 0,6,7
 199 898 199 898 156 907 c 0,8,9
 66 927 66 927 40 929 c 1,10,11
 109 960 109 960 346 1043 c 0,12,13
 514 1102 514 1102 636 1102 c 0,14,15
 640 1102 640 1102 644 1102 c 8,16,17
 806 1102 806 1102 926 990 c 1,18,19
 1026 874 1026 874 1026 757 c 0,20,21
 1026 754 1026 754 1026 752 c 0,22,23
 1026 697 1026 697 988 656 c 0,24,25
 951 616 951 616 896 616 c 128,-1,26
 841 616 841 616 804 654 c 0,27,28
 766 693 766 693 766 745 c 0,29,30
 766 747 766 747 766 748 c 0,31,32
 766 805 766 805 804 842 c 0,33,34
 841 878 841 878 890 880 c 1,35,36
 883 921 883 921 792 974 c 0,37,38
 747 1000 747 1000 675 1000 c 0,39,40
 663 1000 663 1000 651 999 c 8,41,42
 542 990 542 990 471 940 c 1,43,44
 466 937 466 937 442 914 c 0,45,46
 428 901 428 901 428 847 c 2,47,-1
 428 148 l 1,48,-1
 430 139 l 1,49,50
 484 28 484 28 618 0 c 1,51,-1
 40 0 l 1,0,1
EndSplineSet
Validated: 16385
EndChar

StartChar: s
Encoding: 115 115 84
Width: 1006
GlyphClass: 2
Flags: W
HStem: -25 98<345 664.657> 1001 101<395.499 646.09>
VStem: 90 260<161.769 354.293> 164 177<710.047 937.291> 591 260<768.223 952.808> 733 183<153.636 401.314>
DStem2: 663 624 360 514 0.959365 -0.282166<-339.185 126.291>
LayerCount: 2
Fore
SplineSet
90 262 m 0,0,1
 90 317 90 317 128 355.5 c 128,-1,2
 166 394 166 394 220 394 c 128,-1,3
 274 394 274 394 312 355.5 c 128,-1,4
 350 317 350 317 350 262 c 0,5,6
 350 211 350 211 312 168 c 0,7,8
 304 159 304 159 294 151 c 1,9,-1
 306 141 l 1,10,11
 396 73 396 73 515 73 c 0,12,13
 516 73 516 73 518 73 c 0,14,15
 613 73 613 73 675 123 c 0,16,17
 729 167 729 167 733 276 c 1,18,-1
 733 295 l 1,19,20
 728 402 728 402 632 434 c 1,21,-1
 360 514 l 2,22,23
 207 559 207 559 168 731 c 1,24,25
 164 761 164 761 164 790 c 0,26,27
 164 889 164 889 243 986 c 0,28,29
 338 1102 338 1102 508 1102 c 0,30,31
 667 1102 667 1102 779 996 c 0,32,33
 816 961 816 961 836 924 c 0,34,35
 851 896 851 896 851 860 c 0,36,37
 851 806 851 806 813 767 c 128,-1,38
 775 728 775 728 721 728 c 128,-1,39
 667 728 667 728 629 767 c 128,-1,40
 591 806 591 806 591 861 c 128,-1,41
 591 916 591 916 629 954 c 1,42,-1
 648 967 l 1,43,44
 587 1001 587 1001 509 1001 c 2,45,-1
 506 1001 l 1,46,47
 439 996 439 996 385 951 c 1,48,49
 341 905 341 905 341 820 c 0,50,51
 341 813 341 813 341 806 c 0,52,53
 341 722 341 722 426 686 c 1,54,-1
 663 624 l 1,55,56
 767 586 767 586 818 542 c 0,57,58
 914 459 914 459 916 293 c 1,59,60
 906 170 906 170 806 66 c 1,61,62
 717 -25 717 -25 513 -25 c 0,63,64
 334 -25 334 -25 199 91 c 0,65,66
 129 152 129 152 107 195 c 0,67,68
 101 207 101 207 98 215 c 0,69,70
 90 236 90 236 90 262 c 0,0,1
EndSplineSet
Validated: 16385
EndChar

StartChar: t
Encoding: 116 116 85
Width: 920
GlyphClass: 2
Flags: W
HStem: 0 21G<170 748> 924 102<125.097 360 558 794.903> 1082 20G<938.5 957.823> 1516 20G<536 558>
VStem: 360 198<140 924 1026 1348.62>
LayerCount: 2
Fore
SplineSet
-50 848 m 1,0,-1
 129 1142 l 1,1,2
 123 1117 123 1117 123 1091 c 0,3,4
 123 1026 123 1026 194 1026 c 0,5,6
 196 1026 196 1026 199 1026 c 1,7,-1
 203 1026 l 1,8,-1
 360 1026 l 1,9,-1
 360 1314 l 2,10,11
 360 1337 360 1337 347 1349 c 0,12,13
 332 1363 332 1363 282 1373 c 0,14,15
 226 1384 226 1384 170 1396 c 1,16,17
 261 1436 261 1436 476 1510 c 0,18,19
 514 1523 514 1523 558 1536 c 1,20,-1
 558 1026 l 1,21,-1
 773 1026 l 1,22,-1
 781 1026 l 1,23,24
 907 1033 907 1033 970 1102 c 1,25,-1
 791 808 l 1,26,27
 797 833 797 833 797 859 c 0,28,29
 797 924 797 924 726 924 c 0,30,31
 724 924 724 924 721 924 c 1,32,-1
 717 924 l 1,33,-1
 558 924 l 1,34,-1
 558 148 l 1,35,-1
 560 139 l 1,36,37
 614 28 614 28 748 0 c 1,38,-1
 170 0 l 1,39,40
 294 24 294 24 358 140 c 1,41,-1
 360 148 l 1,42,-1
 360 924 l 1,43,-1
 147 924 l 1,44,-1
 139 924 l 1,45,46
 13 917 13 917 -50 848 c 1,0,-1
EndSplineSet
Validated: 1
EndChar

StartChar: u
Encoding: 117 117 86
Width: 1288
GlyphClass: 2
Flags: W
HStem: -25 122<535.288 808.862> 1057 20G<368 388 670 1248>
VStem: 190 198<295.302 914.684> 860 198<162.316 937>
LayerCount: 2
Fore
SplineSet
1248 1077 m 1,0,1
 1124 1053 1124 1053 1060 937 c 1,2,-1
 1058 929 l 1,3,-1
 1058 197 l 2,4,5
 1058 172 1058 172 1071 162 c 0,6,7
 1091 146 1091 146 1132 137 c 0,8,9
 1223 117 1223 117 1248 115 c 1,10,11
 1192 90 1192 90 942 1 c 0,12,13
 900 -14 900 -14 860 -25 c 1,14,-1
 860 52 l 1,15,-1
 857 50 l 2,16,17
 757 -25 757 -25 634 -25 c 0,18,19
 513 -25 513 -25 411 50 c 0,20,21
 310 124 310 124 250 256 c 128,-1,22
 190 388 190 388 190 539 c 2,23,-1
 190 545 l 1,24,-1
 190 880 l 2,25,26
 190 905 190 905 177 915 c 0,27,28
 156 931 156 931 116 940 c 0,29,30
 28 960 28 960 0 962 c 1,31,32
 56 987 56 987 306 1076 c 0,33,34
 348 1091 348 1091 388 1102 c 1,35,-1
 388 543 l 1,36,-1
 388 539 l 2,37,38
 388 311 388 311 475 201 c 0,39,40
 557 97 557 97 672 97 c 0,41,42
 674 97 674 97 676 97 c 0,43,44
 803 97 803 97 860 189 c 1,45,-1
 860 929 l 1,46,-1
 858 938 l 1,47,48
 804 1049 804 1049 670 1077 c 1,49,-1
 1248 1077 l 1,0,1
EndSplineSet
Validated: 1
EndChar

StartChar: braceleft
Encoding: 123 123 87
Width: 776
GlyphClass: 2
Flags: W
HStem: -272 83<532.468 726> 1703 84<535.17 726>
VStem: 250 195<-48.2852 660.017 844.164 1557.12>
LayerCount: 2
Fore
SplineSet
50 753 m 25,0,1
 73 765 73 765 120 787 c 0,2,3
 250 848 250 848 250 941 c 0,4,-1
 250 947 l 17,5,-1
 251 1373 l 0,6,7
 251 1542 251 1542 372 1664 c 0,8,9
 494 1787 494 1787 655 1787 c 0,10,-1
 663 1787 l 0,11,12
 696 1784 696 1784 726 1778 c 1,13,-1
 726 1695 l 1,14,15
 697 1703 697 1703 663 1703 c 0,16,17
 576 1703 576 1703 515 1647 c 0,18,19
 445 1584 445 1584 445 1388 c 0,20,-1
 446 947 l 9,21,-1
 446 938 l 0,22,23
 446 822 446 822 286 760 c 16,24,-1
 267 753 l 17,25,-1
 286 749 l 0,26,27
 443 711 443 711 445 568 c 0,28,29
 445 562 445 562 445 556 c 1,30,-1
 444 126 l 0,31,32
 444 -70 444 -70 514 -133 c 0,33,34
 576 -189 576 -189 662 -189 c 0,35,36
 696 -189 696 -189 726 -181 c 9,37,-1
 726 -266 l 17,38,39
 692 -272 692 -272 657 -272 c 0,40,41
 514 -272 514 -272 377 -150 c 0,42,43
 250 -37 250 -37 250 136 c 0,44,-1
 250 141 l 0,45,-1
 251 238 l 0,46,-1
 250 556 l 9,47,-1
 250 563 l 0,48,49
 250 655 250 655 120 719 c 0,50,51
 68 745 68 745 50 753 c 25,0,1
EndSplineSet
Validated: 1
EndChar

StartChar: bar
Encoding: 124 124 88
Width: 555
GlyphClass: 2
Flags: W
VStem: 200 154<-297 1815>
LayerCount: 2
Fore
SplineSet
200 -297 m 1,0,-1
 200 1815 l 1,1,-1
 355 1815 l 1,2,-1
 354 -297 l 1,3,-1
 200 -297 l 1,0,-1
EndSplineSet
Validated: 1
EndChar

StartChar: braceright
Encoding: 125 125 89
Width: 776
GlyphClass: 2
Flags: W
HStem: -272 83<50 243.532> 1703 84<50 240.83>
VStem: 331 195<-48.2852 660.017 844.164 1557.12>
LayerCount: 2
Fore
SplineSet
726 753 m 25,0,1
 708 745 708 745 656 719 c 0,2,3
 526 655 526 655 526 563 c 0,4,-1
 526 556 l 17,5,-1
 525 238 l 0,6,-1
 526 141 l 0,7,-1
 526 136 l 0,8,9
 526 -37 526 -37 399 -150 c 0,10,11
 262 -272 262 -272 119 -272 c 0,12,13
 84 -272 84 -272 50 -266 c 9,14,-1
 50 -181 l 17,15,16
 80 -189 80 -189 114 -189 c 0,17,18
 200 -189 200 -189 262 -133 c 0,19,20
 332 -70 332 -70 332 126 c 0,21,-1
 331 556 l 1,22,23
 331 562 331 562 331 568 c 0,24,25
 333 711 333 711 490 749 c 0,26,27
 509 753 l 9,28,-1
 490 760 l 8,29,30
 330 822 330 822 330 938 c 0,31,-1
 330 947 l 17,32,-1
 331 1388 l 0,33,34
 331 1584 331 1584 261 1647 c 0,35,36
 200 1703 200 1703 113 1703 c 0,37,38
 79 1703 79 1703 50 1695 c 1,39,-1
 50 1778 l 1,40,41
 80 1784 80 1784 113 1787 c 0,42,-1
 121 1787 l 0,43,44
 282 1787 282 1787 404 1664 c 0,45,46
 525 1542 525 1542 525 1373 c 0,47,-1
 526 947 l 9,48,-1
 526 941 l 0,49,50
 526 848 526 848 656 787 c 0,51,52
 703 765 703 765 726 753 c 25,0,1
EndSplineSet
Validated: 1
EndChar

StartChar: asciitilde
Encoding: 126 126 90
Width: 1430
GlyphClass: 2
Flags: W
HStem: 714 184<356.733 591.125>
DStem2: 757 813 548 690 0.896975 -0.442081<-268.323 253.466>
LayerCount: 2
Fore
SplineSet
200 614 m 1,0,1
 296 898 296 898 499 898 c 0,2,3
 523 898 523 898 547 894 c 0,4,5
 610 883 610 883 757 813 c 1,6,-1
 897 744 l 0,7,8
 939 719 939 719 995 719 c 0,9,10
 1094 719 1094 719 1230 844 c 1,11,12
 1143 550 1143 550 936 538 c 0,13,14
 918 537 918 537 898 540 c 0,15,16
 834 550 834 550 686 624 c 1,17,-1
 548 690 l 0,18,19
 502 713 502 713 447 714 c 0,20,-1
 445 714 l 0,21,22
 342 714 342 714 200 614 c 1,0,1
EndSplineSet
Validated: 16385
EndChar

StartChar: exclamdown
Encoding: 161 161 92
Width: 660
GlyphClass: 2
Flags: W
HStem: -25 21G<303 357> 1272 264<239.191 420.809>
VStem: 200 260<14.7072 129 1311.71 1496.29>
LayerCount: 2
Fore
SplineSet
200 1404 m 128,-1,1
 200 1459 200 1459 238 1497.5 c 128,-1,2
 276 1536 276 1536 330 1536 c 128,-1,3
 384 1536 384 1536 422 1497.5 c 128,-1,4
 460 1459 460 1459 460 1404 c 128,-1,5
 460 1349 460 1349 422 1310.5 c 128,-1,6
 384 1272 384 1272 330 1272 c 128,-1,7
 276 1272 276 1272 238 1310.5 c 128,-1,0
 200 1349 200 1349 200 1404 c 128,-1,1
280 1199 m 1,8,-1
 378 1199 l 1,9,-1
 458 129 l 2,10,11
 460 107 460 107 460 107 c 0,12,13
 460 52 460 52 422 13.5 c 128,-1,14
 384 -25 384 -25 330 -25 c 128,-1,15
 276 -25 276 -25 238 13.5 c 128,-1,16
 200 52 200 52 200 107 c 0,17,18
 200 118 200 118 202 129 c 2,19,-1
 280 1199 l 1,8,-1
EndSplineSet
Validated: 16385
EndChar

StartChar: cent
Encoding: 162 162 93
Width: 1128
GlyphClass: 2
Flags: W
HStem: -23 113<638 751.906>
VStem: 130 202<293.481 784.467> 484 154<-298 -16.3857 136 956 1086.74 1344> 720 260<627.285 817.212> 882 116<222.714 284.078>
LayerCount: 2
Fore
SplineSet
130 539 m 128,-1,1
 130 691 130 691 190 822 c 128,-1,2
 250 953 250 953 351 1028 c 0,3,4
 413 1073 413 1073 484 1091 c 1,5,-1
 484 1344 l 1,6,-1
 639 1344 l 1,7,-1
 639 1097 l 1,8,9
 722 1082 722 1082 797 1028 c 0,10,11
 901 953 901 953 947 848 c 2,12,-1
 961 816 l 1,13,-1
 962 814 l 1,14,15
 980 765 980 765 980 722 c 0,16,17
 980 667 980 667 942 626 c 0,18,19
 905 586 905 586 850 586 c 128,-1,20
 795 586 795 586 758 624 c 0,21,22
 720 663 720 663 720 718 c 128,-1,23
 720 773 720 773 758 811 c 0,24,25
 781 834 781 834 809 844 c 1,26,27
 792 871 792 871 762 906 c 0,28,29
 714 962 714 962 639 979 c 1,30,-1
 638 90 l 1,31,32
 742 102 742 102 819 196 c 0,33,34
 854 238 854 238 882 313 c 1,35,-1
 998 280 l 1,36,37
 995 266 995 266 991 257 c 0,38,39
 938 132 938 132 830 51 c 0,40,41
 746 -12 746 -12 638 -23 c 1,42,-1
 638 -298 l 1,43,-1
 484 -298 l 1,44,-1
 484 -13 l 1,45,46
 411 5 411 5 351 50 c 0,47,48
 251 123 251 123 190 256 c 0,49,0
 130 387 130 387 130 539 c 128,-1,1
484 136 m 1,50,-1
 484 956 l 1,51,52
 436 929 436 929 402 877 c 0,53,54
 332 770 332 770 332 542 c 2,55,-1
 332 538 l 2,56,57
 332 310 332 310 422 198 c 0,58,59
 452 160 452 160 484 136 c 1,50,-1
EndSplineSet
Validated: 16385
EndChar

StartChar: sterling
Encoding: 163 163 94
Width: 1311
GlyphClass: 2
Flags: W
HStem: 0 102<518 1034> 598 197<155 321 519 988> 1437 99<591.125 837.405>
VStem: 321 198<140 598 795 1343.6> 796 260<1202.22 1392.92>
LayerCount: 2
Fore
SplineSet
130 0 m 1,0,1
 254 24 254 24 318 140 c 1,2,-1
 320 148 l 1,3,-1
 321 598 l 1,4,-1
 155 598 l 1,5,-1
 155 795 l 1,6,-1
 321 795 l 1,7,-1
 321 1164 l 1,8,-1
 321 1174 l 1,9,10
 325 1329 325 1329 433 1432 c 0,11,12
 542 1536 542 1536 707 1536 c 0,13,14
 710 1536 710 1536 713 1536 c 0,15,16
 872 1536 872 1536 984 1430 c 0,17,18
 1021 1395 1021 1395 1041 1358 c 0,19,20
 1056 1330 1056 1330 1056 1294 c 0,21,22
 1056 1240 1056 1240 1018 1201 c 128,-1,23
 980 1162 980 1162 926 1162 c 128,-1,24
 872 1162 872 1162 834 1201 c 128,-1,25
 796 1240 796 1240 796 1295 c 128,-1,26
 796 1350 796 1350 834 1388 c 1,27,-1
 839 1393 l 1,28,29
 788 1437 788 1437 733 1437 c 0,30,-1
 731 1437 l 0,31,32
 652 1437 652 1437 600 1401 c 0,33,34
 524 1348 524 1348 520 1224 c 0,35,36
 519 1195 519 1195 519 1164 c 2,37,-1
 519 795 l 1,38,-1
 988 795 l 1,39,-1
 988 598 l 1,40,-1
 519 598 l 1,41,-1
 518 102 l 1,42,-1
 1020 102 l 1,43,-1
 1034 103 l 1,44,45
 1105 110 1105 110 1311 322 c 1,46,-1
 1125 0 l 1,47,-1
 130 0 l 1,0,1
EndSplineSet
Validated: 16385
EndChar

StartChar: currency
Encoding: 164 164 95
Width: 1555
GlyphClass: 2
Flags: W
HStem: 226 122<639.921 905.37> 1149 137<637.165 911.372>
VStem: 259 240<539.192 974.047> 1057 239<538.739 972.329>
DStem2: 339 1315 200 1176 0.707107 -0.707107<0 193.57 1211.13 1436.84> 200 299 339 160 0.707107 0.707107<0 225.977 1243.13 1436.84>
LayerCount: 2
Fore
SplineSet
499 756 m 0,0,1
 499 533 499 533 568 459 c 1,2,3
 662 348 662 348 772 348 c 0,4,5
 886 348 886 348 976 459 c 0,6,7
 1057 559 1057 559 1057 752 c 2,8,-1
 1057 755 l 1,9,10
 1056 925 1056 925 979 1035 c 0,11,12
 899 1149 899 1149 764 1149 c 0,13,14
 669 1149 669 1149 585 1060 c 0,15,16
 499 969 499 969 499 756 c 0,0,1
1355 299 m 1,17,-1
 1216 160 l 1,18,-1
 1063 313 l 1,19,20
 937 226 937 226 776 226 c 0,21,22
 617 226 617 226 493 313 c 1,23,-1
 339 160 l 1,24,-1
 200 299 l 1,25,-1
 353 452 l 1,26,27
 259 585 259 585 259 756 c 0,28,29
 259 913 259 913 338 1038 c 1,30,-1
 200 1176 l 1,31,-1
 339 1315 l 1,32,-1
 471 1183 l 1,33,34
 604 1286 604 1286 778 1286 c 0,35,36
 950 1286 950 1286 1084 1183 c 1,37,-1
 1216 1315 l 1,38,-1
 1355 1176 l 1,39,-1
 1217 1038 l 1,40,41
 1295 914 1295 914 1296 754 c 1,42,-1
 1296 749 l 2,43,44
 1296 584 1296 584 1202 452 c 1,45,-1
 1355 299 l 1,17,-1
EndSplineSet
Validated: 16385
EndChar

StartChar: yen
Encoding: 165 165 96
Width: 1420
GlyphClass: 2
Flags: W
HStem: 0 21G<420 998> 294 197<283 610 808 1116> 642 197<284 428 808 893 982 1117> 1511 0 1511 0
VStem: 610 198<140 294 491 642>
DStem2: 372 1363 170 1363 0.438424 -0.898768<-24.8529 495.506>
LayerCount: 2
Fore
SplineSet
420 0 m 1,0,1
 544 24 544 24 608 140 c 1,2,-1
 610 148 l 1,3,-1
 610 294 l 1,4,-1
 283 294 l 1,5,-1
 283 491 l 1,6,-1
 610 491 l 1,7,-1
 610 642 l 9,8,-1
 283 642 l 17,9,-1
 284 839 l 1,10,-1
 428 839 l 1,11,-1
 170 1363 l 1,12,-1
 169 1366 l 1,13,-1
 166 1375 l 1,14,15
 102 1487 102 1487 -20 1511 c 1,16,-1
 558 1511 l 1,17,18
 364 1442 364 1442 364 1387 c 0,19,20
 364 1379 364 1379 368 1372 c 1,21,-1
 372 1363 l 1,22,-1
 628 839 l 1,23,-1
 893 839 l 1,24,-1
 1155 1363 l 1,25,-1
 1159 1372 l 1,26,27
 1163 1379 1163 1379 1163 1387 c 0,28,29
 1162 1442 1162 1442 969 1511 c 1,30,-1
 1440 1511 l 1,31,32
 1317 1487 1317 1487 1253 1371 c 1,33,-1
 1250 1363 l 1,34,-1
 982 839 l 1,35,-1
 1117 839 l 1,36,-1
 1117 642 l 9,37,-1
 808 642 l 17,38,-1
 808 491 l 1,39,-1
 1116 491 l 1,40,-1
 1116 294 l 1,41,-1
 808 294 l 1,42,-1
 808 148 l 1,43,-1
 810 139 l 1,44,45
 864 28 864 28 998 0 c 1,46,-1
 420 0 l 1,0,1
EndSplineSet
Validated: 1
EndChar

StartChar: brokenbar
Encoding: 166 166 97
Width: 555
GlyphClass: 2
Flags: W
VStem: 200 154<-297 661 850 1815>
LayerCount: 2
Fore
SplineSet
200 -297 m 1,0,-1
 200 661 l 9,1,-1
 354.466 661 l 17,2,-1
 354 -297 l 1,3,-1
 200 -297 l 1,0,-1
200 850 m 17,4,-1
 200 1815 l 1,5,-1
 355 1815 l 1,6,-1
 354.552 850 l 9,7,-1
 200 850 l 17,4,-1
EndSplineSet
Validated: 1
EndChar

StartChar: section
Encoding: 167 167 98
Width: 1226
GlyphClass: 2
Flags: W
HStem: -25 98<470.91 720.501> 1438 98<509.987 755.183>
VStem: 200 183<675.686 920.952> 265 260<117.625 308.808> 274 177<1144.05 1371.38> 701 260<1202.22 1394.5> 775 177<139.625 365.562> 843 183<587.636 835.314>
DStem2: 484 643 453 453 0.959205 -0.282713<-102.321 321.677> 773 1058 470 948 0.959205 -0.282713<-297.727 126.302>
LayerCount: 2
Fore
SplineSet
200 784 m 1,0,1
 210 902 210 902 310 1011 c 0,2,3
 322 1024 322 1024 337 1035 c 1,4,5
 296 1087 296 1087 278 1165 c 1,6,7
 274 1195 274 1195 274 1224 c 0,8,9
 274 1323 274 1323 353 1420 c 0,10,11
 448 1536 448 1536 618 1536 c 0,12,13
 777 1536 777 1536 889 1430 c 0,14,15
 926 1395 926 1395 946 1358 c 0,16,17
 961 1330 961 1330 961 1294 c 0,18,19
 961 1240 961 1240 923 1201 c 128,-1,20
 885 1162 885 1162 831 1162 c 128,-1,21
 777 1162 777 1162 739 1201 c 128,-1,22
 701 1240 701 1240 701 1294 c 0,23,24
 701 1352 701 1352 739 1388 c 2,25,-1
 757 1405 l 1,26,27
 699 1438 699 1438 621 1438 c 2,28,-1
 618 1438 l 1,29,30
 544 1433 544 1433 494 1382 c 1,31,32
 451 1336 451 1336 451 1254 c 0,33,34
 451 1247 451 1247 451 1240 c 0,35,36
 451 1156 451 1156 536 1120 c 1,37,-1
 773 1058 l 1,38,39
 877 1020 877 1020 928 976 c 0,40,41
 1024 893 1024 893 1026 727 c 1,42,43
 1016 604 1016 604 916 500 c 1,44,45
 903 488 903 488 887 478 c 1,46,47
 930 426 930 426 948 346 c 1,48,49
 952 316 952 316 952 287 c 0,50,51
 952 188 952 188 873 91 c 0,52,53
 778 -25 778 -25 608 -25 c 0,54,55
 449 -25 449 -25 337 81 c 0,56,57
 300 116 300 116 280 153 c 0,58,59
 265 181 265 181 265 216 c 0,60,61
 265 272 265 272 303 310 c 128,-1,62
 341 348 341 348 395 348 c 128,-1,63
 449 348 449 348 487 310 c 128,-1,64
 525 272 525 272 525 216 c 0,65,66
 525 162 525 162 487 123 c 1,67,-1
 469 107 l 1,68,69
 530 73 530 73 605 73 c 2,70,-1
 608 73 l 1,71,72
 676 78 676 78 730 125 c 1,73,74
 775 171 775 171 775 257 c 0,75,76
 775 264 775 264 775 272 c 0,77,78
 775 355 775 355 690 391 c 1,79,-1
 453 453 l 1,80,81
 349 491 349 491 298 535 c 0,82,83
 202 618 202 618 200 784 c 1,0,1
769 559 m 1,84,85
 774 562 774 562 779 566 c 0,86,87
 839 614 839 614 843 710 c 1,88,-1
 843 729 l 1,89,90
 838 836 838 836 742 868 c 1,91,-1
 470 948 l 2,92,93
 463 950 463 950 457 952 c 1,94,95
 452 949 452 949 447 945 c 0,96,97
 387 897 387 897 383 801 c 1,98,-1
 383 782 l 1,99,100
 388 675 388 675 484 643 c 1,101,-1
 756 563 l 2,102,103
 763 561 763 561 769 559 c 1,84,85
EndSplineSet
Validated: 16385
EndChar

StartChar: dieresis
Encoding: 168 168 99
Width: 997
GlyphClass: 2
Flags: W
HStem: 1272 264<239.191 420.809 576.191 757.809>
VStem: 200 260<1311.71 1496.29> 537 260<1311.71 1496.29>
LayerCount: 2
Fore
SplineSet
537 1404 m 128,-1,1
 537 1459 537 1459 575 1497.5 c 128,-1,2
 613 1536 613 1536 667 1536 c 128,-1,3
 721 1536 721 1536 759 1497.5 c 128,-1,4
 797 1459 797 1459 797 1404 c 128,-1,5
 797 1349 797 1349 759 1310.5 c 128,-1,6
 721 1272 721 1272 667 1272 c 128,-1,7
 613 1272 613 1272 575 1310.5 c 128,-1,0
 537 1349 537 1349 537 1404 c 128,-1,1
200 1404 m 128,-1,9
 200 1459 200 1459 238 1497.5 c 128,-1,10
 276 1536 276 1536 330 1536 c 128,-1,11
 384 1536 384 1536 422 1497.5 c 128,-1,12
 460 1459 460 1459 460 1404 c 128,-1,13
 460 1349 460 1349 422 1310.5 c 128,-1,14
 384 1272 384 1272 330 1272 c 128,-1,15
 276 1272 276 1272 238 1310.5 c 128,-1,8
 200 1349 200 1349 200 1404 c 128,-1,9
EndSplineSet
Validated: 1
EndChar

StartChar: copyright
Encoding: 169 169 100
Width: 1401
GlyphClass: 2
Flags: W
HStem: 180 79<514.499 887.229> 343 95<618.131 827.359> 1071 92<600.533 809.828> 1251 80<511.931 889.969>
VStem: 150 74<566.018 943.982> 373 146<540.144 971.583> 886 40<835.066 919.202 1113.33 1163.9> 1176 75<560.265 949.908>
LayerCount: 2
Fore
SplineSet
689 1163 m 0,0,1
 738 1163 738 1163 791 1135 c 0,2,3
 823 1118 823 1118 843 1101 c 1,4,5
 873 1106 873 1106 886 1149 c 0,6,7
 891 1167 891 1167 908 1164 c 0,8,9
 926 1161 926 1161 926 1144 c 2,10,-1
 926 855 l 2,11,12
 926 837 926 837 908 835 c 128,-1,13
 890 833 890 833 886 850 c 0,14,15
 864 946 864 946 828 1004 c 0,16,17
 815 1025 815 1025 789 1044 c 0,18,19
 752 1071 752 1071 707 1071 c 0,20,21
 706 1071 706 1071 704 1071 c 0,22,23
 648 1071 648 1071 599 1033 c 1,24,25
 562 990 562 990 541 912 c 0,26,27
 519 830 519 830 519 755 c 0,28,29
 519 710 l 0,30,31
 520 668 520 668 534 611 c 1,32,33
 569 508 569 508 617 468 c 0,34,35
 653 438 653 438 713 438 c 0,36,37
 724 438 724 438 735 439 c 0,38,39
 766 442 766 442 809 468 c 0,40,41
 829 480 829 480 861 519 c 0,42,43
 881 544 881 544 891 578 c 2,44,-1
 897 598 l 1,45,-1
 987 563 l 1,46,-1
 979 544 l 2,47,48
 961 502 961 502 933 463 c 0,49,50
 890 406 890 406 837 377 c 0,51,52
 776 343 776 343 697 343 c 0,53,54
 695 343 l 0,55,56
 682 340 682 340 667 340 c 0,57,58
 613 342 613 342 556 375 c 128,-1,59
 499 408 499 408 459 461 c 0,60,61
 420 514 420 514 396 589 c 0,62,63
 373 662 373 662 373 747 c 0,64,65
 373 833 373 833 396 912 c 0,66,67
 420 994 420 994 459 1044 c 0,68,69
 507 1105 507 1105 559 1132 c 0,70,71
 619 1163 619 1163 689 1163 c 0,0,1
701 1331 m 0,72,73
 811 1331 811 1331 911 1288 c 0,74,75
 1007 1247 1007 1247 1090 1161 c 0,76,77
 1170 1078 1170 1078 1211 975 c 0,78,79
 1251 874 1251 874 1251 754 c 0,80,81
 1251 638 1251 638 1211 535 c 0,82,83
 1173 437 1173 437 1090 350 c 0,84,85
 1011 267 1011 267 911 223 c 0,86,87
 813 180 813 180 701 180 c 0,88,89
 590 180 590 180 490 223 c 0,90,91
 394 264 394 264 311 350 c 0,92,93
 230 434 230 434 190 535 c 128,-1,94
 150 636 150 636 150 754 c 0,95,96
 150 873 150 873 190 975 c 128,-1,97
 230 1077 230 1077 311 1161 c 0,98,99
 392 1246 392 1246 490 1288.5 c 128,-1,100
 588 1331 588 1331 701 1331 c 0,72,73
701 1251 m 0,101,102
 603 1251 603 1251 520 1215 c 128,-1,103
 437 1179 437 1179 366 1105 c 0,104,105
 296 1032 296 1032 260 944 c 128,-1,106
 224 856 224 856 224 759 c 2,107,-1
 224 754 l 2,108,109
 224 655 224 655 260 566 c 0,110,111
 294 483 294 483 366 406 c 0,112,113
 436 332 436 332 519 296 c 0,114,115
 604 259 604 259 701 259 c 128,-1,116
 798 259 798 259 883 296 c 0,117,118
 966 332 966 332 1037 406 c 0,119,120
 1106 478 1106 478 1141 565 c 128,-1,121
 1176 652 1176 652 1176 754 c 0,122,123
 1176 857 1176 857 1141 945 c 0,124,125
 1107 1031 1107 1031 1037 1105 c 0,126,127
 968 1178 968 1178 883 1215 c 0,128,129
 798 1251 798 1251 701 1251 c 0,101,102
EndSplineSet
Validated: 1
EndChar

StartChar: ordfeminine
Encoding: 170 170 101
Width: 1233
GlyphClass: 2
Flags: W
HStem: 429 197<200 1033> 728 79<526.909 731.358> 728 39<905.75 966.934> 1445 91<519.39 733.675>
VStem: 270 150<926.114 1320.14> 733 139<814.76 1405.03>
LayerCount: 2
Fore
SplineSet
420 1108 m 0,0,1
 420 1033 420 1033 444 970 c 128,-1,2
 468 907 468 907 517 854 c 1,3,4
 569 807 569 807 619 807 c 2,5,-1
 620 807 l 2,6,7
 680 807 680 807 712 823 c 0,8,9
 722 828 722 828 729 840 c 0,10,11
 733 847 733 847 733 863 c 2,12,-1
 733 1388 l 2,13,14
 733 1390 733 1390 733 1391 c 0,15,16
 733 1392 l 0,17,18
 740 1404 740 1404 724 1422 c 0,19,20
 716 1432 716 1432 691 1439 c 0,21,22
 671 1445 671 1445 646 1445 c 0,23,24
 631 1445 631 1445 624 1444 c 0,25,26
 562 1435 562 1435 519 1400 c 0,27,28
 469 1359 469 1359 438 1275 c 1,29,30
 420 1218 420 1218 420 1108 c 0,0,1
950 1410 m 2,31,32
 919 1406 919 1406 889 1400 c 0,33,34
 880 1399 880 1399 874 1393 c 0,35,36
 872 1391 872 1391 872 1389 c 2,37,-1
 872 1388 l 1,38,-1
 872 825 l 1,39,40
 900 776 900 776 951 767 c 0,41,42
 969 764 969 764 967 746 c 128,-1,43
 965 728 965 728 947 728 c 2,44,-1
 736 728 l 1,45,46
 683 715 683 715 627 715 c 0,47,48
 622 715 622 715 622 715 c 0,49,50
 526 730 526 730 489 749 c 0,51,52
 418 785 418 785 373 835 c 128,-1,53
 328 885 328 885 299 960 c 128,-1,54
 270 1035 270 1035 270 1120 c 0,55,56
 270 1204 270 1204 299 1283 c 0,57,58
 327 1358 327 1358 373 1412 c 0,59,60
 425 1473 425 1473 491 1503 c 0,61,62
 562 1536 562 1536 622 1536 c 0,63,64
 629 1536 629 1536 636 1536 c 0,65,66
 718 1536 718 1536 782 1514 c 1,67,-1
 1029 1420 l 1,68,-1
 950 1410 l 2,31,32
200 626 m 1,69,-1
 1033 626 l 1,70,-1
 1033 429 l 1,71,-1
 200 429 l 1,72,-1
 200 626 l 1,69,-1
EndSplineSet
Validated: 16385
EndChar

StartChar: guillemotleft
Encoding: 171 171 102
Width: 1251
GlyphClass: 2
Flags: W
DStem2: 354 776 150 696 0.577331 -0.81651<0 511.235> 150 696 354 776 0.5547 0.83205<179.723 606.565> 751 776 547 696 0.577331 -0.81651<0 511.235> 547 696 751 776 0.5547 0.83205<179.723 606.565>
LayerCount: 2
Fore
SplineSet
897 1221 m 1,0,-1
 985 1133 l 1,1,-1
 751 776 l 1,2,-1
 1051 362 l 1,3,-1
 897 201 l 1,4,-1
 547 696 l 1,5,-1
 897 1221 l 1,0,-1
500 1221 m 1,6,-1
 588 1133 l 1,7,-1
 354 776 l 1,8,-1
 654 362 l 1,9,-1
 500 201 l 1,10,-1
 150 696 l 1,11,-1
 500 1221 l 1,6,-1
EndSplineSet
Validated: 16385
EndChar

StartChar: logicalnot
Encoding: 172 172 103
Width: 1233
GlyphClass: 2
Flags: W
HStem: 601 197<200 859>
VStem: 859 174<349 601>
LayerCount: 2
Fore
SplineSet
200 601 m 1,0,-1
 200 798 l 1,1,-1
 1033 798 l 9,2,-1
 1033 349 l 17,3,-1
 859 349 l 1,4,-1
 859 601 l 1,5,-1
 200 601 l 1,0,-1
EndSplineSet
Validated: 1
EndChar

StartChar: uni00AD
Encoding: 173 173 104
Width: 1233
GlyphClass: 2
Flags: W
HStem: 601 197<200 1033>
LayerCount: 2
Fore
SplineSet
200 798 m 1,0,-1
 1033 798 l 1,1,-1
 1033 601 l 1,2,-1
 200 601 l 1,3,-1
 200 798 l 1,0,-1
EndSplineSet
Validated: 1
EndChar

StartChar: registered
Encoding: 174 174 105
Width: 1401
GlyphClass: 2
Flags: W
HStem: 180 79<514.374 887.472> 365 39<645.75 707.965> 635 90<622.162 776> 1081 91<615.491 816.91> 1251 80<511.834 889.969>
VStem: 150 74<566.018 945.811> 475 139<417.458 661 739 1025> 866 148<758.898 1031.49> 1176 75<560.452 949.908>
DStem2: 983 485 791 565 0.428086 -0.903738<-215.208 71.6798>
LayerCount: 2
Fore
SplineSet
701 1251 m 0,0,1
 603 1251 603 1251 520 1215 c 128,-1,2
 437 1179 437 1179 366 1105 c 0,3,4
 343 1081 343 1081 323 1055 c 1,5,-1
 392 1084 l 2,6,7
 437 1104 437 1104 546 1142 c 0,8,9
 633 1172 633 1172 698 1172 c 0,10,11
 702 1172 702 1172 702 1172 c 0,12,13
 715 1174 715 1174 728 1174 c 0,14,15
 779 1173 779 1173 834 1151 c 0,16,17
 891 1128 891 1128 925 1096 c 0,18,19
 975 1049 975 1049 996 999 c 1,20,21
 1004 981 1004 981 1008 958 c 0,22,23
 1012 933 1012 933 1013 919 c 0,24,25
 1014 903 1014 903 1014 901 c 0,26,27
 1001 782 1001 782 951 731 c 0,28,29
 919 698 919 698 881 675 c 1,30,31
 885 671 885 671 890 665 c 0,32,33
 918 631 918 631 983 485 c 1,34,-1
 993 463 l 1,35,36
 1009 433 1009 433 1027 433 c 2,37,-1
 1028 433 l 1,38,39
 1051 434 1051 434 1066 447 c 2,40,-1
 1085 463 l 1,41,42
 1119 511 1119 511 1141 565 c 0,43,44
 1176 651 1176 651 1176 754 c 128,-1,45
 1176 857 1176 857 1141 945 c 0,46,47
 1107 1031 1107 1031 1037 1105 c 0,48,49
 968 1178 968 1178 883 1215 c 0,50,51
 798 1251 798 1251 701 1251 c 0,0,1
701 1331 m 0,52,53
 811 1331 811 1331 911 1288 c 0,54,55
 1007 1247 1007 1247 1090 1161 c 0,56,57
 1170 1078 1170 1078 1211 975 c 0,58,59
 1251 874 1251 874 1251 754 c 0,60,61
 1251 638 1251 638 1211 535 c 0,62,63
 1173 437 1173 437 1090 350 c 0,64,65
 1011 267 1011 267 911 223 c 0,66,67
 813 180 813 180 701 180 c 0,68,69
 590 180 590 180 490 223 c 0,70,71
 394 264 394 264 311 350 c 0,72,73
 230 434 230 434 190 535 c 128,-1,74
 150 636 150 636 150 754 c 0,75,76
 150 874 150 874 190 975 c 128,-1,77
 230 1076 230 1076 311 1161 c 0,78,79
 393 1246 393 1246 490 1288.5 c 128,-1,80
 587 1331 587 1331 701 1331 c 0,52,53
614 1025 m 2,81,-1
 614 781 l 1,82,83
 635 744 635 744 680 731 c 0,84,85
 700 725 700 725 726 725 c 0,86,87
 737 725 737 725 745 726 c 0,88,89
 788 731 788 731 814 752 c 0,90,91
 866 794 866 794 866 891 c 0,92,-1
 866 896 l 0,93,94
 866 962 866 962 844 1000 c 0,95,96
 823 1039 823 1039 787 1061 c 0,97,98
 754 1081 754 1081 705 1081 c 2,99,-1
 703 1081 l 2,100,101
 666 1081 666 1081 634 1065 c 0,102,103
 624 1060 624 1060 617 1047 c 0,104,105
 614 1041 614 1041 614 1025 c 2,81,-1
396 404 m 0,106,107
 448 416 448 416 475 462 c 1,108,-1
 475 1025 l 1,109,-1
 474 1028 l 1,110,111
 467 1033 467 1033 453 1036 c 0,112,113
 415 1045 415 1045 398 1046 c 2,114,-1
 322 1053 l 1,115,116
 284 1002 284 1002 260 944 c 0,117,118
 224 857 224 857 224 759 c 2,119,-1
 224 754 l 2,120,121
 224 655 224 655 260 566 c 0,122,123
 294 483 294 483 366 406 c 1,124,-1
 380 392 l 1,125,126
 383 401 383 401 396 404 c 0,106,107
409 365 m 1,127,128
 461 321 461 321 519 296 c 0,129,130
 605 259 605 259 701 259 c 0,131,132
 796 259 796 259 883 296 c 0,133,134
 909 307 909 307 933 322 c 1,135,136
 912 335 912 335 895 358 c 0,137,138
 886 370 886 370 863 413 c 1,139,-1
 791 565 l 1,140,141
 762 622 762 622 731 635 c 1,142,143
 720 635 720 635 710 636 c 0,144,145
 650 642 650 642 614 661 c 1,146,-1
 614 461 l 1,147,148
 638 414 638 414 693 404 c 0,149,150
 709 401 709 401 708 383 c 128,-1,151
 707 365 707 365 689 365 c 2,152,-1
 409 365 l 1,127,128
EndSplineSet
Validated: 1
EndChar

StartChar: macron
Encoding: 175 175 106
Width: 1233
GlyphClass: 2
Flags: W
HStem: 1315 196<200 1033>
LayerCount: 2
Fore
SplineSet
200 1511 m 1,0,-1
 1033 1512 l 1,1,-1
 1033 1315 l 1,2,-1
 200 1315 l 1,3,-1
 200 1511 l 1,0,-1
EndSplineSet
Validated: 1
EndChar

StartChar: degree
Encoding: 176 176 107
Width: 1008
GlyphClass: 2
Flags: W
HStem: 847 68<420.31 577.72> 1448 88<409.839 588.069>
VStem: 200 153<999.617 1371.22> 651 157<1012.27 1370.71>
LayerCount: 2
Fore
SplineSet
353 1170 m 0,0,1
 353 1061 353 1061 389 991 c 0,2,3
 428 915 428 915 507 915 c 0,4,5
 562 915 562 915 607 985 c 0,6,7
 651 1053 651 1053 651 1191 c 0,8,9
 651 1319 651 1319 604 1385 c 0,10,11
 559 1448 559 1448 500 1448 c 0,12,13
 438 1448 438 1448 394 1385 c 0,14,15
 353 1326 353 1326 353 1170 c 0,0,1
200 1184 m 0,16,17
 200 1285 200 1285 241 1364 c 0,18,19
 283 1445 283 1445 351 1490 c 0,20,21
 421 1536 421 1536 504 1536 c 0,22,23
 586 1536 586 1536 657 1490 c 0,24,25
 725 1446 725 1446 767 1364 c 0,26,27
 808 1284 808 1284 808 1183 c 0,28,29
 808 1097 808 1097 767 1019 c 0,30,31
 725 939 725 939 657 893 c 128,-1,32
 589 847 589 847 504 847 c 0,33,34
 427 847 427 847 351 893 c 0,35,36
 276 938 276 938 235 1016 c 0,37,38
 200 1082 200 1082 200 1184 c 0,16,17
EndSplineSet
Validated: 16385
EndChar

StartChar: plusminus
Encoding: 177 177 108
Width: 1233
GlyphClass: 2
Flags: W
HStem: 165 197<200 1033> 786 197<200 518 715 1033>
VStem: 518 197<468 786 983 1301>
LayerCount: 2
Fore
SplineSet
200 362 m 1,0,-1
 1033 362 l 1,1,-1
 1033 165 l 1,2,-1
 200 165 l 1,3,-1
 200 362 l 1,0,-1
200 786 m 1,4,-1
 200 983 l 1,5,-1
 518 983 l 1,6,-1
 518 1301 l 1,7,-1
 715 1301 l 1,8,-1
 715 983 l 1,9,-1
 1033 983 l 1,10,-1
 1033 786 l 1,11,-1
 715 786 l 1,12,-1
 715 468 l 1,13,-1
 518 468 l 1,14,-1
 518 786 l 1,15,-1
 200 786 l 1,4,-1
EndSplineSet
Validated: 16385
EndChar

StartChar: uni00B2
Encoding: 178 178 109
Width: 1021
GlyphClass: 2
Flags: W
HStem: 713 138<438.456 741.751> 769 135<358 574.734> 1442 94<367.876 572.81>
VStem: 223 170<1194.63 1344.42> 601 151<1169.56 1398.02>
DStem2: 507 879 376 764 0.981757 -0.190143<-148.314 147.096>
LayerCount: 2
Fore
SplineSet
200 695 m 1,0,-1
 208 751 l 2,1,2
 228 888 228 888 446 1106 c 2,3,-1
 447 1107 l 1,4,-1
 482 1122 l 1,5,6
 601 1168 601 1168 601 1289 c 0,7,8
 601 1293 601 1293 601 1297 c 2,9,-1
 601 1307 l 2,10,11
 601 1368 601 1368 574 1399 c 0,12,13
 536 1442 536 1442 488 1442 c 2,14,-1
 487 1442 l 2,15,16
 417 1442 417 1442 374 1404 c 0,17,18
 348 1381 348 1381 337 1351 c 1,19,20
 353 1344 353 1344 368 1330 c 0,21,22
 393 1306 393 1306 393 1269 c 0,23,24
 393 1233 393 1233 368 1208 c 128,-1,25
 343 1183 343 1183 311 1183 c 0,26,27
 309 1183 309 1183 308 1183 c 0,28,29
 275 1183 275 1183 248 1210 c 0,30,31
 223 1235 223 1235 223 1271 c 0,32,33
 224 1378 224 1378 302 1458 c 0,34,35
 378 1536 378 1536 479 1536 c 2,36,-1
 486 1536 l 2,37,38
 489 1536 489 1536 492 1536 c 128,-1,39
 495 1536 495 1536 498 1536 c 0,40,41
 592 1536 592 1536 671 1471 c 0,42,43
 751 1405 751 1405 752 1294 c 1,44,-1
 751 1273 l 1,45,46
 744 1158 744 1158 655 1100 c 0,47,48
 601 1065 601 1065 526 1034 c 1,49,50
 443 1007 443 1007 358 904 c 1,51,52
 360 904 360 904 361 904 c 2,53,-1
 362 904 l 2,54,55
 420 904 420 904 507 879 c 1,56,-1
 615 855 l 2,57,58
 633 851 633 851 652 851 c 0,59,60
 711 852 711 852 756 897 c 2,61,-1
 821 962 l 1,62,-1
 817 944 l 2,63,64
 766 713 766 713 659 713 c 0,65,66
 641 713 641 713 629 715 c 8,67,68
 563 726 563 726 478 741 c 1,69,-1
 376 764 l 2,70,71
 354 769 354 769 334 769 c 0,72,73
 282 769 282 769 242 733 c 2,74,-1
 200 695 l 1,0,-1
EndSplineSet
Validated: 1
EndChar

StartChar: uni00B3
Encoding: 179 179 110
Width: 939
GlyphClass: 2
Flags: W
HStem: 714.994 93.5<345.776 558.711> 1456.06 79.9399<374.121 533.542>
VStem: 200 170<905.655 1040.38> 257.5 170<1280.11 1415.11> 552.36 141.183<1256.84 1440.96> 588 151.022<944.648 1094.28>
LayerCount: 2
Fore
SplineSet
224.67 1041.2 m 128,-1,1
 249.34 1067.49 249.34 1067.49 284.851 1067.49 c 128,-1,2
 320.361 1067.49 320.361 1067.49 345.181 1042.35 c 128,-1,3
 370 1017.2 370 1017.2 370 981.5 c 128,-1,4
 370 945.799 370 945.799 345.236 920.697 c 0,5,6
 331.185 906.453 331.185 906.453 313.438 900.121 c 1,7,8
 324.94 869.882 324.94 869.882 351.135 847.076 c 0,9,10
 395.45 808.494 395.45 808.494 464 808.494 c 0,11,12
 521.017 808.494 521.017 808.494 559.994 852.717 c 0,13,14
 588 884.49 588 884.49 588 953.994 c 2,15,-1
 588.001 963.654 l 2,16,17
 588.055 967.039 588.055 967.039 588.056 970.331 c 0,18,19
 588.056 1021.42 588.056 1021.42 574.95 1048.88 c 0,20,21
 556.256 1088.05 556.256 1088.05 526.085 1107.74 c 0,22,23
 501.341 1123.88 501.341 1123.88 429.062 1155.14 c 2,24,-1
 391.968 1171.18 l 1,25,-1
 427.22 1190.94 l 2,26,27
 428.649 1191.74 428.649 1191.74 454.076 1205.75 c 128,-1,28
 479.503 1219.77 479.503 1219.77 492.45 1227.46 c 0,29,30
 517.812 1242.53 517.812 1242.53 530.336 1256.09 c 0,31,32
 552.36 1279.94 552.36 1279.94 552.36 1338 c 0,33,34
 552.36 1345.18 552.36 1345.18 552.021 1352.58 c 0,35,36
 550.294 1390.24 550.294 1390.24 530.207 1423.79 c 1,37,-1
 526.571 1428.08 l 1,38,39
 496.568 1455.23 496.568 1455.23 470.016 1456 c 0,40,41
 466.781 1456.06 466.781 1456.06 463.516 1456.06 c 0,42,43
 422.021 1456.06 422.021 1456.06 401.558 1445.66 c 0,44,45
 381.912 1435.68 381.912 1435.68 372.43 1419.82 c 1,46,47
 389.287 1413.42 389.287 1413.42 402.736 1399.79 c 0,48,49
 427.5 1374.69 427.5 1374.69 427.5 1338.99 c 128,-1,50
 427.5 1303.29 427.5 1303.29 402.681 1278.14 c 128,-1,51
 377.861 1252.99 377.861 1252.99 342.351 1252.99 c 128,-1,52
 306.84 1252.99 306.84 1252.99 282.17 1279.29 c 128,-1,53
 257.5 1305.58 257.5 1305.58 257.5 1340.99 c 0,54,55
 257.5 1406.64 257.5 1406.64 329.789 1486.54 c 1,56,57
 383.186 1536 383.186 1536 467.05 1536 c 2,58,-1
 468.845 1535.99 l 2,59,60
 555.377 1535.46 555.377 1535.46 607.915 1501.25 c 0,61,62
 686.2 1450.28 686.2 1450.28 692.942 1362.01 c 0,63,64
 693.543 1354.14 693.543 1354.14 693.543 1346.35 c 0,65,66
 693.543 1280.45 693.543 1280.45 651.74 1232.01 c 0,67,68
 651.391 1231.6 651.391 1231.6 631.143 1211.35 c 2,69,-1
 630.359 1210.57 l 1,70,-1
 629.494 1209.88 l 2,71,72
 605.453 1190.65 605.453 1190.65 575.252 1176.19 c 1,73,-1
 589.656 1171.52 l 2,74,75
 632.982 1157.46 632.982 1157.46 673.514 1120.24 c 0,76,77
 732.985 1065.63 732.985 1065.63 738.481 967.799 c 1,78,-1
 739.022 945.812 l 1,79,-1
 738.915 944.648 l 2,80,81
 728.614 833.51 728.614 833.51 652.231 774.252 c 128,-1,82
 575.849 714.994 575.849 714.994 465.901 714.994 c 128,-1,83
 355.954 714.994 355.954 714.994 278.334 792.876 c 0,84,85
 200 871.475 200 871.475 200 979.494 c 0,86,0
 200 1014.91 200 1014.91 224.67 1041.2 c 128,-1,1
EndSplineSet
Validated: 1
EndChar

StartChar: acute
Encoding: 180 180 111
Width: 800
GlyphClass: 2
Flags: W
HStem: 1148 385
VStem: 200 400
LayerCount: 2
Fore
SplineSet
200 1169 m 1,0,-1
 388 1479 l 2,1,2
 391 1484 391 1484 402 1496 c 0,3,4
 428 1525 428 1525 466 1533 c 0,5,6
 481 1536 481 1536 495 1536 c 0,7,8
 539 1536 539 1536 571 1504 c 0,9,10
 600 1475 600 1475 600 1431 c 0,11,12
 600 1423 600 1423 599 1413 c 0,13,14
 595 1368 595 1368 564 1345 c 0,15,-1
 547 1331 l 2,16,-1
 220 1148 l 1,17,-1
 200 1169 l 1,0,-1
EndSplineSet
Validated: 1
EndChar

StartChar: uni00B5
Encoding: 181 181 112
Width: 1287
GlyphClass: 2
Flags: W
HStem: -433 21G<27 115> -25 122<557.858 828.862> 1077 5G<388 408 690 1268>
VStem: 210 198<-182.907 68 272.209 914.684> 880 198<162.316 937>
LayerCount: 2
Fore
SplineSet
20 -433 m 1,0,1
 210 -230 210 -230 210 19 c 2,2,-1
 210 27 l 1,3,-1
 210 880 l 2,4,5
 210 905 210 905 197 915 c 0,6,7
 176 931 176 931 136 940 c 0,8,9
 48 960 48 960 20 962 c 1,10,11
 76 987 76 987 326 1076 c 0,12,13
 368 1091 368 1091 408 1102 c 1,14,-1
 408 543 l 1,15,-1
 408 539 l 2,16,17
 408 311 408 311 495 201 c 0,18,19
 577 97 577 97 692 97 c 0,20,21
 694 97 694 97 696 97 c 0,22,23
 823 97 823 97 880 189 c 1,24,-1
 880 929 l 1,25,-1
 878 938 l 1,26,27
 824 1049 824 1049 690 1077 c 1,28,-1
 1268 1077 l 1,29,30
 1144 1053 1144 1053 1080 937 c 1,31,-1
 1078 929 l 1,32,-1
 1078 197 l 2,33,34
 1078 172 1078 172 1091 162 c 0,35,36
 1111 146 1111 146 1152 137 c 0,37,38
 1243 117 1243 117 1268 115 c 1,39,40
 1212 90 1212 90 962 1 c 0,41,42
 920 -14 920 -14 880 -25 c 1,43,-1
 880 52 l 1,44,-1
 877 50 l 2,45,46
 777 -25 777 -25 654 -25 c 128,-1,47
 531 -25 531 -25 431 50 c 0,48,49
 419 59 419 59 408 68 c 1,50,-1
 408 27 l 1,51,-1
 408 19 l 2,52,53
 408 -316 408 -316 27 -432 c 1,54,-1
 20 -433 l 1,0,1
EndSplineSet
Validated: 1
EndChar

StartChar: paragraph
Encoding: 182 182 113
Width: 1248
GlyphClass: 2
Flags: W
HStem: 0 21G<620 879 938 1198> 408 122<487.726 750.597> 1439 96<484.25 746>
VStem: 150 218<726.213 1224.47> 810 69<139 478 601.767 1281.59> 938 70<140 1281.55>
LayerCount: 2
Fore
SplineSet
150 984 m 0,0,1
 150 1132 150 1132 209 1259 c 0,2,3
 269 1389 269 1389 371 1460 c 0,4,5
 478 1535 478 1535 610 1535 c 0,6,7
 725 1535 725 1535 892 1476 c 0,8,9
 1138 1389 1138 1389 1198 1362 c 1,10,11
 1176 1361 1176 1361 1082 1340 c 0,12,13
 1042 1331 1042 1331 1021 1315 c 0,14,15
 1008 1305 1008 1305 1008 1280 c 2,16,-1
 1008 148 l 1,17,-1
 1010 140 l 1,18,19
 1074 24 1074 24 1198 0 c 1,20,-1
 938 0 l 1,21,-1
 938 1282 l 1,22,-1
 879 1282 l 1,23,-1
 879 0 l 1,24,-1
 620 0 l 1,25,26
 754 28 754 28 808 139 c 1,27,-1
 810 148 l 1,28,-1
 810 478 l 1,29,30
 711 408 711 408 594 408 c 0,31,32
 472 408 472 408 371 483 c 0,33,34
 271 557 271 557 210 689 c 0,35,36
 150 819 150 819 150 984 c 0,0,1
368 968 m 0,37,38
 368 747 368 747 432 638 c 1,39,40
 498 530 498 530 628 530 c 0,41,42
 728 530 728 530 781 609 c 0,43,44
 808 649 808 649 810 681 c 1,45,-1
 810 690 l 1,46,-1
 810 1280 l 2,47,48
 810 1331 810 1331 796 1347 c 1,49,-1
 786 1362 l 1,50,51
 708 1438 708 1438 614 1439 c 0,52,53
 605 1439 605 1439 596 1439 c 0,54,55
 483 1437 483 1437 418 1300 c 0,56,57
 368 1193 368 1193 368 968 c 0,37,38
EndSplineSet
Validated: 16385
EndChar

StartChar: periodcentered
Encoding: 183 183 114
Width: 660
GlyphClass: 2
Flags: W
HStem: 562 264<239.191 420.809>
VStem: 200 260<601.707 786.293>
LayerCount: 2
Fore
SplineSet
200 694 m 128,-1,1
 200 749 200 749 238 787.5 c 128,-1,2
 276 826 276 826 330 826 c 128,-1,3
 384 826 384 826 422 787.5 c 128,-1,4
 460 749 460 749 460 694 c 128,-1,5
 460 639 460 639 422 600.5 c 128,-1,6
 384 562 384 562 330 562 c 128,-1,7
 276 562 276 562 238 600.5 c 128,-1,0
 200 639 200 639 200 694 c 128,-1,1
EndSplineSet
Validated: 1
EndChar

StartChar: cedilla
Encoding: 184 184 115
Width: 697
GlyphClass: 2
Flags: W
HStem: -433 266<235.281 379.157>
VStem: 381 116<-176 -22.4062>
LayerCount: 2
Fore
SplineSet
266 84 m 0,0,1
 278 86 278 86 297 88 c 0,2,3
 331 90 331 90 356 79 c 0,4,5
 453 36 453 36 489 -129 c 0,6,7
 497 -166 497 -166 497 -219 c 0,8,9
 497 -252 497 -252 486 -290 c 0,10,11
 480 -312 480 -312 471 -333 c 0,12,13
 445 -395 445 -395 394 -418 c 0,14,15
 360 -433 360 -433 329 -433 c 0,16,17
 312 -433 312 -433 296 -429 c 0,18,19
 243 -416 243 -416 217 -368 c 0,20,21
 200 -337 200 -337 200 -304 c 0,22,23
 200 -286 200 -286 205 -268 c 0,24,25
 221 -212 221 -212 269 -183 c 0,26,27
 296 -167 296 -167 329 -167 c 0,28,29
 353 -167 353 -167 380 -176 c 0,30,-1
 381 -150 l 0,31,32
 381 -139 381 -139 381 -137 c 0,33,34
 381 -99 381 -99 368 -51 c 0,35,36
 342 43 342 43 273 81 c 0,37,-1
 266 84 l 0,0,1
EndSplineSet
Validated: 1
EndChar

StartChar: uni00B9
Encoding: 185 185 116
Width: 762
GlyphClass: 2
Flags: W
HStem: 706.856 39.636<233.73 295.241 499.563 561.912> 1516 20G<441.62 467.08>
VStem: 328.58 138.5<758.424 1318.78>
LayerCount: 2
Fore
SplineSet
233.672 724.947 m 128,-1,1
 231.938 743.038 231.938 743.038 249.779 746.492 c 0,2,3
 301.303 756.467 301.303 756.467 328.58 803.318 c 1,4,-1
 328.58 1273.36 l 2,5,6
 328.58 1282.17 328.58 1282.17 326.035 1289.09 c 128,-1,7
 323.49 1296.02 323.49 1296.02 316.247 1303.7 c 128,-1,8
 309.004 1311.37 309.004 1311.37 292.788 1316.37 c 128,-1,9
 276.572 1321.37 276.572 1321.37 252.319 1322.9 c 2,10,-1
 200 1326.2 l 1,11,-1
 467.08 1536 l 1,12,-1
 467.08 803.052 l 1,13,14
 490.012 758.168 490.012 758.168 546.171 746.434 c 0,15,16
 563.829 742.744 563.829 742.744 561.974 724.8 c 128,-1,17
 560.119 706.856 560.119 706.856 542.08 706.856 c 2,18,-1
 253.58 706.856 l 2,19,0
 235.406 706.856 235.406 706.856 233.672 724.947 c 128,-1,1
EndSplineSet
Validated: 1
EndChar

StartChar: ordmasculine
Encoding: 186 186 117
Width: 1233
GlyphClass: 2
Flags: W
HStem: 429 197<200 1033> 716 92<534.971 700.072> 1444 92<528.173 696.615>
VStem: 316 142<902.743 1345.8> 773 145<906.068 1343.06>
LayerCount: 2
Fore
SplineSet
200 626 m 1,0,-1
 1033 626 l 1,1,-1
 1033 429 l 1,2,-1
 200 429 l 1,3,-1
 200 626 l 1,0,-1
628 808 m 0,4,5
 652 808 652 808 701 852 c 1,6,7
 736 896 736 896 754 962 c 0,8,9
 773 1031 773 1031 773 1111 c 0,10,11
 773 1127 l 0,12,13
 766 1239 766 1239 754 1277 c 1,14,15
 731 1365 731 1365 691 1407 c 0,16,17
 656 1444 656 1444 617 1444 c 2,18,-1
 616 1444 l 2,19,20
 576 1444 576 1444 543 1415 c 1,21,22
 505 1385 505 1385 481 1291 c 0,23,24
 458 1201 458 1201 458 1138 c 0,25,26
 459 1127 459 1127 459 1119 c 0,27,28
 460 1101 460 1101 460 1083 c 0,29,30
 460 1045 460 1045 475 984 c 0,31,32
 498 891 498 891 536 851 c 0,33,34
 577 808 577 808 628 808 c 0,4,5
606 716 m 0,35,36
 552 716 552 716 498 748 c 0,37,38
 442 781 442 781 401 835 c 0,39,40
 360 887 360 887 339 956 c 0,41,42
 316 1029 316 1029 316 1120 c 0,43,44
 316 1201 316 1201 339 1284 c 0,45,46
 361 1364 361 1364 401 1417 c 0,47,48
 443 1473 443 1473 498 1504 c 0,49,50
 554 1536 554 1536 616 1536 c 0,51,52
 677 1536 677 1536 735 1503 c 0,53,54
 789 1472 789 1472 831 1417 c 0,55,56
 872 1363 872 1363 895 1284 c 128,-1,57
 918 1205 918 1205 918 1120 c 0,58,59
 918 1031 918 1031 895 961 c 0,60,61
 870 886 870 886 832 835 c 0,62,63
 790 780 790 780 735 748 c 128,-1,64
 680 716 680 716 606 716 c 0,35,36
EndSplineSet
Validated: 1
EndChar

StartChar: guillemotright
Encoding: 187 187 118
Width: 1251
GlyphClass: 2
Flags: W
DStem2: 354 1221 200 1060 0.577331 -0.81651<42.5493 553.784> 266 289 354 201 0.5547 0.83205<0 426.842> 751 1221 597 1060 0.577331 -0.81651<42.5493 553.784> 663 289 751 201 0.5547 0.83205<0 426.842>
LayerCount: 2
Fore
SplineSet
354 201 m 1,0,-1
 266 289 l 1,1,-1
 500 646 l 1,2,-1
 200 1060 l 1,3,-1
 354 1221 l 1,4,-1
 704 726 l 1,5,-1
 354 201 l 1,0,-1
751 201 m 1,6,-1
 663 289 l 1,7,-1
 897 646 l 1,8,-1
 597 1060 l 1,9,-1
 751 1221 l 1,10,-1
 1101 726 l 1,11,-1
 751 201 l 1,6,-1
EndSplineSet
Validated: 16385
EndChar

StartChar: onequarter
Encoding: 188 188 119
Width: 1536
GlyphClass: 2
Flags: W
HStem: 0 39.6357<1003.15 1064.66 1268.98 1331.33> 180 91<884.076 1098 1236.5 1286.84> 706.856 39.636<233.73 295.241 499.563 561.912> 1516 20G<441.62 467.08>
VStem: 328.58 138.5<758.424 1318.78> 1098 138.5<51.5677 180 271 530.111>
DStem2: 212 -227 346 -297 0.406428 0.913683<0 2231.98> 697.522 180 884.076 271 0.629996 0.776598<188.199 524.195>
LayerCount: 2
Fore
SplineSet
884.076 271 m 1,0,-1
 1098 271 l 1,1,-1
 1098 530.111 l 1,2,-1
 884.076 271 l 1,0,-1
1098 180 m 1,3,-1
 697.522 180 l 1,4,-1
 1236.5 844.4 l 1,5,-1
 1236.5 271 l 1,6,-1
 1336.8 271 l 1,7,-1
 1286.84 180 l 1,8,-1
 1236.5 180 l 1,9,-1
 1236.5 96.1953 l 1,10,11
 1259.43 51.3115 1259.43 51.3115 1315.59 39.5771 c 0,12,13
 1333.25 35.8877 1333.25 35.8877 1331.39 17.9434 c 128,-1,14
 1329.54 0 1329.54 0 1311.5 0 c 2,15,-1
 1023 0 l 2,16,17
 1004.83 0 1004.83 0 1003.09 18.0908 c 128,-1,18
 1001.36 36.1816 1001.36 36.1816 1019.2 39.6357 c 0,19,20
 1070.72 49.6104 1070.72 49.6104 1098 96.4619 c 1,21,-1
 1098 180 l 1,3,-1
233.672 724.947 m 128,-1,23
 231.938 743.038 231.938 743.038 249.779 746.492 c 0,24,25
 301.303 756.467 301.303 756.467 328.58 803.318 c 1,26,-1
 328.58 1273.36 l 2,27,28
 328.58 1282.17 328.58 1282.17 326.035 1289.09 c 128,-1,29
 323.49 1296.02 323.49 1296.02 316.247 1303.7 c 128,-1,30
 309.004 1311.37 309.004 1311.37 292.788 1316.37 c 128,-1,31
 276.572 1321.37 276.572 1321.37 252.319 1322.9 c 2,32,-1
 200 1326.2 l 1,33,-1
 467.08 1536 l 1,34,-1
 467.08 803.052 l 1,35,36
 490.012 758.168 490.012 758.168 546.171 746.434 c 0,37,38
 563.829 742.744 563.829 742.744 561.974 724.8 c 128,-1,39
 560.119 706.856 560.119 706.856 542.08 706.856 c 2,40,-1
 253.58 706.856 l 2,41,22
 235.406 706.856 235.406 706.856 233.672 724.947 c 128,-1,23
212 -227 m 1,42,-1
 1120 1815 l 1,43,-1
 1257 1751 l 1,44,-1
 346 -297 l 1,45,-1
 212 -227 l 1,42,-1
EndSplineSet
Validated: 1
EndChar

StartChar: onehalf
Encoding: 189 189 120
Width: 1691
GlyphClass: 2
Flags: W
HStem: -21 21G<869.5 892.105> -3 138<1108.46 1411.62> 53 135<1028 1244.5> 707 39<234.066 295.48 498.75 561.934> 726 94<1038.36 1242.84> 1516 20G<441.571 467>
VStem: 329 138<758.234 1318.31> 893 170<478.628 628.766> 1271 151<453.561 682.024>
DStem2: 212 -227 346 -297 0.406428 0.913683<0 2231.98> 1177 163 1046 48 0.981757 -0.190143<-148.314 147.096>
LayerCount: 2
Fore
SplineSet
870 -21 m 1,0,1
 869 -9 869 -9 869 3 c 0,2,3
 869 5 869 5 869 7 c 0,4,5
 868.97 8.75758 868.97 8.75758 868.97 10.5363 c 0,6,7
 868.97 67.4545 868.97 67.4545 900 146 c 8,8,9
 941 250 941 250 999 308 c 24,10,11
 1050 358 1050 358 1117 391 c 1,12,-1
 1152 406 l 1,13,14
 1271 452 1271 452 1271 573 c 0,15,16
 1271 581 l 2,17,-1
 1271 591 l 2,18,19
 1271 652 1271 652 1244 683 c 0,20,21
 1207 726 1207 726 1158 726 c 2,22,-1
 1157 726 l 2,23,24
 1087 726 1087 726 1044 688 c 0,25,26
 1018 665 1018 665 1007 635 c 1,27,28
 1022 628 1022 628 1038 614 c 0,29,30
 1063 591 1063 591 1063 553 c 0,31,32
 1063 552 1063 552 1063 550 c 0,33,34
 1064 518 1064 518 1038 492 c 0,35,36
 1013 467 1013 467 981 467 c 0,37,38
 981 467 981 467 978 467 c 0,39,40
 945 467 945 467 918 494 c 0,41,42
 893 519 893 519 893 555 c 0,43,44
 894 663 894 663 972 742 c 0,45,46
 1049 820 1049 820 1149 820 c 2,47,-1
 1156 820 l 2,48,49
 1159 820 1159 820 1162 820 c 128,-1,50
 1165 820 1165 820 1168 820 c 0,51,52
 1262 820 1262 820 1341 755 c 0,53,54
 1421 689 1421 689 1422 578 c 1,55,-1
 1421 557 l 1,56,57
 1414 442 1414 442 1325 384 c 0,58,59
 1273 350 1273 350 1196 318 c 1,60,61
 1113 291 1113 291 1028 188 c 1,62,63
 1030 188 1030 188 1031 188 c 2,64,-1
 1032 188 l 2,65,66
 1090 188 1090 188 1177 163 c 1,67,-1
 1285 139 l 2,68,69
 1303 135 1303 135 1322 135 c 0,70,71
 1380 135 1380 135 1426 181 c 2,72,-1
 1491 246 l 1,73,-1
 1487 228 l 2,74,75
 1436 -3 1436 -3 1329 -3 c 0,76,77
 1311 -3 1311 -3 1299 -1 c 8,78,79
 1208 14 1208 14 1148 25 c 1,80,-1
 1046 48 l 2,81,82
 1024 53 1024 53 1004 53 c 0,83,84
 952 53 952 53 912 17 c 2,85,-1
 870 -21 l 1,0,1
234 725 m 128,-1,87
 232 743 232 743 250 746 c 0,88,89
 299 754 299 754 329 803 c 1,90,-1
 329 1273 l 2,91,92
 329 1282 329 1282 326 1289 c 0,93,94
 322 1298 322 1298 316 1304 c 0,95,96
 309 1311 309 1311 293 1316 c 128,-1,97
 277 1321 277 1321 252 1323 c 2,98,-1
 200 1326 l 1,99,-1
 467 1536 l 1,100,-1
 467 803 l 1,101,102
 491 755 491 755 546 746 c 0,103,104
 564 743 564 743 562 725 c 128,-1,105
 560 707 560 707 542 707 c 2,106,-1
 254 707 l 2,107,86
 236 707 236 707 234 725 c 128,-1,87
212 -227 m 1,108,-1
 1120 1815 l 1,109,-1
 1257 1751 l 1,110,-1
 346 -297 l 1,111,-1
 212 -227 l 1,108,-1
EndSplineSet
Validated: 1
EndChar

StartChar: threequarters
Encoding: 190 190 121
Width: 1729
GlyphClass: 2
Flags: W
HStem: 0 39.6357<1196.15 1257.66 1461.98 1524.33> 180 91<1077.08 1291 1429.5 1479.84> 714.994 93.5<345.776 558.711> 1456.06 79.9399<374.121 533.542>
VStem: 200 170<905.655 1040.38> 257.5 170<1280.11 1415.11> 552.36 141.183<1256.84 1440.96> 588 151.022<944.648 1094.28> 1291 138.5<51.5677 180 271 530.111>
DStem2: 391 -227 525 -297 0.406428 0.913683<0 2231.98> 890.522 180 1077.08 271 0.629996 0.776598<188.201 524.195>
LayerCount: 2
Fore
SplineSet
1077.08 271 m 1,0,-1
 1291 271 l 1,1,-1
 1291 530.111 l 1,2,-1
 1077.08 271 l 1,0,-1
1291 180 m 1,3,-1
 890.522 180 l 1,4,-1
 1429.5 844.4 l 1,5,-1
 1429.5 271 l 1,6,-1
 1529.8 271 l 1,7,-1
 1479.84 180 l 1,8,-1
 1429.5 180 l 1,9,-1
 1429.5 96.1953 l 1,10,11
 1452.43 51.3115 1452.43 51.3115 1508.59 39.5771 c 0,12,13
 1526.25 35.8877 1526.25 35.8877 1524.39 17.9434 c 128,-1,14
 1522.54 0 1522.54 0 1504.5 0 c 2,15,-1
 1216 0 l 2,16,17
 1197.83 0 1197.83 0 1196.09 18.0908 c 128,-1,18
 1194.36 36.1816 1194.36 36.1816 1212.2 39.6357 c 0,19,20
 1263.72 49.6104 1263.72 49.6104 1291 96.4619 c 1,21,-1
 1291 180 l 1,3,-1
224.67 1041.2 m 128,-1,23
 249.34 1067.49 249.34 1067.49 284.851 1067.49 c 128,-1,24
 320.361 1067.49 320.361 1067.49 345.181 1042.35 c 128,-1,25
 370 1017.2 370 1017.2 370 981.5 c 128,-1,26
 370 945.799 370 945.799 345.236 920.697 c 0,27,28
 331.185 906.453 331.185 906.453 313.438 900.121 c 1,29,30
 324.94 869.882 324.94 869.882 351.135 847.076 c 0,31,32
 395.45 808.494 395.45 808.494 464 808.494 c 0,33,34
 521.017 808.494 521.017 808.494 559.994 852.717 c 0,35,36
 588 884.49 588 884.49 588 953.994 c 2,37,-1
 588.001 963.654 l 2,38,39
 588.055 967.039 588.055 967.039 588.056 970.331 c 0,40,41
 588.056 1021.42 588.056 1021.42 574.95 1048.88 c 0,42,43
 556.256 1088.05 556.256 1088.05 526.085 1107.74 c 0,44,45
 501.341 1123.88 501.341 1123.88 429.062 1155.14 c 2,46,-1
 391.968 1171.18 l 1,47,-1
 427.22 1190.94 l 2,48,49
 428.649 1191.74 428.649 1191.74 454.076 1205.75 c 128,-1,50
 479.503 1219.77 479.503 1219.77 492.45 1227.46 c 0,51,52
 517.812 1242.53 517.812 1242.53 530.336 1256.09 c 0,53,54
 552.36 1279.94 552.36 1279.94 552.36 1338 c 0,55,56
 552.36 1345.18 552.36 1345.18 552.021 1352.58 c 0,57,58
 550.294 1390.24 550.294 1390.24 530.207 1423.79 c 1,59,-1
 526.571 1428.08 l 1,60,61
 496.568 1455.23 496.568 1455.23 470.016 1456 c 0,62,63
 466.781 1456.06 466.781 1456.06 463.516 1456.06 c 0,64,65
 422.021 1456.06 422.021 1456.06 401.558 1445.66 c 0,66,67
 381.912 1435.68 381.912 1435.68 372.43 1419.82 c 1,68,69
 389.287 1413.42 389.287 1413.42 402.736 1399.79 c 0,70,71
 427.5 1374.69 427.5 1374.69 427.5 1338.99 c 128,-1,72
 427.5 1303.29 427.5 1303.29 402.681 1278.14 c 128,-1,73
 377.861 1252.99 377.861 1252.99 342.351 1252.99 c 128,-1,74
 306.84 1252.99 306.84 1252.99 282.17 1279.29 c 128,-1,75
 257.5 1305.58 257.5 1305.58 257.5 1340.99 c 0,76,77
 257.5 1406.64 257.5 1406.64 329.789 1486.54 c 1,78,79
 383.186 1536 383.186 1536 467.05 1536 c 2,80,-1
 468.845 1535.99 l 2,81,82
 555.377 1535.46 555.377 1535.46 607.915 1501.25 c 0,83,84
 686.2 1450.28 686.2 1450.28 692.942 1362.01 c 0,85,86
 693.543 1354.14 693.543 1354.14 693.543 1346.35 c 0,87,88
 693.543 1280.45 693.543 1280.45 651.74 1232.01 c 0,89,90
 651.391 1231.6 651.391 1231.6 631.143 1211.35 c 2,91,-1
 630.359 1210.57 l 1,92,-1
 629.494 1209.88 l 2,93,94
 605.453 1190.65 605.453 1190.65 575.252 1176.19 c 1,95,-1
 589.656 1171.52 l 2,96,97
 632.982 1157.46 632.982 1157.46 673.514 1120.24 c 0,98,99
 732.985 1065.63 732.985 1065.63 738.481 967.799 c 1,100,-1
 739.022 945.812 l 1,101,-1
 738.915 944.648 l 2,102,103
 728.614 833.51 728.614 833.51 652.231 774.252 c 128,-1,104
 575.849 714.994 575.849 714.994 465.901 714.994 c 128,-1,105
 355.954 714.994 355.954 714.994 278.334 792.876 c 0,106,107
 200 871.475 200 871.475 200 979.494 c 0,108,22
 200 1014.91 200 1014.91 224.67 1041.2 c 128,-1,23
391 -227 m 1,109,-1
 1299 1815 l 1,110,-1
 1436 1751 l 1,111,-1
 525 -297 l 1,112,-1
 391 -227 l 1,109,-1
EndSplineSet
Validated: 1
EndChar

StartChar: questiondown
Encoding: 191 191 122
Width: 1257
GlyphClass: 2
Flags: W
HStem: -25 116<491.569 816.969> 1272 264<578.191 759.809>
VStem: 130 215<234.719 614.624> 539 260<1311.71 1496.29> 634 93<978.1 1123> 867 260<370.438 560.293>
DStem2: 303 769 575 819 0.830876 0.556458<31.5274 412.791>
LayerCount: 2
Fore
SplineSet
799 1404 m 128,-1,1
 799 1349 799 1349 761 1310.5 c 128,-1,2
 723 1272 723 1272 669 1272 c 128,-1,3
 615 1272 615 1272 577 1310.5 c 128,-1,4
 539 1349 539 1349 539 1404 c 128,-1,5
 539 1459 539 1459 577 1497.5 c 128,-1,6
 615 1536 615 1536 669 1536 c 128,-1,7
 723 1536 723 1536 761 1497.5 c 128,-1,0
 799 1459 799 1459 799 1404 c 128,-1,1
727 1123 m 1,8,-1
 727 1082 l 1,9,10
 721 941 721 941 605 841 c 1,11,-1
 575 819 l 2,12,13
 362 663 362 663 345 469 c 1,14,-1
 345 439 l 2,15,16
 345 301 345 301 385 239 c 0,17,18
 473 101 473 101 644 91 c 1,19,20
 791 92 791 92 884 187 c 0,21,22
 955 259 955 259 982.917 336.68 c 1,23,24
 938 341 938 341 905 374.5 c 0,25,26
 867 413 867 413 867 468 c 128,-1,27
 867 523 867 523 905 561.5 c 128,-1,28
 943 600 943 600 997 600 c 128,-1,29
 1051 600 1051 600 1089 561.5 c 128,-1,30
 1127 523 1127 523 1127 468 c 0,31,32
 1127 266 1127 266 982 119 c 1,33,34
 837 -25 837 -25 633 -25 c 128,-1,35
 429 -25 429 -25 279.5 102.5 c 128,-1,36
 130 230 130 230 130 434 c 1,37,-1
 131 475 l 1,38,39
 145.987 663.845 145.987 663.845 303 769 c 2,40,-1
 521 915 l 1,41,42
 634 989 634 989 634 1108 c 2,43,-1
 634 1123 l 1,44,-1
 727 1123 l 1,8,-1
EndSplineSet
Validated: 16385
EndChar

StartChar: Delta
Encoding: 916 916 123
Width: 1420
GlyphClass: 2
Flags: W
HStem: 0 106<282 1042>
DStem2: 170 148 282 106 0.356271 0.934383<0.658241 1077.32> 705 1551 663 1113 0.361715 -0.932289<393.15 1469.06>
LayerCount: 2
Fore
SplineSet
-20 0 m 1,0,1
 103 24 103 24 167 140 c 1,2,-1
 170 148 l 1,3,-1
 705 1551 l 1,4,-1
 1250 148 l 1,5,-1
 1251 145 l 1,6,-1
 1254 136 l 1,7,8
 1318 24 1318 24 1440 0 c 1,9,-1
 -20 0 l 1,0,1
282 106 m 1,10,-1
 1042 106 l 1,11,-1
 663 1113 l 1,12,-1
 282 106 l 1,10,-1
EndSplineSet
Validated: 1
EndChar

StartChar: Pi
Encoding: 928 928 124
Width: 1488
GlyphClass: 2
Flags: W
HStem: 0 21G<60 638 850 1428> 1391 120<448 1040>
VStem: 250 198<140 1371> 1040 198<140 1372>
LayerCount: 2
Fore
SplineSet
60 0 m 1,0,1
 184 24 184 24 248 140 c 1,2,-1
 250 148 l 1,3,-1
 250 1363 l 1,4,-1
 248 1371 l 1,5,6
 184 1487 184 1487 60 1511 c 1,7,-1
 1428 1511 l 1,8,9
 1294 1483 1294 1483 1240 1372 c 1,10,-1
 1238 1363 l 1,11,-1
 1238 148 l 1,12,-1
 1240 139 l 1,13,14
 1294 28 1294 28 1428 0 c 1,15,-1
 850 0 l 1,16,17
 974 24 974 24 1038 140 c 1,18,-1
 1040 148 l 1,19,-1
 1040 1391 l 1,20,-1
 448 1391 l 1,21,-1
 448 148 l 1,22,-1
 450 139 l 1,23,24
 504 28 504 28 638 0 c 1,25,-1
 60 0 l 1,0,1
EndSplineSet
Validated: 16385
EndChar

StartChar: Sigma
Encoding: 931 931 125
Width: 1382
GlyphClass: 2
Flags: W
HStem: 0 102<470.15 1045> 1409 102<470.15 915>
DStem2: 470.15 1409 250 1363 0.584717 -0.811237<0 665.772>
LayerCount: 2
Fore
SplineSet
470.15 102 m 1,0,-1
 1031 102 l 1,1,-1
 1045 103 l 1,2,3
 1116.15 110 1116.15 110 1322.15 321.627 c 1,4,-1
 1136 0 l 1,5,-1
 60 0 l 1,6,7
 157.15 39 157.15 39 243.15 137 c 1,8,-1
 250 148 l 1,9,-1
 686.15 744 l 1,10,-1
 250 1363 l 1,11,-1
 243.15 1374 l 1,12,13
 160.15 1489 160.15 1489 60 1511 c 1,14,-1
 1006 1511 l 1,15,-1
 1192.15 1189.37 l 1,16,17
 986.15 1401 986.15 1401 915 1408 c 1,18,-1
 901 1409 l 1,19,-1
 470.15 1409 l 1,20,-1
 947.301 747 l 1,21,-1
 470.15 102 l 1,0,-1
EndSplineSet
Validated: 16385
EndChar

StartChar: Omega
Encoding: 937 937 126
Width: 1516
GlyphClass: 2
Flags: W
HStem: 0 194<277 512 1001 1239> 1431 105<617.581 891.251>
VStem: 198 208<616.75 1111.04> 512 104<194 274.999> 900 101<193 271> 1112 210<620.91 1106.98>
LayerCount: 2
Fore
SplineSet
0 414 m 1,0,1
 206 202 206 202 277 195 c 1,2,-1
 291 194 l 1,3,-1
 512 194 l 1,4,-1
 512 271 l 1,5,6
 504 275 504 275 503 275 c 0,7,8
 463 304 463 304 367 413 c 0,9,10
 277 516 277 516 241 620 c 0,11,12
 198 744 198 744 198 851 c 0,13,14
 198 855 198 855 198 860 c 0,15,16
 198 985 198 985 241 1108 c 0,17,18
 275 1205 275 1205 375 1329 c 0,19,20
 451 1423 451 1423 542 1476 c 0,21,22
 645 1536 645 1536 760 1536 c 0,23,24
 868 1536 868 1536 978 1476 c 0,25,26
 1070 1426 1070 1426 1155 1326 c 1,27,28
 1225 1243 1225 1243 1278 1107 c 0,29,30
 1322 994 1322 994 1322 866 c 0,31,32
 1322 863 1322 863 1322 860 c 0,33,34
 1322 717 1322 717 1277 620 c 0,35,36
 1226 510 1226 510 1160 431 c 0,37,38
 1069 322 1069 322 1010 276 c 1,39,-1
 1001 271 l 9,40,-1
 1001 193 l 18,41,-1
 1225 193 l 1,42,-1
 1239 194 l 1,43,44
 1310 201 1310 201 1516 413 c 1,45,-1
 1330 -1 l 1,46,-1
 900 -1 l 9,47,-1
 900 374 l 17,48,49
 929 394 929 394 957 421 c 1,50,51
 1045 516 1045 516 1072 598 c 0,52,53
 1112 720 1112 720 1112 846 c 0,54,55
 1113 859 1113 859 1112 874 c 0,56,57
 1101 1041 1101 1041 1076 1128 c 1,58,59
 1036 1243 1036 1243 938 1346 c 0,60,61
 857 1431 857 1431 761 1431 c 0,62,-1
 759 1431 l 0,63,64
 661 1430 661 1430 588 1364 c 0,65,66
 512 1295 512 1295 449 1142 c 0,67,68
 406 1037 406 1037 406 862 c 0,69,70
 406 730 406 730 437 642 c 0,71,72
 479 522 479 522 569 418 c 0,73,74
 588 396 588 396 616 375 c 9,75,-1
 616 0 l 17,76,-1
 186 0 l 1,77,-1
 0 414 l 1,0,1
EndSplineSet
Validated: 1
EndChar

StartChar: mu
Encoding: 956 956 127
Width: 1287
GlyphClass: 2
Flags: W
HStem: -433 21G<27 115> -25 122<557.858 828.862> 1077 5G<388 408 690 1268>
VStem: 210 198<-182.907 68 272.209 914.684> 880 198<162.316 937>
LayerCount: 2
Fore
SplineSet
20 -433 m 1,0,1
 210 -230 210 -230 210 19 c 2,2,-1
 210 27 l 1,3,-1
 210 880 l 2,4,5
 210 905 210 905 197 915 c 0,6,7
 176 931 176 931 136 940 c 0,8,9
 48 960 48 960 20 962 c 1,10,11
 76 987 76 987 326 1076 c 0,12,13
 368 1091 368 1091 408 1102 c 1,14,-1
 408 543 l 1,15,-1
 408 539 l 2,16,17
 408 311 408 311 495 201 c 0,18,19
 577 97 577 97 692 97 c 0,20,21
 694 97 694 97 696 97 c 0,22,23
 823 97 823 97 880 189 c 1,24,-1
 880 929 l 1,25,-1
 878 938 l 1,26,27
 824 1049 824 1049 690 1077 c 1,28,-1
 1268 1077 l 1,29,30
 1144 1053 1144 1053 1080 937 c 1,31,-1
 1078 929 l 1,32,-1
 1078 197 l 2,33,34
 1078 172 1078 172 1091 162 c 0,35,36
 1111 146 1111 146 1152 137 c 0,37,38
 1243 117 1243 117 1268 115 c 1,39,40
 1212 90 1212 90 962 1 c 0,41,42
 920 -14 920 -14 880 -25 c 1,43,-1
 880 52 l 1,44,-1
 877 50 l 2,45,46
 777 -25 777 -25 654 -25 c 128,-1,47
 531 -25 531 -25 431 50 c 0,48,49
 419 59 419 59 408 68 c 1,50,-1
 408 27 l 1,51,-1
 408 19 l 2,52,53
 408 -316 408 -316 27 -432 c 1,54,-1
 20 -433 l 1,0,1
EndSplineSet
Validated: 1
EndChar

StartChar: pi
Encoding: 960 960 128
Width: 1270
GlyphClass: 2
Flags: W
HStem: 0 21G<20 598 672 1250> 980 120<408 862>
VStem: 210 198<140 977.563> 862 198<140 961>
LayerCount: 2
Fore
SplineSet
20 0 m 1,0,1
 144 24 144 24 208 140 c 1,2,-1
 210 148 l 1,3,-1
 210 952 l 1,4,-1
 208 960 l 1,5,6
 144 1076 144 1076 20 1100 c 1,7,-1
 1250 1100 l 1,8,9
 1116 1072 1116 1072 1062 961 c 1,10,-1
 1060 952 l 1,11,-1
 1060 148 l 1,12,-1
 1062 139 l 1,13,14
 1116 28 1116 28 1250 0 c 1,15,-1
 672 0 l 1,16,17
 796 24 796 24 860 140 c 1,18,-1
 862 148 l 1,19,-1
 862 980 l 1,20,-1
 408 980 l 1,21,-1
 408 148 l 1,22,-1
 410 139 l 1,23,24
 464 28 464 28 598 0 c 1,25,-1
 20 0 l 1,0,1
EndSplineSet
Validated: 1
EndChar

StartChar: uni2010
Encoding: 8208 8208 129
Width: 920
GlyphClass: 2
Flags: W
HStem: 601 197<200 720>
VStem: 200 520<601 797>
LayerCount: 2
Fore
SplineSet
200 798 m 1,0,-1
 720 797 l 1,1,-1
 720 600 l 1,2,-1
 200 601 l 1,3,-1
 200 798 l 1,0,-1
EndSplineSet
Validated: 1
EndChar

StartChar: uni2011
Encoding: 8209 8209 130
Width: 920
GlyphClass: 2
Flags: W
HStem: 601 197<200 720>
VStem: 200 520<601 797>
LayerCount: 2
Fore
SplineSet
200 798 m 1,0,-1
 720 797 l 1,1,-1
 720 600 l 1,2,-1
 200 601 l 1,3,-1
 200 798 l 1,0,-1
EndSplineSet
Validated: 1
EndChar

StartChar: figuredash
Encoding: 8210 8210 131
Width: 1233
GlyphClass: 2
Flags: W
HStem: 601 197<200 1033>
LayerCount: 2
Fore
SplineSet
200 798 m 1,0,-1
 1033 798 l 1,1,-1
 1033 601 l 1,2,-1
 200 601 l 1,3,-1
 200 798 l 1,0,-1
EndSplineSet
Validated: 1
EndChar

StartChar: endash
Encoding: 8211 8211 132
Width: 1233
GlyphClass: 2
Flags: W
HStem: 601 197<200 1033>
LayerCount: 2
Fore
SplineSet
200 798 m 1,0,-1
 1033 798 l 1,1,-1
 1033 601 l 1,2,-1
 200 601 l 1,3,-1
 200 798 l 1,0,-1
EndSplineSet
Validated: 1
EndChar

StartChar: emdash
Encoding: 8212 8212 133
Width: 1073
GlyphClass: 2
Flags: W
HStem: 600 197<0 1073>
LayerCount: 2
Fore
SplineSet
0 797 m 1,0,-1
 1073 797 l 1,1,-1
 1073 600 l 1,2,-1
 0 600 l 1,3,-1
 0 797 l 1,0,-1
EndSplineSet
Validated: 1
EndChar

StartChar: afii00208
Encoding: 8213 8213 134
Width: 1073
GlyphClass: 2
Flags: W
HStem: 600 197<0 1073>
LayerCount: 2
Fore
SplineSet
0 797 m 1,0,-1
 1073 797 l 1,1,-1
 1073 600 l 1,2,-1
 0 600 l 1,3,-1
 0 797 l 1,0,-1
EndSplineSet
Validated: 1
EndChar

StartChar: underscoredbl
Encoding: 8215 8215 135
Width: 1233
GlyphClass: 2
Flags: W
HStem: 0 197<200 1033>
LayerCount: 2
Fore
SplineSet
200 197 m 1,0,-1
 1033 197 l 1,1,-1
 1033 0 l 1,2,-1
 200 0 l 1,3,-1
 200 197 l 1,0,-1
EndSplineSet
Validated: 1
EndChar

StartChar: quoteleft
Encoding: 8216 8216 136
Width: 712
GlyphClass: 2
Flags: W
HStem: 1026 512
VStem: 200 277<1071.86 1256.24> 200 180<1264.54 1374.82>
LayerCount: 2
Fore
SplineSet
512 1536 m 0,0,1
 502 1526 l 0,2,3
 429 1458 429 1458 402 1394 c 0,4,5
 383.491 1347.73 383.491 1347.73 380 1307 c 0,6,-1
 380 1286 l 0,7,8
 413 1278 413 1278 439 1252 c 0,9,10
 477 1214 477 1214 477 1158 c 0,11,12
 477 1103 477 1103 439 1064.5 c 128,-1,13
 401 1026 401 1026 347 1026 c 0,14,15
 299 1026 299 1026 255 1062 c 0,16,17
 212 1097 212 1097 203 1164 c 0,18,19
 200 1187 200 1187 200 1209 c 0,20,21
 200 1289 200 1289 239 1366 c 0,22,23
 312 1509 312 1509 421 1532 c 0,24,25
 450 1538 450 1538 478 1538 c 0,26,27
 494 1538 494 1538 512 1536 c 0,0,1
EndSplineSet
Validated: 1
EndChar

StartChar: quoteright
Encoding: 8217 8217 137
Width: 712
GlyphClass: 2
Flags: W
HStem: 1026 512
VStem: 235 277<1307.76 1492.14> 332 180<1189.18 1299.46>
LayerCount: 2
Fore
SplineSet
200 1028 m 0,0,1
 210 1038 l 0,2,3
 283 1106 283 1106 310 1170 c 0,4,5
 328.509 1216.27 328.509 1216.27 332 1257 c 0,6,-1
 332 1278 l 0,7,8
 299 1286 299 1286 273 1312 c 0,9,10
 235 1350 235 1350 235 1406 c 0,11,12
 235 1461 235 1461 273 1499.5 c 128,-1,13
 311 1538 311 1538 365 1538 c 0,14,15
 413 1538 413 1538 457 1502 c 0,16,17
 500 1467 500 1467 509 1400 c 0,18,19
 512 1377 512 1377 512 1355 c 0,20,21
 512 1275 512 1275 473 1198 c 0,22,23
 400 1055 400 1055 291 1032 c 0,24,25
 262 1026 262 1026 234 1026 c 0,26,27
 218 1026 218 1026 200 1028 c 0,0,1
EndSplineSet
Validated: 1
EndChar

StartChar: quotesinglbase
Encoding: 8218 8218 138
Width: 712
GlyphClass: 2
Flags: W
HStem: -277 512
VStem: 235 277<4.7644 189.136> 332 180<-113.82 -3.54248>
LayerCount: 2
Fore
SplineSet
200 -275 m 0,0,1
 210 -265 l 0,2,3
 283 -197 283 -197 310 -133 c 0,4,5
 328.509 -86.7275 328.509 -86.7275 332 -46 c 0,6,-1
 332 -25 l 0,7,8
 299 -17 299 -17 273 9 c 0,9,10
 235 47 235 47 235 103 c 0,11,12
 235 158 235 158 273 196.5 c 128,-1,13
 311 235 311 235 365 235 c 0,14,15
 413 235 413 235 457 199 c 0,16,17
 500 164 500 164 509 97 c 0,18,19
 512 74 512 74 512 52 c 0,20,21
 512 -28 512 -28 473 -105 c 0,22,23
 400 -248 400 -248 291 -271 c 0,24,25
 262 -277 262 -277 234 -277 c 0,26,27
 218 -277 218 -277 200 -275 c 0,0,1
EndSplineSet
Validated: 1
EndChar

StartChar: quotereversed
Encoding: 8219 8219 139
Width: 712
GlyphClass: 2
Flags: W
HStem: 1026 512
VStem: 200 277<1307.76 1492.14> 200 180<1189.18 1299.46>
LayerCount: 2
Fore
SplineSet
512 1028 m 0,0,1
 494 1026 494 1026 478 1026 c 0,2,3
 450 1026 450 1026 421 1032 c 0,4,5
 312 1055 312 1055 239 1198 c 0,6,7
 200 1275 200 1275 200 1355 c 0,8,9
 200 1377 200 1377 203 1400 c 0,10,11
 212 1467 212 1467 255 1502 c 0,12,13
 299 1538 299 1538 347 1538 c 0,14,15
 401 1538 401 1538 439 1499.5 c 128,-1,16
 477 1461 477 1461 477 1406 c 0,17,18
 477 1350 477 1350 439 1312 c 0,19,20
 413 1286 413 1286 380 1278 c 0,21,-1
 380 1257 l 0,22,23
 383.491 1216.27 383.491 1216.27 402 1170 c 0,24,25
 429 1106 429 1106 502 1038 c 0,26,-1
 512 1028 l 0,0,1
EndSplineSet
Validated: 1
EndChar

StartChar: quotedblleft
Encoding: 8220 8220 140
Width: 1069
GlyphClass: 2
Flags: W
HStem: 1026 512
VStem: 200 277<1071.86 1256.24> 200 180<1264.54 1374.82> 557 277<1071.86 1256.24> 557 180<1264.54 1374.82>
LayerCount: 2
Fore
SplineSet
869 1536 m 0,0,1
 859 1526 l 0,2,3
 786 1458 786 1458 759 1394 c 0,4,5
 740.491 1347.73 740.491 1347.73 737 1307 c 0,6,-1
 737 1286 l 0,7,8
 770 1278 770 1278 796 1252 c 0,9,10
 834 1214 834 1214 834 1158 c 0,11,12
 834 1103 834 1103 796 1064.5 c 128,-1,13
 758 1026 758 1026 704 1026 c 0,14,15
 656 1026 656 1026 612 1062 c 0,16,17
 569 1097 569 1097 560 1164 c 0,18,19
 557 1187 557 1187 557 1209 c 0,20,21
 557 1289 557 1289 596 1366 c 0,22,23
 669 1509 669 1509 778 1532 c 0,24,25
 807 1538 807 1538 835 1538 c 0,26,27
 851 1538 851 1538 869 1536 c 0,0,1
512 1536 m 0,28,-1
 502 1526 l 0,29,30
 429 1458 429 1458 402 1394 c 0,31,32
 383.491 1347.73 383.491 1347.73 380 1307 c 0,33,-1
 380 1286 l 0,34,35
 413 1278 413 1278 439 1252 c 0,36,37
 477 1214 477 1214 477 1158 c 0,38,39
 477 1103 477 1103 439 1064.5 c 128,-1,40
 401 1026 401 1026 347 1026 c 0,41,42
 299 1026 299 1026 255 1062 c 0,43,44
 212 1097 212 1097 203 1164 c 0,45,46
 200 1187 200 1187 200 1209 c 0,47,48
 200 1289 200 1289 239 1366 c 0,49,50
 312 1509 312 1509 421 1532 c 0,51,52
 450 1538 450 1538 478 1538 c 0,53,54
 494 1538 494 1538 512 1536 c 0,28,-1
EndSplineSet
Validated: 1
EndChar

StartChar: quotedblright
Encoding: 8221 8221 141
Width: 1069
GlyphClass: 2
Flags: W
HStem: 1026 512
VStem: 235 277<1307.76 1492.14> 332 180<1189.18 1299.46> 592 277<1307.76 1492.14> 689 180<1189.18 1299.46>
LayerCount: 2
Fore
SplineSet
200 1028 m 0,0,1
 210 1038 l 0,2,3
 283 1106 283 1106 310 1170 c 0,4,5
 328.509 1216.27 328.509 1216.27 332 1257 c 0,6,-1
 332 1278 l 0,7,8
 299 1286 299 1286 273 1312 c 0,9,10
 235 1350 235 1350 235 1406 c 0,11,12
 235 1461 235 1461 273 1499.5 c 128,-1,13
 311 1538 311 1538 365 1538 c 0,14,15
 413 1538 413 1538 457 1502 c 0,16,17
 500 1467 500 1467 509 1400 c 0,18,19
 512 1377 512 1377 512 1355 c 0,20,21
 512 1275 512 1275 473 1198 c 0,22,23
 400 1055 400 1055 291 1032 c 0,24,25
 262 1026 262 1026 234 1026 c 0,26,27
 218 1026 218 1026 200 1028 c 0,0,1
557 1028 m 0,28,-1
 567 1038 l 0,29,30
 640 1106 640 1106 667 1170 c 0,31,32
 685.509 1216.27 685.509 1216.27 689 1257 c 0,33,-1
 689 1278 l 0,34,35
 656 1286 656 1286 630 1312 c 0,36,37
 592 1350 592 1350 592 1406 c 0,38,39
 592 1461 592 1461 630 1499.5 c 128,-1,40
 668 1538 668 1538 722 1538 c 0,41,42
 770 1538 770 1538 814 1502 c 0,43,44
 857 1467 857 1467 866 1400 c 0,45,46
 869 1377 869 1377 869 1355 c 0,47,48
 869 1275 869 1275 830 1198 c 0,49,50
 757 1055 757 1055 648 1032 c 0,51,52
 619 1026 619 1026 591 1026 c 0,53,54
 575 1026 575 1026 557 1028 c 0,28,-1
EndSplineSet
Validated: 1
EndChar

StartChar: quotedblbase
Encoding: 8222 8222 142
Width: 1069
GlyphClass: 2
Flags: W
HStem: -277 512
VStem: 235 277<4.7644 189.136> 332 180<-113.82 -3.54248> 592 277<4.7644 189.136> 689 180<-113.82 -3.54248>
LayerCount: 2
Fore
SplineSet
557 -275 m 0,0,-1
 567 -265 l 0,1,2
 640 -197 640 -197 667 -133 c 0,3,4
 685.509 -86.7275 685.509 -86.7275 689 -46 c 0,5,-1
 689 -25 l 0,6,7
 656 -17 656 -17 630 9 c 0,8,9
 592 47 592 47 592 103 c 0,10,11
 592 158 592 158 630 196.5 c 128,-1,12
 668 235 668 235 722 235 c 0,13,14
 770 235 770 235 814 199 c 0,15,16
 857 164 857 164 866 97 c 0,17,18
 869 74 869 74 869 52 c 0,19,20
 869 -28 869 -28 830 -105 c 0,21,22
 757 -248 757 -248 648 -271 c 0,23,24
 619 -277 619 -277 591 -277 c 0,25,26
 575 -277 575 -277 557 -275 c 0,0,-1
200 -275 m 0,27,-1
 210 -265 l 0,28,29
 283 -197 283 -197 310 -133 c 0,30,31
 328.509 -86.7275 328.509 -86.7275 332 -46 c 0,32,-1
 332 -25 l 0,33,34
 299 -17 299 -17 273 9 c 0,35,36
 235 47 235 47 235 103 c 0,37,38
 235 158 235 158 273 196.5 c 128,-1,39
 311 235 311 235 365 235 c 0,40,41
 413 235 413 235 457 199 c 0,42,43
 500 164 500 164 509 97 c 0,44,45
 512 74 512 74 512 52 c 0,46,47
 512 -28 512 -28 473 -105 c 0,48,49
 400 -248 400 -248 291 -271 c 0,50,51
 262 -277 262 -277 234 -277 c 0,52,53
 218 -277 218 -277 200 -275 c 0,27,-1
EndSplineSet
Validated: 1
EndChar

StartChar: uni201F
Encoding: 8223 8223 143
Width: 1069
GlyphClass: 2
Flags: W
HStem: 1026 512
VStem: 200 277<1307.76 1492.14> 200 180<1189.18 1299.46> 557 277<1307.76 1492.14> 557 180<1189.18 1299.46>
LayerCount: 2
Fore
SplineSet
869 1028 m 0,0,1
 851 1026 851 1026 835 1026 c 0,2,3
 807 1026 807 1026 778 1032 c 0,4,5
 669 1055 669 1055 596 1198 c 0,6,7
 557 1275 557 1275 557 1355 c 0,8,9
 557 1377 557 1377 560 1400 c 0,10,11
 569 1467 569 1467 612 1502 c 0,12,13
 656 1538 656 1538 704 1538 c 0,14,15
 758 1538 758 1538 796 1499.5 c 128,-1,16
 834 1461 834 1461 834 1406 c 0,17,18
 834 1350 834 1350 796 1312 c 0,19,20
 770 1286 770 1286 737 1278 c 0,21,-1
 737 1257 l 0,22,23
 740.491 1216.27 740.491 1216.27 759 1170 c 0,24,25
 786 1106 786 1106 859 1038 c 0,26,-1
 869 1028 l 0,0,1
512 1028 m 0,27,28
 494 1026 494 1026 478 1026 c 0,29,30
 450 1026 450 1026 421 1032 c 0,31,32
 312 1055 312 1055 239 1198 c 0,33,34
 200 1275 200 1275 200 1355 c 0,35,36
 200 1377 200 1377 203 1400 c 0,37,38
 212 1467 212 1467 255 1502 c 0,39,40
 299 1538 299 1538 347 1538 c 0,41,42
 401 1538 401 1538 439 1499.5 c 128,-1,43
 477 1461 477 1461 477 1406 c 0,44,45
 477 1350 477 1350 439 1312 c 0,46,47
 413 1286 413 1286 380 1278 c 0,48,-1
 380 1257 l 0,49,50
 383.491 1216.27 383.491 1216.27 402 1170 c 0,51,52
 429 1106 429 1106 502 1038 c 0,53,-1
 512 1028 l 0,27,28
EndSplineSet
Validated: 1
EndChar

StartChar: dagger
Encoding: 8224 8224 144
Width: 1233
GlyphClass: 2
Flags: W
HStem: 0 21G<518 715> 996 197<200 518 715 1033> 1491 20G<518 715>
VStem: 518 197<0 996 1193 1511>
LayerCount: 2
Fore
SplineSet
200 996 m 1,0,-1
 200 1193 l 1,1,-1
 518 1193 l 1,2,-1
 518 1511 l 1,3,-1
 715 1511 l 1,4,-1
 715 1193 l 1,5,-1
 1033 1193 l 1,6,-1
 1033 996 l 1,7,-1
 715 996 l 1,8,-1
 715 0 l 1,9,-1
 518 0 l 1,10,-1
 518 996 l 1,11,-1
 200 996 l 1,0,-1
EndSplineSet
Validated: 16385
EndChar

StartChar: daggerdbl
Encoding: 8225 8225 145
Width: 1233
GlyphClass: 2
Flags: W
HStem: 0 21G<518 715> 318 197<200 518 715 1033> 996 197<200 518 715 1033> 1491 20G<518 715>
VStem: 518 197<0 318 515 996 1193 1511>
LayerCount: 2
Fore
SplineSet
518 0 m 1,0,-1
 518 318 l 1,1,-1
 200 318 l 1,2,-1
 200 515 l 1,3,-1
 518 515 l 1,4,-1
 518 996 l 1,5,-1
 200 996 l 1,6,-1
 200 1193 l 1,7,-1
 518 1193 l 1,8,-1
 518 1511 l 1,9,-1
 715 1511 l 1,10,-1
 715 1193 l 1,11,-1
 1033 1193 l 1,12,-1
 1033 996 l 1,13,-1
 715 996 l 1,14,-1
 715 515 l 1,15,-1
 1033 515 l 1,16,-1
 1033 318 l 1,17,-1
 715 318 l 1,18,-1
 715 0 l 1,19,-1
 518 0 l 1,0,-1
EndSplineSet
Validated: 16385
EndChar

StartChar: bullet
Encoding: 8226 8226 146
Width: 980
GlyphClass: 2
Flags: W
HStem: 410 572<335.581 644.419>
VStem: 200 580<543.939 848.061>
LayerCount: 2
Fore
SplineSet
200 696 m 128,-1,1
 200 814 200 814 285 898 c 128,-1,2
 370 982 370 982 490 982 c 128,-1,3
 610 982 610 982 695 898 c 128,-1,4
 780 814 780 814 780 696 c 128,-1,5
 780 578 780 578 695 494 c 128,-1,6
 610 410 610 410 490 410 c 128,-1,7
 370 410 370 410 285 494 c 128,-1,0
 200 578 200 578 200 696 c 128,-1,1
EndSplineSet
Validated: 1
EndChar

StartChar: uni2023
Encoding: 8227 8227 147
Width: 978
GlyphClass: 2
Flags: W
VStem: 200 628
LayerCount: 2
Fore
SplineSet
200 296 m 1,0,-1
 200 1075 l 1,1,-1
 828 700 l 1,2,-1
 200 296 l 1,0,-1
EndSplineSet
Validated: 1
EndChar

StartChar: onedotenleader
Encoding: 8228 8228 148
Width: 660
GlyphClass: 2
Flags: W
HStem: -25 264<239.191 420.809>
VStem: 200 260<14.7072 199.293>
LayerCount: 2
Fore
SplineSet
200 107 m 128,-1,1
 200 162 200 162 238 200.5 c 128,-1,2
 276 239 276 239 330 239 c 128,-1,3
 384 239 384 239 422 200.5 c 128,-1,4
 460 162 460 162 460 107 c 128,-1,5
 460 52 460 52 422 13.5 c 128,-1,6
 384 -25 384 -25 330 -25 c 128,-1,7
 276 -25 276 -25 238 13.5 c 128,-1,0
 200 52 200 52 200 107 c 128,-1,1
EndSplineSet
Validated: 1
EndChar

StartChar: twodotenleader
Encoding: 8229 8229 149
Width: 1076
GlyphClass: 2
Flags: W
HStem: -25 264<239.191 420.809 655.191 836.809>
VStem: 200 260<14.7072 199.293> 616 260<14.7072 199.293>
LayerCount: 2
Fore
SplineSet
616 107 m 128,-1,1
 616 162 616 162 654 200.5 c 128,-1,2
 692 239 692 239 746 239 c 128,-1,3
 800 239 800 239 838 200.5 c 128,-1,4
 876 162 876 162 876 107 c 128,-1,5
 876 52 876 52 838 13.5 c 128,-1,6
 800 -25 800 -25 746 -25 c 128,-1,7
 692 -25 692 -25 654 13.5 c 128,-1,0
 616 52 616 52 616 107 c 128,-1,1
200 107 m 128,-1,9
 200 162 200 162 238 200.5 c 128,-1,10
 276 239 276 239 330 239 c 128,-1,11
 384 239 384 239 422 200.5 c 128,-1,12
 460 162 460 162 460 107 c 128,-1,13
 460 52 460 52 422 13.5 c 128,-1,14
 384 -25 384 -25 330 -25 c 128,-1,15
 276 -25 276 -25 238 13.5 c 128,-1,8
 200 52 200 52 200 107 c 128,-1,9
EndSplineSet
Validated: 1
EndChar

StartChar: ellipsis
Encoding: 8230 8230 150
Width: 1490
GlyphClass: 2
Flags: W
HStem: -25 264<239.191 420.809 655.191 836.809 1069.19 1250.81>
VStem: 200 260<14.7072 199.293> 616 260<14.7072 199.293> 1030 260<14.7072 199.293>
LayerCount: 2
Fore
SplineSet
1030 107 m 128,-1,1
 1030 162 1030 162 1068 200.5 c 128,-1,2
 1106 239 1106 239 1160 239 c 128,-1,3
 1214 239 1214 239 1252 200.5 c 128,-1,4
 1290 162 1290 162 1290 107 c 128,-1,5
 1290 52 1290 52 1252 13.5 c 128,-1,6
 1214 -25 1214 -25 1160 -25 c 128,-1,7
 1106 -25 1106 -25 1068 13.5 c 128,-1,0
 1030 52 1030 52 1030 107 c 128,-1,1
616 107 m 128,-1,9
 616 162 616 162 654 200.5 c 128,-1,10
 692 239 692 239 746 239 c 128,-1,11
 800 239 800 239 838 200.5 c 128,-1,12
 876 162 876 162 876 107 c 128,-1,13
 876 52 876 52 838 13.5 c 128,-1,14
 800 -25 800 -25 746 -25 c 128,-1,15
 692 -25 692 -25 654 13.5 c 128,-1,8
 616 52 616 52 616 107 c 128,-1,9
200 107 m 128,-1,17
 200 162 200 162 238 200.5 c 128,-1,18
 276 239 276 239 330 239 c 128,-1,19
 384 239 384 239 422 200.5 c 128,-1,20
 460 162 460 162 460 107 c 128,-1,21
 460 52 460 52 422 13.5 c 128,-1,22
 384 -25 384 -25 330 -25 c 128,-1,23
 276 -25 276 -25 238 13.5 c 128,-1,16
 200 52 200 52 200 107 c 128,-1,17
EndSplineSet
Validated: 1
EndChar

StartChar: uni2027
Encoding: 8231 8231 151
Width: 660
GlyphClass: 2
Flags: W
HStem: 568 264<239.191 420.809>
VStem: 200 260<607.707 792.293>
LayerCount: 2
Fore
SplineSet
200 700 m 128,-1,1
 200 755 200 755 238 793.5 c 128,-1,2
 276 832 276 832 330 832 c 128,-1,3
 384 832 384 832 422 793.5 c 128,-1,4
 460 755 460 755 460 700 c 128,-1,5
 460 645 460 645 422 606.5 c 128,-1,6
 384 568 384 568 330 568 c 128,-1,7
 276 568 276 568 238 606.5 c 128,-1,0
 200 645 200 645 200 700 c 128,-1,1
EndSplineSet
Validated: 1
EndChar

StartChar: perthousand
Encoding: 8240 8240 152
Width: 2435
GlyphClass: 2
Flags: W
HStem: -25 68<1183.08 1340.72 1847.08 2004.72> 576 88<1172.84 1351.07 1836.84 2015.07> 847 68<420.31 577.72> 1448 88<409.839 588.069>
VStem: 200 153<999.617 1371.22> 651 157<1012.27 1370.71> 963 153<127.734 499.224> 1414 157<140.268 498.712> 1627 153<127.734 499.224> 2078 157<140.268 498.712>
DStem2: 361 -227 495 -297 0.406428 0.913683<0 2231.98>
LayerCount: 2
Fore
SplineSet
1780 298 m 0,0,1
 1780 191 1780 191 1816 119 c 0,2,3
 1854 43 1854 43 1934 43 c 0,4,5
 1989 43 1989 43 2034 113 c 0,6,7
 2078 181 2078 181 2078 319 c 0,8,9
 2078 447 2078 447 2031 513 c 0,10,11
 1986 576 1986 576 1927 576 c 0,12,13
 1865 576 1865 576 1821 513 c 0,14,15
 1780 454 1780 454 1780 298 c 0,0,1
1627 312 m 0,16,17
 1627 413 1627 413 1668 492 c 0,18,19
 1710 573 1710 573 1778 618 c 0,20,21
 1848 664 1848 664 1931 664 c 0,22,23
 2013 664 2013 664 2084 618 c 0,24,25
 2152 574 2152 574 2194 492 c 0,26,27
 2235 412 2235 412 2235 311 c 0,28,29
 2235 225 2235 225 2194 147 c 0,30,31
 2152 67 2152 67 2084 21 c 128,-1,32
 2016 -25 2016 -25 1931 -25 c 0,33,34
 1854 -25 1854 -25 1778 21 c 0,35,36
 1703 66 1703 66 1662 144 c 0,37,38
 1627 210 1627 210 1627 312 c 0,16,17
361 -227 m 1,39,-1
 1269 1815 l 1,40,-1
 1406 1751 l 1,41,-1
 495 -297 l 1,42,-1
 361 -227 l 1,39,-1
1116 298 m 0,43,44
 1116 191 1116 191 1152 119 c 0,45,46
 1190 43 1190 43 1270 43 c 0,47,48
 1325 43 1325 43 1370 113 c 0,49,50
 1414 181 1414 181 1414 319 c 0,51,52
 1414 447 1414 447 1367 513 c 0,53,54
 1322 576 1322 576 1263 576 c 0,55,56
 1201 576 1201 576 1157 513 c 0,57,58
 1116 454 1116 454 1116 298 c 0,43,44
963 312 m 0,59,60
 963 413 963 413 1004 492 c 0,61,62
 1046 573 1046 573 1114 618 c 0,63,64
 1184 664 1184 664 1267 664 c 0,65,66
 1349 664 1349 664 1420 618 c 0,67,68
 1488 574 1488 574 1530 492 c 0,69,70
 1571 412 1571 412 1571 311 c 0,71,72
 1571 225 1571 225 1530 147 c 0,73,74
 1488 67 1488 67 1420 21 c 128,-1,75
 1352 -25 1352 -25 1267 -25 c 0,76,77
 1190 -25 1190 -25 1114 21 c 0,78,79
 1039 66 1039 66 998 144 c 0,80,81
 963 210 963 210 963 312 c 0,59,60
353 1170 m 0,82,83
 353 1061 353 1061 389 991 c 0,84,85
 428 915 428 915 507 915 c 0,86,87
 562 915 562 915 607 985 c 0,88,89
 651 1053 651 1053 651 1191 c 0,90,91
 651 1319 651 1319 604 1385 c 0,92,93
 559 1448 559 1448 500 1448 c 0,94,95
 438 1448 438 1448 394 1385 c 0,96,97
 353 1326 353 1326 353 1170 c 0,82,83
200 1184 m 0,98,99
 200 1285 200 1285 241 1364 c 0,100,101
 283 1445 283 1445 351 1490 c 0,102,103
 421 1536 421 1536 504 1536 c 0,104,105
 586 1536 586 1536 657 1490 c 0,106,107
 725 1446 725 1446 767 1364 c 0,108,109
 808 1284 808 1284 808 1183 c 0,110,111
 808 1097 808 1097 767 1019 c 0,112,113
 725 939 725 939 657 893 c 128,-1,114
 589 847 589 847 504 847 c 0,115,116
 427 847 427 847 351 893 c 0,117,118
 276 938 276 938 235 1016 c 0,119,120
 200 1082 200 1082 200 1184 c 0,98,99
EndSplineSet
Validated: 16385
EndChar

StartChar: minute
Encoding: 8242 8242 153
Width: 717
GlyphClass: 2
Flags: W
HStem: 1054.57 481.43
VStem: 200 317.074
DStem2: 200 1114.08 363.507 1054.57 0.342021 0.939692<0.00180165 448.998>
LayerCount: 2
Fore
SplineSet
517.074 1476.49 m 1,0,-1
 363.507 1054.57 l 1,1,-1
 200 1114.08 l 1,2,-1
 353.567 1536 l 1,3,-1
 517.074 1476.49 l 1,0,-1
EndSplineSet
Validated: 16385
EndChar

StartChar: second
Encoding: 8243 8243 154
Width: 1000
GlyphClass: 2
Flags: W
HStem: 1054.57 481.43
VStem: 200 600.507
DStem2: 200 1114.08 363.507 1054.57 0.342021 0.939692<0.00180165 448.998> 483.433 1114.08 646.939 1054.57 0.342023 0.939691<0.00183669 448.998>
LayerCount: 2
Fore
SplineSet
800.507 1476.49 m 1,0,-1
 646.939 1054.57 l 1,1,-1
 483.433 1114.08 l 1,2,-1
 637 1536 l 1,3,-1
 800.507 1476.49 l 1,0,-1
517.074 1476.49 m 1,4,-1
 363.507 1054.57 l 1,5,-1
 200 1114.08 l 1,6,-1
 353.567 1536 l 1,7,-1
 517.074 1476.49 l 1,4,-1
EndSplineSet
Validated: 16385
EndChar

StartChar: uni2034
Encoding: 8244 8244 155
Width: 1283
GlyphClass: 2
Flags: W
HStem: 1054.57 481.43
DStem2: 200 1114.08 363.507 1054.57 0.342021 0.939692<0.00180165 448.998> 483.433 1114.08 646.939 1054.57 0.342023 0.939691<0.00183669 448.998> 766.865 1114.08 930.372 1054.57 0.342023 0.939691<0.00218114 448.999>
LayerCount: 2
Fore
SplineSet
1083.94 1476.49 m 1,0,-1
 930.372 1054.57 l 1,1,-1
 766.865 1114.08 l 1,2,-1
 920.433 1536 l 1,3,-1
 1083.94 1476.49 l 1,0,-1
800.507 1476.49 m 1,4,-1
 646.939 1054.57 l 1,5,-1
 483.433 1114.08 l 1,6,-1
 637 1536 l 1,7,-1
 800.507 1476.49 l 1,4,-1
517.074 1476.49 m 1,8,-1
 363.507 1054.57 l 1,9,-1
 200 1114.08 l 1,10,-1
 353.567 1536 l 1,11,-1
 517.074 1476.49 l 1,8,-1
EndSplineSet
Validated: 16385
EndChar

StartChar: uni2035
Encoding: 8245 8245 156
Width: 717
GlyphClass: 2
Flags: W
HStem: 1054.57 481.43
VStem: 200 317.074
DStem2: 363.507 1536 200 1476.49 0.342021 -0.939692<0 448.996>
LayerCount: 2
Fore
SplineSet
200 1476.49 m 1,0,-1
 363.507 1536 l 1,1,-1
 517.074 1114.08 l 1,2,-1
 353.567 1054.57 l 1,3,-1
 200 1476.49 l 1,0,-1
EndSplineSet
Validated: 16385
EndChar

StartChar: uni2036
Encoding: 8246 8246 157
Width: 1000
GlyphClass: 2
Flags: W
HStem: 1054.57 481.43
VStem: 200 600.507
DStem2: 363.507 1536 200 1476.49 0.342021 -0.939692<0 448.996> 646.939 1536 483.433 1476.49 0.342023 -0.939691<0 448.996>
LayerCount: 2
Fore
SplineSet
200 1476.49 m 1,0,-1
 363.507 1536 l 1,1,-1
 517.074 1114.08 l 1,2,-1
 353.567 1054.57 l 1,3,-1
 200 1476.49 l 1,0,-1
483.433 1476.49 m 1,4,-1
 646.939 1536 l 1,5,-1
 800.507 1114.08 l 1,6,-1
 637 1054.57 l 1,7,-1
 483.433 1476.49 l 1,4,-1
EndSplineSet
Validated: 16385
EndChar

StartChar: uni2037
Encoding: 8247 8247 158
Width: 1283
GlyphClass: 2
Flags: W
HStem: 1054.57 481.43
DStem2: 363.507 1536 200 1476.49 0.342021 -0.939692<0 448.996> 646.939 1536 483.433 1476.49 0.342023 -0.939691<0 448.996> 930.372 1536 766.865 1476.49 0.342023 -0.939691<0 448.996>
LayerCount: 2
Fore
SplineSet
200 1476.49 m 1,0,-1
 363.507 1536 l 1,1,-1
 517.074 1114.08 l 1,2,-1
 353.567 1054.57 l 1,3,-1
 200 1476.49 l 1,0,-1
483.433 1476.49 m 1,4,-1
 646.939 1536 l 1,5,-1
 800.507 1114.08 l 1,6,-1
 637 1054.57 l 1,7,-1
 483.433 1476.49 l 1,4,-1
766.865 1476.49 m 1,8,-1
 930.372 1536 l 1,9,-1
 1083.94 1114.08 l 1,10,-1
 920.433 1054.57 l 1,11,-1
 766.865 1476.49 l 1,8,-1
EndSplineSet
Validated: 16385
EndChar

StartChar: guilsinglleft
Encoding: 8249 8249 159
Width: 854
GlyphClass: 2
Flags: W
VStem: 150 504
DStem2: 354 776 150 696 0.577331 -0.81651<0 511.235> 150 696 354 776 0.5547 0.83205<179.723 606.565>
LayerCount: 2
Fore
SplineSet
500 1221 m 1,0,-1
 588 1133 l 1,1,-1
 354 776 l 1,2,-1
 654 362 l 1,3,-1
 500 201 l 1,4,-1
 150 696 l 1,5,-1
 500 1221 l 1,0,-1
EndSplineSet
Validated: 16385
EndChar

StartChar: guilsinglright
Encoding: 8250 8250 160
Width: 854
GlyphClass: 2
Flags: W
VStem: 200 504
DStem2: 354 1221 200 1060 0.577331 -0.81651<42.5493 553.784> 266 289 354 201 0.5547 0.83205<0 426.842>
LayerCount: 2
Fore
SplineSet
354 201 m 1,0,-1
 266 289 l 1,1,-1
 500 646 l 1,2,-1
 200 1060 l 1,3,-1
 354 1221 l 1,4,-1
 704 726 l 1,5,-1
 354 201 l 1,0,-1
EndSplineSet
Validated: 16385
EndChar

StartChar: uni2043
Encoding: 8259 8259 161
Width: 1393
GlyphClass: 2
Flags: W
LayerCount: 2
Fore
SplineSet
200 721 m 1,0,-1
 543.875 826.54 l 1,1,-1
 464 969 l 1,2,-1
 607.331 899.08 l 1,3,-1
 697 1218 l 1,4,-1
 807.729 896.28 l 1,5,-1
 956 968 l 1,6,-1
 887.446 826.99 l 1,7,-1
 1193 721 l 1,8,-1
 880.805 622.5 l 1,9,-1
 956 477 l 1,10,-1
 805.477 561.099 l 1,11,-1
 697 225 l 1,12,-1
 603.416 555.097 l 1,13,-1
 464 476 l 1,14,-1
 542.785 625.339 l 1,15,-1
 200 721 l 1,0,-1
EndSplineSet
Validated: 1
EndChar

StartChar: fraction
Encoding: 8260 8260 162
Width: 1045
GlyphClass: 2
Flags: W
DStem2: 0 -227 134 -297 0.406428 0.913683<0 2231.98>
LayerCount: 2
Fore
SplineSet
0 -227 m 1,0,-1
 908 1815 l 1,1,-1
 1045 1751 l 1,2,-1
 134 -297 l 1,3,-1
 0 -227 l 1,0,-1
EndSplineSet
Validated: 1
EndChar

StartChar: Euro
Encoding: 8364 8364 163
Width: 1505
GlyphClass: 2
Flags: W
HStem: -25 111<728.246 1085.98> 440 197<150 274 520 983> 788 197<151 270 503 984> 1431 105<716.5 1030.43>
VStem: 269 212<637 788> 1172 122<1256.48 1334.2> 1294 0<959 1163>
LayerCount: 2
Fore
SplineSet
1405 354 m 1,0,1
 1368 269 1368 269 1317 200 c 1,2,3
 1238 96 1238 96 1137 39 c 0,4,5
 1024 -25 1024 -25 878 -25 c 0,6,7
 875 -25 875 -25 873 -25 c 0,8,9
 720 -25 720 -25 616 35 c 0,10,11
 509 96 509 96 433 197 c 0,12,13
 358 297 358 297 313 440 c 0,14,-1
 150 440 l 1,15,-1
 150 637 l 1,16,-1
 274 637 l 1,17,18
 269 689 269 689 269 744 c 0,19,20
 269 766 269 766 270 788 c 1,21,-1
 150 788 l 1,22,-1
 151 985 l 1,23,-1
 294 985 l 1,24,25
 302 1023 302 1023 313 1060 c 0,26,27
 359 1215 359 1215 433 1314 c 1,28,29
 511 1417 511 1417 613 1476 c 0,30,31
 716 1536 716 1536 821 1536 c 0,32,33
 826 1536 826 1536 831 1536 c 0,34,35
 947 1536 947 1536 1046 1484 c 0,36,37
 1114 1448 1114 1448 1154 1411 c 1,38,-1
 1162 1410 l 1,39,40
 1262 1418 1262 1418 1294 1537 c 1,41,-1
 1294 959 l 1,42,43
 1242 1163 1242 1163 1172 1279 c 1,44,45
 1138 1332 1138 1332 1085 1371 c 0,46,47
 1003 1431 1003 1431 891 1431 c 0,48,49
 762 1431 762 1431 653 1345 c 1,50,51
 569 1248 569 1248 526 1084 c 0,52,53
 513 1034 513 1034 503 985 c 1,54,-1
 984 985 l 1,55,-1
 984 788 l 1,56,-1
 481 788 l 1,57,58
 481 767 481 767 481 746 c 0,59,60
 481 698 481 698 486 637 c 1,61,-1
 983 637 l 1,62,-1
 983 440 l 1,63,-1
 520 440 l 1,64,65
 592 238 592 238 691 156 c 1,66,67
 773 86 773 86 909 86 c 0,68,69
 932 86 932 86 957 88 c 0,70,71
 1031 94 1031 94 1123 152 c 0,72,73
 1174 183 1174 183 1237 262 c 0,74,75
 1277 312 1277 312 1303 394 c 1,76,-1
 1405 354 l 1,0,1
EndSplineSet
Validated: 16385
EndChar

StartChar: afii61248
Encoding: 8453 8453 164
Width: 1860
GlyphClass: 2
Flags: W
HStem: -24 92<1277.61 1441.7> 704 92<1270.99 1438.22> 715 96<445.131 654.359> 1443 93<427.5 637.75>
VStem: 200 146<913.509 1344.54> 713 39<1208.1 1292.78 1486.33 1535.93> 1058 144<165.265 602.699> 1515 145<164.823 604.062>
DStem2: 419 -227 553 -297 0.406428 0.913683<0 2231.98>
LayerCount: 2
Fore
SplineSet
522 1443 m 0,0,1
 474 1443 474 1443 426 1406 c 1,2,3
 389 1363 389 1363 368 1285 c 0,4,5
 346 1203 346 1203 346 1128 c 0,6,7
 346 1083 l 0,8,9
 347 1041 347 1041 361 984 c 1,10,11
 396 881 396 881 444 841 c 0,12,13
 480 811 480 811 540 811 c 0,14,15
 546 811 546 811 562 812 c 0,16,17
 590 814 590 814 636 841 c 0,18,19
 658 854 658 854 688 891 c 0,20,21
 707 914 707 914 718 951 c 2,22,-1
 724 971 l 1,23,-1
 814 936 l 1,24,-1
 806 917 l 2,25,26
 789 876 789 876 760 836 c 0,27,28
 720 782 720 782 664 750 c 0,29,30
 603 715 603 715 524 715 c 0,31,32
 522 715 l 0,33,34
 438 716 438 716 383 748 c 0,35,36
 325 782 325 782 286 834 c 0,37,38
 245 889 245 889 223 961 c 0,39,40
 200 1035 200 1035 200 1120 c 0,41,42
 200 1204 200 1204 223 1284 c 128,-1,43
 246 1364 246 1364 286 1417 c 128,-1,44
 326 1470 326 1470 382 1503 c 128,-1,45
 438 1536 438 1536 496 1536 c 0,46,47
 502 1536 l 0,48,49
 571 1534 571 1534 618 1508 c 0,50,51
 649 1491 649 1491 670 1474 c 1,52,53
 700 1479 700 1479 713 1522 c 0,54,55
 718 1538 718 1538 735 1536 c 128,-1,56
 752 1534 752 1534 752 1516 c 2,57,-1
 752 1227 l 2,58,59
 752 1211 752 1211 735 1208 c 0,60,61
 717 1205 717 1205 713 1222 c 0,62,63
 692 1321 692 1321 655 1377 c 0,64,65
 640 1400 640 1400 616 1417 c 0,66,67
 580 1443 580 1443 522 1443 c 0,0,1
1202 343 m 0,68,69
 1203 300 1203 300 1217 244 c 0,70,71
 1240 153 1240 153 1279 111 c 0,72,73
 1319 68 1319 68 1371 68 c 0,74,75
 1395 68 1395 68 1443 112 c 1,76,77
 1477 154 1477 154 1496 222 c 0,78,79
 1515 291 1515 291 1515 371 c 0,80,81
 1515 378 1515 378 1515 387 c 0,82,83
 1515 477 1515 477 1496 537 c 1,84,85
 1474 621 1474 621 1433 667 c 0,86,87
 1400 704 1400 704 1360 704 c 2,88,-1
 1359 704 l 2,89,90
 1319 704 1319 704 1286 675 c 1,91,92
 1244 641 1244 641 1223 551 c 0,93,94
 1202 464 1202 464 1202 343 c 0,68,69
1058 380 m 24,95,96
 1058 458 1058 458 1081 540 c 0,97,98
 1105 625 1105 625 1144 677 c 0,99,100
 1184 731 1184 731 1240 763 c 0,101,102
 1297 796 1297 796 1359 796 c 128,-1,103
 1421 796 1421 796 1478 763 c 0,104,105
 1534 731 1534 731 1574 677 c 128,-1,106
 1614 623 1614 623 1637 544 c 128,-1,107
 1660 465 1660 465 1660 380 c 0,108,109
 1660 294 1660 294 1637 221 c 128,-1,110
 1614 148 1614 148 1574 94 c 0,111,112
 1532 38 1532 38 1478 8 c 0,113,114
 1420 -24 1420 -24 1343 -24 c 0,115,116
 1296 -24 1296 -24 1240 8 c 0,117,118
 1191 36 1191 36 1144 95 c 0,119,120
 1108 141 1108 141 1085 210 c 0,121,122
 1058 289 1058 289 1058 380 c 24,95,96
419 -227 m 1,123,-1
 1327 1815 l 1,124,-1
 1464 1751 l 1,125,-1
 553 -297 l 1,126,-1
 419 -227 l 1,123,-1
EndSplineSet
Validated: 1
EndChar

StartChar: afii61289
Encoding: 8467 8467 165
Width: 951
GlyphClass: 2
Flags: W
HStem: 0 142<477.201 628.143> 1395 120<486.9 589.991>
VStem: 277 189<164.188 469 684 751.759 923 1367.65> 611 140<1108.14 1376.82>
LayerCount: 2
Fore
SplineSet
100 449 m 1,0,-1
 277 684 l 1,1,-1
 277 1139 l 2,2,3
 277 1365 277 1365 348.5 1440 c 128,-1,4
 420 1515 420 1515 531 1515 c 0,5,6
 627 1515 627 1515 689 1450 c 128,-1,7
 751 1385 751 1385 751 1276 c 0,8,9
 751 1184 751 1184 691 1051.5 c 128,-1,10
 631 919 631 919 466 689 c 1,11,-1
 466 274 l 2,12,13
 466 185 466 185 480.5 163.5 c 128,-1,14
 495 142 495 142 522 142 c 0,15,16
 548 142 548 142 582 158.5 c 128,-1,17
 616 175 616 175 721 249 c 1,18,-1
 721 87 l 1,19,20
 610 0 610 0 496 0 c 0,21,22
 404 0 404 0 340.5 58.5 c 128,-1,23
 277 117 277 117 277 244 c 2,24,-1
 277 469 l 1,25,-1
 198 371 l 1,26,-1
 100 449 l 1,0,-1
466 923 m 1,27,28
 564 1092 564 1092 587.5 1156 c 128,-1,29
 611 1220 611 1220 611 1275 c 0,30,31
 611 1336 611 1336 585 1370 c 0,32,33
 565 1395 565 1395 535 1395 c 0,34,35
 504 1395 504 1395 489 1369 c 0,36,37
 466 1327 466 1327 466 1150 c 2,38,-1
 466 923 l 1,27,28
EndSplineSet
Validated: 16385
EndChar

StartChar: trademark
Encoding: 8482 8482 166
Width: 1937
GlyphClass: 2
Flags: W
HStem: 679.42 39.577<394.949 456.46 661.281 723.631 770.966 833.318 999.761 1056.33 1409.22 1468.08 1675.28 1737.63> 1383.95 90.9701<360.992 489.799 628.799 757.605> 1516 20G<977.922 990.253>
VStem: 489.799 139<730.988 1383.92>
DStem2: 1260.06 936.166 1011.23 1131.07 0.42188 -0.906651<-281.686 0> 1260.06 936.166 1448.73 1128.35 0.406483 0.913659<0 252.282> 1642.45 777.078 1448.73 1128.35 0.14886 -0.988858<-376.195 -10.5543>
LayerCount: 2
Fore
SplineSet
410.998 719.056 m 0,0,1
 462.521 729.03 462.521 729.03 489.799 775.882 c 1,2,-1
 489.799 1383.92 l 1,3,-1
 367.012 1383.95 l 1,4,-1
 360.992 1383.49 l 2,5,6
 360.347 1383.4 360.347 1383.4 359.577 1383.21 c 0,7,8
 328.035 1375.61 328.035 1375.61 235.051 1280.15 c 0,9,10
 222.726 1267.5 222.726 1267.5 208.646 1278.16 c 128,-1,11
 194.566 1288.83 194.566 1288.83 203.415 1304.12 c 2,12,-1
 302.266 1474.92 l 1,13,-1
 816.331 1474.92 l 1,14,-1
 915.184 1304.12 l 2,15,16
 924.031 1288.83 924.031 1288.83 909.952 1278.16 c 128,-1,17
 895.913 1267.53 895.913 1267.53 883.547 1280.15 c 0,18,19
 789.879 1375.77 789.879 1375.77 759.021 1383.21 c 0,20,21
 758.021 1383.45 758.021 1383.45 757.605 1383.49 c 2,22,-1
 751.586 1383.95 l 1,23,-1
 628.799 1383.92 l 1,24,-1
 628.799 775.615 l 1,25,26
 651.73 730.732 651.73 730.732 707.891 718.997 c 0,27,28
 725.549 715.307 725.549 715.307 723.693 697.363 c 128,-1,29
 721.839 679.42 721.839 679.42 703.799 679.42 c 2,30,-1
 414.799 679.42 l 2,31,32
 396.625 679.42 396.625 679.42 394.891 697.511 c 128,-1,33
 393.156 715.602 393.156 715.602 410.998 719.056 c 0,0,1
865.807 775.646 m 1,34,-1
 866.149 777.085 l 1,35,-1
 980.947 1536 l 1,36,-1
 1260.06 936.166 l 1,37,-1
 1527.88 1538.15 l 1,38,-1
 1642.45 777.078 l 1,39,-1
 1642.79 775.646 l 1,40,41
 1665.73 730.732 1665.73 730.732 1721.89 718.997 c 0,42,43
 1739.55 715.307 1739.55 715.307 1737.69 697.363 c 128,-1,44
 1735.84 679.42 1735.84 679.42 1717.8 679.42 c 2,45,-1
 1428.8 679.42 l 2,46,47
 1412.08 679.42 1412.08 679.42 1409.12 695.879 c 128,-1,48
 1406.18 712.217 1406.18 712.217 1421.83 718.166 c 0,49,50
 1482.84 741.355 1482.84 741.355 1499.84 759.519 c 0,51,52
 1504.45 764.45 1504.45 764.45 1504.45 766.863 c 2,53,-1
 1504.45 766.977 l 1,54,-1
 1503.99 770.653 l 1,55,-1
 1448.73 1128.35 l 1,56,-1
 1230.82 651.326 l 1,57,-1
 1011.23 1131.07 l 1,58,-1
 961.671 771.226 l 1,59,-1
 961.378 767.537 l 2,60,61
 961.687 766.043 961.687 766.043 964.982 762.301 c 0,62,63
 981.961 743.027 981.961 743.027 1044.26 717.976 c 0,64,65
 1059.57 711.819 1059.57 711.819 1056.43 695.62 c 128,-1,66
 1053.3 679.42 1053.3 679.42 1036.8 679.42 c 2,67,-1
 790.799 679.42 l 2,68,69
 772.76 679.42 772.76 679.42 770.904 697.363 c 128,-1,70
 769.05 715.307 769.05 715.307 786.708 718.997 c 0,71,72
 842.867 730.734 842.867 730.734 865.807 775.646 c 1,34,-1
EndSplineSet
Validated: 16385
EndChar

StartChar: uni2126
Encoding: 8486 8486 167
Width: 1516
GlyphClass: 2
Flags: W
HStem: 0 194<277 512 1001 1239> 1431 105<617.581 891.251>
VStem: 198 208<616.75 1111.04> 512 104<194 274.999> 900 101<193 271> 1112 210<620.91 1106.98>
LayerCount: 2
Fore
SplineSet
0 414 m 1,0,1
 206 202 206 202 277 195 c 1,2,-1
 291 194 l 1,3,-1
 512 194 l 1,4,-1
 512 271 l 1,5,6
 504 275 504 275 503 275 c 0,7,8
 463 304 463 304 367 413 c 0,9,10
 277 516 277 516 241 620 c 0,11,12
 198 744 198 744 198 851 c 0,13,14
 198 855 198 855 198 860 c 0,15,16
 198 985 198 985 241 1108 c 0,17,18
 275 1205 275 1205 375 1329 c 0,19,20
 451 1423 451 1423 542 1476 c 0,21,22
 645 1536 645 1536 760 1536 c 0,23,24
 868 1536 868 1536 978 1476 c 0,25,26
 1070 1426 1070 1426 1155 1326 c 1,27,28
 1225 1243 1225 1243 1278 1107 c 0,29,30
 1322 994 1322 994 1322 866 c 0,31,32
 1322 863 1322 863 1322 860 c 0,33,34
 1322 717 1322 717 1277 620 c 0,35,36
 1226 510 1226 510 1160 431 c 0,37,38
 1069 322 1069 322 1010 276 c 1,39,-1
 1001 271 l 9,40,-1
 1001 193 l 18,41,-1
 1225 193 l 1,42,-1
 1239 194 l 1,43,44
 1310 201 1310 201 1516 413 c 1,45,-1
 1330 -1 l 1,46,-1
 900 -1 l 9,47,-1
 900 374 l 17,48,49
 929 394 929 394 957 421 c 1,50,51
 1045 516 1045 516 1072 598 c 0,52,53
 1112 720 1112 720 1112 846 c 0,54,55
 1113 859 1113 859 1112 874 c 0,56,57
 1101 1041 1101 1041 1076 1128 c 1,58,59
 1036 1243 1036 1243 938 1346 c 0,60,61
 857 1431 857 1431 761 1431 c 0,62,-1
 759 1431 l 0,63,64
 661 1430 661 1430 588 1364 c 0,65,66
 512 1295 512 1295 449 1142 c 0,67,68
 406 1037 406 1037 406 862 c 0,69,70
 406 730 406 730 437 642 c 0,71,72
 479 522 479 522 569 418 c 0,73,74
 588 396 588 396 616 375 c 9,75,-1
 616 0 l 17,76,-1
 186 0 l 1,77,-1
 0 414 l 1,0,1
EndSplineSet
Validated: 1
EndChar

StartChar: estimated
Encoding: 8494 8494 168
Width: 1358
GlyphClass: 2
Flags: W
HStem: 0 73<501.557 855.461> 565 74<381 977> 1057 73<502.165 850.247>
VStem: 150 231<322.452 565 639 808.838> 977 231<639 804.607>
LayerCount: 2
Fore
SplineSet
381 565 m 1,0,-1
 381 194 l 1,1,2
 501 73 501 73 679 73 c 0,3,4
 933 73 933 73 1074 319 c 1,5,-1
 1146 276 l 1,6,7
 1026 103 1026 103 914 51.5 c 128,-1,8
 802 0 802 0 679 0 c 0,9,10
 442 0 442 0 296 160 c 128,-1,11
 150 320 150 320 150 565 c 0,12,13
 150 812 150 812 297 971 c 128,-1,14
 444 1130 444 1130 679 1130 c 0,15,16
 893 1130 893 1130 1045 988 c 128,-1,17
 1197 846 1197 846 1208 565 c 1,18,-1
 381 565 l 1,0,-1
977 639 m 1,19,-1
 977 936 l 1,20,21
 849 1057 849 1057 677 1057 c 0,22,23
 502 1057 502 1057 381 935 c 1,24,-1
 381 639 l 1,25,-1
 977 639 l 1,19,-1
EndSplineSet
Validated: 16385
EndChar

StartChar: partialdiff
Encoding: 8706 8706 169
Width: 1217
GlyphClass: 2
Flags: W
HStem: -25 145<420.487 632.919> 782 160<606.96 861.119> 1358 133<608.35 791.538>
VStem: 150 212<178.808 498.767> 880 187<546.946 757.371 940 1247.34>
LayerCount: 2
Fore
SplineSet
886 940 m 1,0,1
 887 958 887 958 887 976 c 0,2,3
 887 1073 887 1073 860 1178 c 0,4,5
 837 1266 837 1266 792 1314 c 1,6,7
 749 1358 749 1358 694 1358 c 0,8,9
 640 1358 640 1358 590 1292 c 0,10,11
 578 1276 578 1276 520 1138 c 1,12,-1
 385 1198 l 1,13,14
 455 1355 455 1355 553 1423 c 128,-1,15
 651 1491 651 1491 745 1491 c 0,16,17
 821 1491 821 1491 882.5 1451.5 c 128,-1,18
 944 1412 944 1412 975 1361 c 0,19,20
 1022 1282 1022 1282 1044.5 1174 c 128,-1,21
 1067 1066 1067 1066 1067 926 c 0,22,23
 1067 638 1067 638 980.5 413.5 c 128,-1,24
 894 189 894 189 747 82 c 128,-1,25
 600 -25 600 -25 458 -25 c 0,26,27
 321 -25 321 -25 235.5 66 c 128,-1,28
 150 157 150 157 150 322 c 0,29,30
 150 531 150 531 303 709 c 0,31,32
 503 942 503 942 781 942 c 0,33,34
 784 942 784 942 788 942 c 0,35,36
 845 942 845 942 886 940 c 1,0,1
862 758 m 1,37,38
 834 782 834 782 780 782 c 0,39,40
 764 782 764 782 746 780 c 0,41,42
 662 771 662 771 594 730 c 0,43,44
 510 678 510 678 436 556 c 128,-1,45
 362 434 362 434 362 308 c 0,46,47
 362 227 362 227 413 171 c 0,48,49
 459 120 459 120 514 120 c 0,50,51
 516 120 516 120 518 120 c 0,52,53
 595 120 595 120 636 164 c 0,54,55
 699 232 699 232 766 368 c 0,56,57
 868 575 868 575 880 690 c 1,58,59
 880 700 880 700 880 702 c 0,60,61
 879 738 879 738 862 758 c 1,37,38
EndSplineSet
Validated: 16385
EndChar

StartChar: uni2206
Encoding: 8710 8710 170
Width: 1420
GlyphClass: 2
Flags: W
HStem: 0 106<282 1042>
DStem2: 170 148 282 106 0.356271 0.934383<0.658241 1077.32> 705 1551 663 1113 0.361715 -0.932289<393.15 1469.06>
LayerCount: 2
Fore
SplineSet
-20 0 m 1,0,1
 103 24 103 24 167 140 c 1,2,-1
 170 148 l 1,3,-1
 705 1551 l 1,4,-1
 1250 148 l 1,5,-1
 1251 145 l 1,6,-1
 1254 136 l 1,7,8
 1318 24 1318 24 1440 0 c 1,9,-1
 -20 0 l 1,0,1
282 106 m 1,10,-1
 1042 106 l 1,11,-1
 663 1113 l 1,12,-1
 282 106 l 1,10,-1
EndSplineSet
Validated: 1
EndChar

StartChar: gradient
Encoding: 8711 8711 171
Width: 1420
GlyphClass: 2
Flags: W
HStem: 1405 106<378 1138>
DStem2: 378 1405 170 1363 0.361715 -0.932289<0 1075.9> 757 398 715 -40 0.356271 0.934383<0 1076.66>
LayerCount: 2
Fore
SplineSet
1440 1511 m 1,0,1
 1317 1487 1317 1487 1253 1371 c 1,2,-1
 1250 1363 l 1,3,-1
 715 -40 l 1,4,-1
 170 1363 l 1,5,-1
 169 1366 l 1,6,-1
 166 1375 l 1,7,8
 102 1487 102 1487 -20 1511 c 1,9,-1
 1440 1511 l 1,0,1
1138 1405 m 1,10,-1
 378 1405 l 1,11,-1
 757 398 l 1,12,-1
 1138 1405 l 1,10,-1
EndSplineSet
Validated: 1
EndChar

StartChar: product
Encoding: 8719 8719 172
Width: 1488
GlyphClass: 2
Flags: W
HStem: 0 21G<60 638 850 1428> 1391 120<448 1040>
VStem: 250 198<140 1371> 1040 198<140 1372>
LayerCount: 2
Fore
SplineSet
60 0 m 1,0,1
 184 24 184 24 248 140 c 1,2,-1
 250 148 l 1,3,-1
 250 1363 l 1,4,-1
 248 1371 l 1,5,6
 184 1487 184 1487 60 1511 c 1,7,-1
 1428 1511 l 1,8,9
 1294 1483 1294 1483 1240 1372 c 1,10,-1
 1238 1363 l 1,11,-1
 1238 148 l 1,12,-1
 1240 139 l 1,13,14
 1294 28 1294 28 1428 0 c 1,15,-1
 850 0 l 1,16,17
 974 24 974 24 1038 140 c 1,18,-1
 1040 148 l 1,19,-1
 1040 1391 l 1,20,-1
 448 1391 l 1,21,-1
 448 148 l 1,22,-1
 450 139 l 1,23,24
 504 28 504 28 638 0 c 1,25,-1
 60 0 l 1,0,1
EndSplineSet
Validated: 16385
EndChar

StartChar: uni2210
Encoding: 8720 8720 173
Width: 1488
GlyphClass: 2
Flags: W
HStem: 0 120<448 1040> 1491 20G<60 638 850 1428>
VStem: 250 198<140 1371> 1040 198<139 1371>
LayerCount: 2
Fore
SplineSet
60 0 m 1,0,1
 184 24 184 24 248 140 c 1,2,-1
 250 148 l 1,3,-1
 250 1363 l 1,4,-1
 248 1371 l 1,5,6
 184 1487 184 1487 60 1511 c 1,7,-1
 638 1511 l 1,8,9
 504 1483 504 1483 450 1372 c 1,10,-1
 448 1363 l 1,11,-1
 448 120 l 1,12,-1
 1040 120 l 1,13,-1
 1040 1363 l 1,14,-1
 1038 1371 l 1,15,16
 974 1487 974 1487 850 1511 c 1,17,-1
 1428 1511 l 1,18,19
 1294 1483 1294 1483 1240 1372 c 1,20,-1
 1238 1363 l 1,21,-1
 1238 148 l 1,22,-1
 1240 139 l 1,23,24
 1294 28 1294 28 1428 0 c 1,25,-1
 60 0 l 1,0,1
EndSplineSet
Validated: 16385
EndChar

StartChar: summation
Encoding: 8721 8721 174
Width: 1382
GlyphClass: 2
Flags: W
HStem: 0 102<470.15 1045> 1409 102<470.15 915>
DStem2: 470.15 1409 250 1363 0.584717 -0.811237<0 665.772>
LayerCount: 2
Fore
SplineSet
470.15 102 m 1,0,-1
 1031 102 l 1,1,-1
 1045 103 l 1,2,3
 1116.15 110 1116.15 110 1322.15 321.627 c 1,4,-1
 1136 0 l 1,5,-1
 60 0 l 1,6,7
 157.15 39 157.15 39 243.15 137 c 1,8,-1
 250 148 l 1,9,-1
 686.15 744 l 1,10,-1
 250 1363 l 1,11,-1
 243.15 1374 l 1,12,13
 160.15 1489 160.15 1489 60 1511 c 1,14,-1
 1006 1511 l 1,15,-1
 1192.15 1189.37 l 1,16,17
 986.15 1401 986.15 1401 915 1408 c 1,18,-1
 901 1409 l 1,19,-1
 470.15 1409 l 1,20,-1
 947.301 747 l 1,21,-1
 470.15 102 l 1,0,-1
EndSplineSet
Validated: 16385
EndChar

StartChar: minus
Encoding: 8722 8722 175
Width: 1233
GlyphClass: 2
Flags: W
HStem: 601 197<200 1033>
LayerCount: 2
Fore
SplineSet
200 798 m 1,0,-1
 1033 798 l 1,1,-1
 1033 601 l 1,2,-1
 200 601 l 1,3,-1
 200 798 l 1,0,-1
EndSplineSet
Validated: 1
EndChar

StartChar: uni2215
Encoding: 8725 8725 176
Width: 1045
GlyphClass: 2
Flags: W
DStem2: 0 -227 134 -297 0.406428 0.913683<0 2231.98>
LayerCount: 2
Fore
SplineSet
0 -227 m 1,0,-1
 908 1815 l 1,1,-1
 1045 1751 l 1,2,-1
 134 -297 l 1,3,-1
 0 -227 l 1,0,-1
EndSplineSet
Validated: 1
EndChar

StartChar: asteriskmath
Encoding: 8727 8727 177
Width: 1393
GlyphClass: 2
Flags: W
LayerCount: 2
Fore
SplineSet
200 721 m 1,0,-1
 543.875 826.54 l 1,1,-1
 464 969 l 1,2,-1
 607.331 899.08 l 1,3,-1
 697 1218 l 1,4,-1
 807.729 896.28 l 1,5,-1
 956 968 l 1,6,-1
 887.446 826.99 l 1,7,-1
 1193 721 l 1,8,-1
 880.805 622.5 l 1,9,-1
 956 477 l 1,10,-1
 805.477 561.099 l 1,11,-1
 697 225 l 1,12,-1
 603.416 555.097 l 1,13,-1
 464 476 l 1,14,-1
 542.785 625.339 l 1,15,-1
 200 721 l 1,0,-1
EndSplineSet
Validated: 1
EndChar

StartChar: uni2218
Encoding: 8728 8728 178
Width: 980
GlyphClass: 2
Flags: W
HStem: 410 156<394.445 581.915> 830 152<394.445 581.915>
VStem: 200 158<602.482 793.125> 618 162<602.482 793.125>
LayerCount: 2
Fore
SplineSet
358 698 m 128,-1,1
 358 643 358 643 396 604.5 c 128,-1,2
 434 566 434 566 488 566 c 128,-1,3
 542 566 542 566 580 604.5 c 128,-1,4
 618 643 618 643 618 698 c 128,-1,5
 618 753 618 753 580 791.5 c 128,-1,6
 542 830 542 830 488 830 c 128,-1,7
 434 830 434 830 396 791.5 c 128,-1,0
 358 753 358 753 358 698 c 128,-1,1
200 696 m 128,-1,9
 200 814 200 814 285 898 c 128,-1,10
 370 982 370 982 490 982 c 128,-1,11
 610 982 610 982 695 898 c 128,-1,12
 780 814 780 814 780 696 c 128,-1,13
 780 578 780 578 695 494 c 128,-1,14
 610 410 610 410 490 410 c 128,-1,15
 370 410 370 410 285 494 c 128,-1,8
 200 578 200 578 200 696 c 128,-1,9
EndSplineSet
Validated: 1
EndChar

StartChar: uni2219
Encoding: 8729 8729 179
Width: 660
GlyphClass: 2
Flags: W
HStem: 562 264<239.191 420.809>
VStem: 200 260<601.707 786.293>
LayerCount: 2
Fore
SplineSet
200 694 m 128,-1,1
 200 749 200 749 238 787.5 c 128,-1,2
 276 826 276 826 330 826 c 128,-1,3
 384 826 384 826 422 787.5 c 128,-1,4
 460 749 460 749 460 694 c 128,-1,5
 460 639 460 639 422 600.5 c 128,-1,6
 384 562 384 562 330 562 c 128,-1,7
 276 562 276 562 238 600.5 c 128,-1,0
 200 639 200 639 200 694 c 128,-1,1
EndSplineSet
Validated: 1
EndChar

StartChar: radical
Encoding: 8730 8730 180
Width: 1427
GlyphClass: 2
Flags: W
HStem: 686 145<150 353> 1524 142<1229 1427>
DStem2: 520 831 353 685 0.370286 -0.928918<73.7843 433.606> 675 426 642 -40 0.351386 0.936231<0 1222.65>
LayerCount: 2
Fore
SplineSet
150 686 m 1,0,-1
 150 831 l 1,1,-1
 520 831 l 1,2,-1
 675 426 l 1,3,-1
 1141 1666 l 1,4,-1
 1427 1666 l 1,5,-1
 1427 1524 l 1,6,-1
 1229 1524 l 9,7,-1
 642 -40 l 25,8,-1
 353 685 l 17,9,-1
 150 686 l 1,0,-1
EndSplineSet
Validated: 1
EndChar

StartChar: uni221B
Encoding: 8731 8731 181
Width: 1427
GlyphClass: 2
Flags: W
HStem: 686 145<150 353> 941 75<490.136 664.998> 1524 142<1229 1427> 1540 65<514.252 644.901>
VStem: 374 138<1090.16 1221.07> 421 138<1397.69 1510.84> 660 114<1378.63 1534.45> 689 122<1052.82 1253.66>
DStem2: 520 831 353 685 0.370286 -0.928918<73.7843 433.606> 675 426 642 -40 0.351386 0.936231<0 1222.65>
LayerCount: 2
Fore
SplineSet
150 686 m 1,0,-1
 150 831 l 1,1,-1
 520 831 l 1,2,-1
 675 426 l 1,3,-1
 1141 1666 l 1,4,-1
 1427 1666 l 1,5,-1
 1427 1524 l 1,6,-1
 1229 1524 l 9,7,-1
 642 -40 l 25,8,-1
 353 685 l 17,9,-1
 150 686 l 1,0,-1
593 1016 m 0,10,11
 634 1016 634 1016 666 1052 c 0,12,13
 689 1078 689 1078 689 1134 c 2,14,-1
 689 1141 l 2,15,16
 689 1144 689 1144 689 1147 c 0,17,18
 689 1187 689 1187 678 1210 c 0,19,20
 663 1241 663 1241 639 1258 c 0,21,22
 624 1268 624 1268 560 1296 c 2,23,-1
 530 1309 l 1,24,-1
 559 1326 l 2,25,26
 575 1335 575 1335 581 1337 c 0,27,28
 584 1338 584 1338 612 1355 c 0,29,30
 631 1366 631 1366 642 1378 c 0,31,32
 660 1398 660 1398 660 1445 c 0,33,-1
 660 1456 l 0,34,35
 659 1486 659 1486 642 1514 c 1,36,-1
 639 1518 l 1,37,38
 615 1540 615 1540 593 1540 c 0,39,-1
 588 1540 l 0,40,41
 558 1543 558 1543 538 1532 c 0,42,43
 522 1523 522 1523 514 1511 c 1,44,45
 529 1506 529 1506 539 1495 c 0,46,47
 559 1474 559 1474 559 1445 c 128,-1,48
 559 1416 559 1416 539 1396 c 128,-1,49
 519 1376 519 1376 490 1376 c 128,-1,50
 461 1376 461 1376 441 1397 c 0,51,52
 420 1419 420 1419 421 1447 c 0,53,54
 422 1501 422 1501 480 1565 c 1,55,56
 523 1605 523 1605 591 1605 c 2,57,-1
 592 1605 l 2,58,59
 663 1605 663 1605 705 1577 c 0,60,61
 774 1531 774 1531 774 1464 c 0,62,-1
 774 1451 l 0,63,64
 772 1390 772 1390 741 1359 c 0,65,66
 716 1334 716 1334 679 1314 c 17,67,-1
 690 1310 l 2,68,69
 723 1298 723 1298 758 1268 c 0,70,71
 806 1225 806 1225 811 1145 c 1,72,-1
 811 1127 l 1,73,-1
 811 1126 l 2,74,75
 811 1042 811 1042 741 988 c 0,76,77
 680 941 680 941 596 941 c 0,78,79
 594 941 594 941 592 941 c 0,80,81
 495 941 495 941 441 1002 c 0,82,83
 374 1078 374 1078 374 1142 c 0,84,85
 374 1146 374 1146 375 1154 c 0,86,87
 375 1182 375 1182 395 1204 c 128,-1,88
 415 1226 415 1226 444 1226 c 0,89,90
 471 1226 471 1226 492 1205 c 0,91,92
 512 1185 512 1185 512 1156 c 0,93,94
 512 1129 512 1129 492 1107 c 0,95,96
 481 1095 481 1095 467 1090 c 1,97,98
 476 1064 476 1064 497 1047 c 0,99,100
 534 1016 534 1016 593 1016 c 0,10,11
EndSplineSet
Validated: 1
EndChar

StartChar: infinity
Encoding: 8734 8734 182
Width: 1984
GlyphClass: 2
Flags: W
HStem: 190 125<531.311 773.417 1223.16 1456.22> 1170 132<538.515 767.193 1219.92 1455.98>
VStem: 200 200<500.481 987.262> 896 190<481.917 990.883> 1582 202<507.794 983.021>
LayerCount: 2
Fore
SplineSet
1086 742 m 0,0,1
 1086 526 1086 526 1168 416 c 1,2,3
 1245 315 1245 315 1340 315 c 0,4,5
 1441 315 1441 315 1511 424 c 128,-1,6
 1581 533 1581 533 1582 754 c 1,7,8
 1581 967 1581 967 1508 1070 c 0,9,10
 1438 1170 1438 1170 1337 1170 c 0,11,12
 1242 1170 1242 1170 1165 1069 c 1,13,14
 1086 918 1086 918 1086 762 c 0,15,-1
 1086 758 l 0,16,17
 1086 750 1086 750 1086 742 c 0,0,1
400 738 m 0,18,19
 400 522 400 522 482 412 c 1,20,21
 559 311 559 311 654 311 c 0,22,23
 755 311 755 311 825 420 c 128,-1,24
 895 529 895 529 896 750 c 1,25,26
 895 963 895 963 822 1066 c 0,27,28
 752 1166 752 1166 651 1166 c 0,29,30
 556 1166 556 1166 479 1065 c 1,31,32
 400 914 400 914 400 758 c 0,33,34
 400 756 400 756 400 754 c 0,35,36
 400 751 400 751 400 738 c 0,18,19
1784 753 m 0,37,38
 1784 601 1784 601 1724 471 c 0,39,40
 1662 338 1662 338 1563 265 c 0,41,42
 1460 190 1460 190 1340 190 c 0,43,44
 1218 190 1218 190 1117 265 c 0,45,46
 1045 318 1045 318 994 399 c 1,47,48
 941 311 941 311 867 257 c 0,49,50
 764 182 764 182 644 182 c 0,51,52
 522 182 522 182 421 257 c 0,53,54
 319 333 319 333 260 463 c 0,55,56
 200 595 200 595 200 745 c 0,57,58
 200 897 200 897 260 1029 c 0,59,60
 319 1159 319 1159 421 1235 c 0,61,62
 522 1310 522 1310 644 1310 c 0,63,64
 764 1310 764 1310 867 1235 c 0,65,66
 941 1181 941 1181 994 1093 c 1,67,68
 1045 1174 1045 1174 1117 1227 c 0,69,70
 1218 1302 1218 1302 1340 1302 c 0,71,72
 1460 1302 1460 1302 1563 1227 c 0,73,74
 1662 1154 1662 1154 1724 1021 c 0,75,76
 1784 891 1784 891 1784 753 c 0,37,38
EndSplineSet
Validated: 16385
EndChar

StartChar: approxequal
Encoding: 8776 8776 183
Width: 1436
GlyphClass: 2
Flags: W
HStem: 499.784 184<356.733 591.125> 891.78 184<362.733 597.125>
DStem2: 757 598.784 548 475.784 0.896975 -0.442081<-268.323 253.466> 763 990.78 554 867.78 0.896975 -0.442081<-268.323 253.466>
LayerCount: 2
Fore
SplineSet
200 399.784 m 1,0,1
 296 683.784 296 683.784 499 683.784 c 0,2,3
 523 683.784 523 683.784 547 679.784 c 0,4,5
 610 668.784 610 668.784 757 598.784 c 1,6,-1
 897 529.784 l 0,7,8
 939 504.784 939 504.784 995 504.784 c 0,9,10
 1094 504.784 1094 504.784 1230 629.784 c 1,11,12
 1143 335.784 1143 335.784 936 323.784 c 0,13,14
 918 322.784 918 322.784 898 325.784 c 0,15,16
 834 335.784 834 335.784 686 409.784 c 1,17,-1
 548 475.784 l 0,18,19
 502 498.784 502 498.784 447 499.784 c 0,20,-1
 445 499.784 l 0,21,22
 342 499.784 342 499.784 200 399.784 c 1,0,1
206 791.78 m 1,23,24
 302 1075.78 302 1075.78 505 1075.78 c 0,25,26
 529 1075.78 529 1075.78 553 1071.78 c 0,27,28
 616 1060.78 616 1060.78 763 990.78 c 1,29,-1
 903 921.78 l 0,30,31
 945 896.78 945 896.78 1001 896.78 c 0,32,33
 1100 896.78 1100 896.78 1236 1021.78 c 1,34,35
 1149 727.78 1149 727.78 942 715.78 c 0,36,37
 924 714.78 924 714.78 904 717.78 c 0,38,39
 840 727.78 840 727.78 692 801.78 c 1,40,-1
 554 867.78 l 0,41,42
 508 890.78 508 890.78 453 891.78 c 0,43,-1
 451 891.78 l 0,44,45
 348 891.78 348 891.78 206 791.78 c 1,23,24
EndSplineSet
Validated: 16385
EndChar

StartChar: notequal
Encoding: 8800 8800 184
Width: 1234
GlyphClass: 2
Flags: W
HStem: 436 197<200 372.302 644.45 1033> 784 197<201 552.422 824.54 1034>
DStem2: 231 163 365 93 0.459604 0.888124<0 307.401 607.442 699.252 999.279 1344.46>
LayerCount: 2
Fore
SplineSet
201 981 m 1,0,-1
 654.387 981 l 1,1,-1
 849 1357 l 1,2,-1
 986 1293 l 1,3,-1
 824.54 981 l 1,4,-1
 1034 981 l 1,5,-1
 1034 784 l 1,6,-1
 722.593 784 l 1,7,-1
 644.45 633 l 1,8,-1
 1033 633 l 1,9,-1
 1033 436 l 1,10,-1
 542.503 436 l 1,11,-1
 365 93 l 1,12,-1
 231 163 l 1,13,-1
 372.302 436 l 1,14,-1
 200 436 l 1,15,-1
 200 633 l 1,16,-1
 474.266 633 l 1,17,-1
 552.422 784 l 1,18,-1
 200 784 l 1,19,-1
 201 981 l 1,0,-1
EndSplineSet
Validated: 16385
EndChar

StartChar: equivalence
Encoding: 8801 8801 185
Width: 1234
GlyphClass: 2
Flags: W
HStem: 260 197<201 1034> 609 197<200 1033> 957 197<201 1034>
VStem: 201 833<260 457 609 806 957 1154>
LayerCount: 2
Fore
SplineSet
201 457 m 1,0,-1
 1034 457 l 1,1,-1
 1034 260 l 1,2,-1
 201 260 l 1,3,-1
 201 457 l 1,0,-1
200 806 m 1,4,-1
 1033 806 l 1,5,-1
 1033 609 l 1,6,-1
 200 609 l 1,7,-1
 200 806 l 1,4,-1
201 1154 m 1,8,-1
 1034 1154 l 1,9,-1
 1034 957 l 1,10,-1
 200 957 l 1,11,-1
 201 1154 l 1,8,-1
EndSplineSet
Validated: 16385
EndChar

StartChar: lessequal
Encoding: 8804 8804 186
Width: 1337
GlyphClass: 2
Flags: W
HStem: 135 197<217 1050>
DStem2: 451 939 130 898 0.871878 -0.489724<0 783.224> 130 898 451 939 0.870391 0.492361<299.582 1084.57>
LayerCount: 2
Fore
SplineSet
217 332 m 1,0,-1
 1050 332 l 1,1,-1
 1050 135 l 1,2,-1
 217 135 l 1,3,-1
 217 332 l 1,0,-1
130 898 m 17,4,-1
 1074 1432 l 1,5,-1
 1137 1327 l 1,6,-1
 451 939 l 1,7,-1
 1137 561 l 1,8,-1
 1054 379 l 9,9,-1
 130 898 l 17,4,-1
EndSplineSet
Validated: 16385
EndChar

StartChar: greaterequal
Encoding: 8805 8805 187
Width: 1337
GlyphClass: 2
Flags: W
HStem: 142 197<263 1096>
DStem2: 283 1432 200 1250 0.871878 -0.489724<16.7638 799.987> 200 484 263 379 0.870391 0.492361<3.13673 788.124>
LayerCount: 2
Fore
SplineSet
1096 339 m 1,0,-1
 1096 142 l 1,1,-1
 263 142 l 1,2,-1
 263 339 l 1,3,-1
 1096 339 l 1,0,-1
1207 913 m 17,4,-1
 263 379 l 1,5,-1
 200 484 l 1,6,-1
 886 872 l 1,7,-1
 200 1250 l 1,8,-1
 283 1432 l 9,9,-1
 1207 913 l 17,4,-1
EndSplineSet
Validated: 16385
EndChar

StartChar: lozenge
Encoding: 9674 9674 188
Width: 1234
GlyphClass: 2
Flags: W
HStem: 0 21G<604.344 629.605> 1495 20G<604.979 629.067>
DStem2: 324 810 150 738 0.534725 -0.845026<0 642.656> 150 738 324 810 0.515144 0.857103<151.347 641.488> 617 1515 575 1231 0.516609 -0.856221<221.469 874.194> 663 264 617 0 0.533177 0.846004<0 477.931>
LayerCount: 2
Fore
SplineSet
575 1231 m 1,0,-1
 324 810 l 1,1,-1
 663 264 l 1,2,-1
 912 672 l 1,3,-1
 575 1231 l 1,0,-1
617 1515 m 1,4,-1
 1084 741 l 1,5,-1
 617 0 l 1,6,-1
 150 738 l 1,7,-1
 617 1515 l 1,4,-1
EndSplineSet
Validated: 16385
EndChar

StartChar: multiply
Encoding: 215 215 189
Width: 1128
Flags: W
HStem: 560.2 278.6<424.86 703.46>
VStem: 424.86 278.6<560.2 838.8>
DStem2: 339.3 1063.66 200 924.36 0.707107 -0.707106<0 318 515 833> 200 474.64 339.3 335.34 0.707107 0.707106<0.000144479 318 515 833>
LayerCount: 2
Fore
SplineSet
339.3 335.34 m 1,0,-1
 200 474.64 l 1,1,-1
 424.86 699.5 l 1,2,-1
 200 924.36 l 1,3,-1
 339.3 1063.66 l 1,4,-1
 564.16 838.8 l 1,5,-1
 789.021 1063.66 l 1,6,-1
 928.32 924.36 l 1,7,-1
 703.46 699.5 l 1,8,-1
 928.32 474.64 l 1,9,-1
 789.021 335.34 l 1,10,-1
 564.16 560.2 l 1,11,-1
 339.3 335.34 l 1,0,-1
EndSplineSet
Validated: 16385
EndChar

StartChar: divide
Encoding: 247 247 190
Width: 1233
Flags: W
HStem: 274 264<526.691 708.309> 601 197<200 1033> 853 264<524.691 706.309>
VStem: 487.5 260<313.707 498.293 892.707 1077.29>
LayerCount: 2
Fore
SplineSet
200 798 m 1,0,-1
 1033 798 l 1,1,-1
 1033 601 l 1,2,-1
 200 601 l 1,3,-1
 200 798 l 1,0,-1
487.5 406 m 128,-1,5
 487.5 461 487.5 461 525.5 499.5 c 128,-1,6
 563.5 538 563.5 538 617.5 538 c 128,-1,7
 671.5 538 671.5 538 709.5 499.5 c 128,-1,8
 747.5 461 747.5 461 747.5 406 c 128,-1,9
 747.5 351 747.5 351 709.5 312.5 c 128,-1,10
 671.5 274 671.5 274 617.5 274 c 128,-1,11
 563.5 274 563.5 274 525.5 312.5 c 128,-1,4
 487.5 351 487.5 351 487.5 406 c 128,-1,5
485.5 985 m 128,-1,13
 485.5 1040 485.5 1040 523.5 1078.5 c 128,-1,14
 561.5 1117 561.5 1117 615.5 1117 c 128,-1,15
 669.5 1117 669.5 1117 707.5 1078.5 c 128,-1,16
 745.5 1040 745.5 1040 745.5 985 c 128,-1,17
 745.5 930 745.5 930 707.5 891.5 c 128,-1,18
 669.5 853 669.5 853 615.5 853 c 128,-1,19
 561.5 853 561.5 853 523.5 891.5 c 128,-1,12
 485.5 930 485.5 930 485.5 985 c 128,-1,13
EndSplineSet
Validated: 16385
EndChar

